<ttFont>
    <TTGlyph name=".notdef" xMin="0" yMin="0" xMax="502" yMax="701">
      <contour>
        <pt x="251" y="302" on="1"/>
        <pt x="247" y="302" on="1"/>
        <pt x="147" y="93" on="1"/>
        <pt x="87" y="93" on="1"/>
        <pt x="221" y="353" on="1"/>
        <pt x="87" y="608" on="1"/>
        <pt x="147" y="608" on="1"/>
        <pt x="252" y="402" on="1"/>
        <pt x="256" y="402" on="1"/>
        <pt x="356" y="608" on="1"/>
        <pt x="416" y="608" on="1"/>
        <pt x="281" y="347" on="1"/>
        <pt x="416" y="93" on="1"/>
        <pt x="356" y="93" on="1"/>
      </contour>
      <contour>
        <pt x="51" y="652" on="1"/>
        <pt x="51" y="49" on="1"/>
        <pt x="451" y="49" on="1"/>
        <pt x="451" y="652" on="1"/>
      </contour>
      <contour>
        <pt x="0" y="0" on="1"/>
        <pt x="0" y="701" on="1"/>
        <pt x="502" y="701" on="1"/>
        <pt x="502" y="0" on="1"/>
      </contour>
    </TTGlyph>
    <TTGlyph name="A" xMin="15" yMin="0" xMax="328" yMax="622">
      <contour>
        <pt x="259" y="0" on="1"/>
        <pt x="233" y="158" on="1"/>
        <pt x="107" y="158" on="1"/>
        <pt x="84" y="0" on="1"/>
        <pt x="15" y="0" on="1"/>
        <pt x="112" y="622" on="1"/>
        <pt x="221" y="622" on="1"/>
        <pt x="328" y="0" on="1"/>
      </contour>
      <contour>
        <pt x="115" y="217" on="1"/>
        <pt x="224" y="217" on="1"/>
        <pt x="166" y="574" on="1"/>
      </contour>
    </TTGlyph>
    <TTGlyph name="AE" xMin="14" yMin="0" xMax="504" yMax="622">
      <contour>
        <pt x="333" y="59" on="1"/>
        <pt x="504" y="59" on="1"/>
        <pt x="504" y="0" on="1"/>
        <pt x="264" y="0" on="1"/>
        <pt x="264" y="158" on="1"/>
        <pt x="139" y="158" on="1"/>
        <pt x="83" y="0" on="1"/>
        <pt x="14" y="0" on="1"/>
        <pt x="240" y="622" on="1"/>
        <pt x="497" y="622" on="1"/>
        <pt x="497" y="563" on="1"/>
        <pt x="333" y="563" on="1"/>
        <pt x="333" y="353" on="1"/>
        <pt x="467" y="353" on="1"/>
        <pt x="467" y="294" on="1"/>
        <pt x="333" y="294" on="1"/>
      </contour>
      <contour>
        <pt x="264" y="217" on="1"/>
        <pt x="264" y="509" on="1"/>
        <pt x="160" y="217" on="1"/>
      </contour>
    </TTGlyph>
    <TTGlyph name="Aacute" xMin="15" yMin="0" xMax="328" yMax="780">
      <contour>
        <pt x="259" y="0" on="1"/>
        <pt x="233" y="158" on="1"/>
        <pt x="107" y="158" on="1"/>
        <pt x="84" y="0" on="1"/>
        <pt x="15" y="0" on="1"/>
        <pt x="112" y="622" on="1"/>
        <pt x="221" y="622" on="1"/>
        <pt x="328" y="0" on="1"/>
      </contour>
      <contour>
        <pt x="115" y="217" on="1"/>
        <pt x="224" y="217" on="1"/>
        <pt x="166" y="574" on="1"/>
      </contour>
      <contour>
        <pt x="295" y="780" on="1"/>
        <pt x="197" y="653" on="1"/>
        <pt x="135" y="653" on="1"/>
        <pt x="213" y="780" on="1"/>
      </contour>
    </TTGlyph>
    <TTGlyph name="Abreve" xMin="15" yMin="0" xMax="328" yMax="780">
      <contour>
        <pt x="259" y="0" on="1"/>
        <pt x="233" y="158" on="1"/>
        <pt x="107" y="158" on="1"/>
        <pt x="84" y="0" on="1"/>
        <pt x="15" y="0" on="1"/>
        <pt x="112" y="622" on="1"/>
        <pt x="221" y="622" on="1"/>
        <pt x="328" y="0" on="1"/>
      </contour>
      <contour>
        <pt x="115" y="217" on="1"/>
        <pt x="224" y="217" on="1"/>
        <pt x="166" y="574" on="1"/>
      </contour>
      <contour>
        <pt x="217" y="653" on="1"/>
        <pt x="115" y="653" on="1"/>
        <pt x="36" y="653" on="0"/>
        <pt x="36" y="732" on="1"/>
        <pt x="36" y="780" on="1"/>
        <pt x="102" y="780" on="1"/>
        <pt x="102" y="740" on="1"/>
        <pt x="102" y="720" on="0"/>
        <pt x="114" y="709" on="0"/>
        <pt x="133" y="709" on="1"/>
        <pt x="199" y="709" on="1"/>
        <pt x="218" y="709" on="0"/>
        <pt x="230" y="720" on="0"/>
        <pt x="230" y="740" on="1"/>
        <pt x="230" y="780" on="1"/>
        <pt x="296" y="780" on="1"/>
        <pt x="296" y="732" on="1"/>
        <pt x="296" y="653" on="0"/>
      </contour>
    </TTGlyph>
    <TTGlyph name="Acircumflex" xMin="15" yMin="0" xMax="328" yMax="780">
      <contour>
        <pt x="259" y="0" on="1"/>
        <pt x="233" y="158" on="1"/>
        <pt x="107" y="158" on="1"/>
        <pt x="84" y="0" on="1"/>
        <pt x="15" y="0" on="1"/>
        <pt x="112" y="622" on="1"/>
        <pt x="221" y="622" on="1"/>
        <pt x="328" y="0" on="1"/>
      </contour>
      <contour>
        <pt x="115" y="217" on="1"/>
        <pt x="224" y="217" on="1"/>
        <pt x="166" y="574" on="1"/>
      </contour>
      <contour>
        <pt x="166" y="737" on="1"/>
        <pt x="114" y="653" on="1"/>
        <pt x="38" y="653" on="1"/>
        <pt x="123" y="780" on="1"/>
        <pt x="210" y="780" on="1"/>
        <pt x="295" y="653" on="1"/>
        <pt x="219" y="653" on="1"/>
      </contour>
    </TTGlyph>
    <TTGlyph name="Adieresis" xMin="15" yMin="0" xMax="328" yMax="737">
      <contour>
        <pt x="259" y="0" on="1"/>
        <pt x="233" y="158" on="1"/>
        <pt x="107" y="158" on="1"/>
        <pt x="84" y="0" on="1"/>
        <pt x="15" y="0" on="1"/>
        <pt x="112" y="622" on="1"/>
        <pt x="221" y="622" on="1"/>
        <pt x="328" y="0" on="1"/>
      </contour>
      <contour>
        <pt x="115" y="217" on="1"/>
        <pt x="224" y="217" on="1"/>
        <pt x="166" y="574" on="1"/>
      </contour>
      <contour>
        <pt x="122" y="737" on="1"/>
        <pt x="122" y="653" on="1"/>
        <pt x="34" y="653" on="1"/>
        <pt x="34" y="737" on="1"/>
      </contour>
      <contour>
        <pt x="298" y="737" on="1"/>
        <pt x="298" y="653" on="1"/>
        <pt x="210" y="653" on="1"/>
        <pt x="210" y="737" on="1"/>
      </contour>
    </TTGlyph>
    <TTGlyph name="Agrave" xMin="15" yMin="0" xMax="328" yMax="780">
      <contour>
        <pt x="259" y="0" on="1"/>
        <pt x="233" y="158" on="1"/>
        <pt x="107" y="158" on="1"/>
        <pt x="84" y="0" on="1"/>
        <pt x="15" y="0" on="1"/>
        <pt x="112" y="622" on="1"/>
        <pt x="221" y="622" on="1"/>
        <pt x="328" y="0" on="1"/>
      </contour>
      <contour>
        <pt x="115" y="217" on="1"/>
        <pt x="224" y="217" on="1"/>
        <pt x="166" y="574" on="1"/>
      </contour>
      <contour>
        <pt x="191" y="653" on="1"/>
        <pt x="129" y="653" on="1"/>
        <pt x="31" y="780" on="1"/>
        <pt x="113" y="780" on="1"/>
      </contour>
    </TTGlyph>
    <TTGlyph name="Amacron" xMin="15" yMin="0" xMax="328" yMax="711">
      <contour>
        <pt x="259" y="0" on="1"/>
        <pt x="233" y="158" on="1"/>
        <pt x="107" y="158" on="1"/>
        <pt x="84" y="0" on="1"/>
        <pt x="15" y="0" on="1"/>
        <pt x="112" y="622" on="1"/>
        <pt x="221" y="622" on="1"/>
        <pt x="328" y="0" on="1"/>
      </contour>
      <contour>
        <pt x="115" y="217" on="1"/>
        <pt x="224" y="217" on="1"/>
        <pt x="166" y="574" on="1"/>
      </contour>
      <contour>
        <pt x="284" y="711" on="1"/>
        <pt x="284" y="653" on="1"/>
        <pt x="48" y="653" on="1"/>
        <pt x="48" y="711" on="1"/>
      </contour>
    </TTGlyph>
    <TTGlyph name="Aogonek" xMin="15" yMin="-212" xMax="345" yMax="622">
      <contour>
        <pt x="267" y="-158" on="1"/>
        <pt x="345" y="-158" on="1"/>
        <pt x="345" y="-212" on="1"/>
        <pt x="253" y="-212" on="1"/>
        <pt x="174" y="-212" on="0"/>
        <pt x="174" y="-133" on="1"/>
        <pt x="174" y="-104" on="1"/>
        <pt x="174" y="-25" on="0"/>
        <pt x="253" y="-25" on="1"/>
        <pt x="261" y="-25" on="1"/>
        <pt x="261" y="0" on="1"/>
        <pt x="259" y="0" on="1"/>
        <pt x="233" y="158" on="1"/>
        <pt x="107" y="158" on="1"/>
        <pt x="84" y="0" on="1"/>
        <pt x="15" y="0" on="1"/>
        <pt x="112" y="622" on="1"/>
        <pt x="221" y="622" on="1"/>
        <pt x="326" y="10" on="1"/>
        <pt x="327" y="10" on="1"/>
        <pt x="327" y="6" on="1"/>
        <pt x="328" y="0" on="1"/>
        <pt x="327" y="0" on="1"/>
        <pt x="327" y="-78" on="1"/>
        <pt x="267" y="-78" on="1"/>
        <pt x="247" y="-78" on="0"/>
        <pt x="235" y="-89" on="0"/>
        <pt x="235" y="-108" on="1"/>
        <pt x="235" y="-128" on="1"/>
        <pt x="235" y="-147" on="0"/>
        <pt x="247" y="-158" on="0"/>
      </contour>
      <contour>
        <pt x="115" y="217" on="1"/>
        <pt x="224" y="217" on="1"/>
        <pt x="166" y="574" on="1"/>
      </contour>
    </TTGlyph>
    <TTGlyph name="Aring" xMin="15" yMin="0" xMax="328" yMax="800">
      <contour>
        <pt x="259" y="0" on="1"/>
        <pt x="233" y="158" on="1"/>
        <pt x="107" y="158" on="1"/>
        <pt x="84" y="0" on="1"/>
        <pt x="15" y="0" on="1"/>
        <pt x="112" y="622" on="1"/>
        <pt x="221" y="622" on="1"/>
        <pt x="328" y="0" on="1"/>
      </contour>
      <contour>
        <pt x="115" y="217" on="1"/>
        <pt x="224" y="217" on="1"/>
        <pt x="166" y="574" on="1"/>
      </contour>
      <contour>
        <pt x="196" y="653" on="1"/>
        <pt x="136" y="653" on="1"/>
        <pt x="71" y="653" on="0"/>
        <pt x="71" y="718" on="1"/>
        <pt x="71" y="735" on="1"/>
        <pt x="71" y="800" on="0"/>
        <pt x="136" y="800" on="1"/>
        <pt x="196" y="800" on="1"/>
        <pt x="261" y="800" on="0"/>
        <pt x="261" y="735" on="1"/>
        <pt x="261" y="718" on="1"/>
        <pt x="261" y="653" on="0"/>
      </contour>
      <contour>
        <pt x="122" y="729" on="1"/>
        <pt x="122" y="724" on="1"/>
        <pt x="122" y="707" on="0"/>
        <pt x="132" y="697" on="0"/>
        <pt x="150" y="697" on="1"/>
        <pt x="182" y="697" on="1"/>
        <pt x="200" y="697" on="0"/>
        <pt x="210" y="707" on="0"/>
        <pt x="210" y="724" on="1"/>
        <pt x="210" y="729" on="1"/>
        <pt x="210" y="746" on="0"/>
        <pt x="200" y="756" on="0"/>
        <pt x="182" y="756" on="1"/>
        <pt x="150" y="756" on="1"/>
        <pt x="132" y="756" on="0"/>
        <pt x="122" y="746" on="0"/>
      </contour>
    </TTGlyph>
    <TTGlyph name="Atilde" xMin="15" yMin="0" xMax="328" yMax="743">
      <contour>
        <pt x="259" y="0" on="1"/>
        <pt x="233" y="158" on="1"/>
        <pt x="107" y="158" on="1"/>
        <pt x="84" y="0" on="1"/>
        <pt x="15" y="0" on="1"/>
        <pt x="112" y="622" on="1"/>
        <pt x="221" y="622" on="1"/>
        <pt x="328" y="0" on="1"/>
      </contour>
      <contour>
        <pt x="115" y="217" on="1"/>
        <pt x="224" y="217" on="1"/>
        <pt x="166" y="574" on="1"/>
      </contour>
      <contour>
        <pt x="103" y="664" on="1"/>
        <pt x="103" y="653" on="1"/>
        <pt x="41" y="653" on="1"/>
        <pt x="41" y="667" on="1"/>
        <pt x="41" y="704" on="0"/>
        <pt x="74" y="743" on="0"/>
        <pt x="113" y="743" on="1"/>
        <pt x="119" y="743" on="1"/>
        <pt x="142" y="743" on="0"/>
        <pt x="200" y="708" on="0"/>
        <pt x="221" y="708" on="0"/>
        <pt x="229" y="718" on="0"/>
        <pt x="229" y="733" on="1"/>
        <pt x="229" y="743" on="1"/>
        <pt x="291" y="743" on="1"/>
        <pt x="291" y="729" on="1"/>
        <pt x="291" y="692" on="0"/>
        <pt x="260" y="653" on="0"/>
        <pt x="220" y="653" on="1"/>
        <pt x="215" y="653" on="1"/>
        <pt x="191" y="653" on="0"/>
        <pt x="130" y="688" on="0"/>
        <pt x="120" y="688" on="1"/>
        <pt x="103" y="688" on="0"/>
      </contour>
    </TTGlyph>
    <TTGlyph name="B" xMin="55" yMin="0" xMax="331" yMax="622">
      <contour>
        <pt x="262" y="378" on="1"/>
        <pt x="262" y="532" on="1"/>
        <pt x="262" y="552" on="0"/>
        <pt x="250" y="563" on="0"/>
        <pt x="231" y="563" on="1"/>
        <pt x="124" y="563" on="1"/>
        <pt x="124" y="347" on="1"/>
        <pt x="231" y="347" on="1"/>
        <pt x="250" y="347" on="0"/>
        <pt x="262" y="358" on="0"/>
      </contour>
      <contour>
        <pt x="262" y="90" on="1"/>
        <pt x="262" y="257" on="1"/>
        <pt x="262" y="276" on="0"/>
        <pt x="250" y="288" on="0"/>
        <pt x="231" y="288" on="1"/>
        <pt x="124" y="288" on="1"/>
        <pt x="124" y="59" on="1"/>
        <pt x="231" y="59" on="1"/>
        <pt x="250" y="59" on="0"/>
        <pt x="262" y="70" on="0"/>
      </contour>
      <contour>
        <pt x="55" y="622" on="1"/>
        <pt x="252" y="622" on="1"/>
        <pt x="331" y="622" on="0"/>
        <pt x="331" y="543" on="1"/>
        <pt x="331" y="364" on="1"/>
        <pt x="331" y="318" on="0"/>
        <pt x="294" y="315" on="1"/>
        <pt x="331" y="309" on="0"/>
        <pt x="331" y="269" on="1"/>
        <pt x="331" y="79" on="1"/>
        <pt x="331" y="0" on="0"/>
        <pt x="252" y="0" on="1"/>
        <pt x="55" y="0" on="1"/>
      </contour>
    </TTGlyph>
    <TTGlyph name="C" xMin="50" yMin="-1" xMax="305" yMax="622">
      <contour>
        <pt x="305" y="438" on="1"/>
        <pt x="236" y="438" on="1"/>
        <pt x="236" y="532" on="1"/>
        <pt x="236" y="552" on="0"/>
        <pt x="224" y="563" on="0"/>
        <pt x="205" y="563" on="1"/>
        <pt x="150" y="563" on="1"/>
        <pt x="130" y="563" on="0"/>
        <pt x="119" y="552" on="0"/>
        <pt x="119" y="532" on="1"/>
        <pt x="119" y="89" on="1"/>
        <pt x="119" y="70" on="0"/>
        <pt x="130" y="58" on="0"/>
        <pt x="150" y="58" on="1"/>
        <pt x="205" y="58" on="1"/>
        <pt x="224" y="58" on="0"/>
        <pt x="236" y="70" on="0"/>
        <pt x="236" y="89" on="1"/>
        <pt x="236" y="183" on="1"/>
        <pt x="305" y="183" on="1"/>
        <pt x="305" y="78" on="1"/>
        <pt x="305" y="-1" on="0"/>
        <pt x="226" y="-1" on="1"/>
        <pt x="129" y="-1" on="1"/>
        <pt x="50" y="-1" on="0"/>
        <pt x="50" y="78" on="1"/>
        <pt x="50" y="543" on="1"/>
        <pt x="50" y="622" on="0"/>
        <pt x="129" y="622" on="1"/>
        <pt x="226" y="622" on="1"/>
        <pt x="305" y="622" on="0"/>
        <pt x="305" y="543" on="1"/>
      </contour>
    </TTGlyph>
    <TTGlyph name="Cacute" xMin="50" yMin="-1" xMax="306" yMax="780">
      <contour>
        <pt x="129" y="622" on="1"/>
        <pt x="226" y="622" on="1"/>
        <pt x="305" y="622" on="0"/>
        <pt x="305" y="543" on="1"/>
        <pt x="305" y="438" on="1"/>
        <pt x="236" y="438" on="1"/>
        <pt x="236" y="532" on="1"/>
        <pt x="236" y="552" on="0"/>
        <pt x="224" y="563" on="0"/>
        <pt x="205" y="563" on="1"/>
        <pt x="150" y="563" on="1"/>
        <pt x="130" y="563" on="0"/>
        <pt x="119" y="552" on="0"/>
        <pt x="119" y="532" on="1"/>
        <pt x="119" y="89" on="1"/>
        <pt x="119" y="70" on="0"/>
        <pt x="130" y="58" on="0"/>
        <pt x="150" y="58" on="1"/>
        <pt x="205" y="58" on="1"/>
        <pt x="224" y="58" on="0"/>
        <pt x="236" y="70" on="0"/>
        <pt x="236" y="89" on="1"/>
        <pt x="236" y="183" on="1"/>
        <pt x="305" y="183" on="1"/>
        <pt x="305" y="78" on="1"/>
        <pt x="305" y="-1" on="0"/>
        <pt x="226" y="-1" on="1"/>
        <pt x="129" y="-1" on="1"/>
        <pt x="50" y="-1" on="0"/>
        <pt x="50" y="78" on="1"/>
        <pt x="50" y="543" on="1"/>
        <pt x="50" y="622" on="0"/>
      </contour>
      <contour>
        <pt x="306" y="780" on="1"/>
        <pt x="208" y="653" on="1"/>
        <pt x="146" y="653" on="1"/>
        <pt x="224" y="780" on="1"/>
      </contour>
    </TTGlyph>
    <TTGlyph name="Ccaron" xMin="50" yMin="-1" xMax="307" yMax="780">
      <contour>
        <pt x="129" y="622" on="1"/>
        <pt x="226" y="622" on="1"/>
        <pt x="305" y="622" on="0"/>
        <pt x="305" y="543" on="1"/>
        <pt x="305" y="438" on="1"/>
        <pt x="236" y="438" on="1"/>
        <pt x="236" y="532" on="1"/>
        <pt x="236" y="552" on="0"/>
        <pt x="224" y="563" on="0"/>
        <pt x="205" y="563" on="1"/>
        <pt x="150" y="563" on="1"/>
        <pt x="130" y="563" on="0"/>
        <pt x="119" y="552" on="0"/>
        <pt x="119" y="532" on="1"/>
        <pt x="119" y="89" on="1"/>
        <pt x="119" y="70" on="0"/>
        <pt x="130" y="58" on="0"/>
        <pt x="150" y="58" on="1"/>
        <pt x="205" y="58" on="1"/>
        <pt x="224" y="58" on="0"/>
        <pt x="236" y="70" on="0"/>
        <pt x="236" y="89" on="1"/>
        <pt x="236" y="183" on="1"/>
        <pt x="305" y="183" on="1"/>
        <pt x="305" y="78" on="1"/>
        <pt x="305" y="-1" on="0"/>
        <pt x="226" y="-1" on="1"/>
        <pt x="129" y="-1" on="1"/>
        <pt x="50" y="-1" on="0"/>
        <pt x="50" y="78" on="1"/>
        <pt x="50" y="543" on="1"/>
        <pt x="50" y="622" on="0"/>
      </contour>
      <contour>
        <pt x="222" y="653" on="1"/>
        <pt x="135" y="653" on="1"/>
        <pt x="50" y="780" on="1"/>
        <pt x="126" y="780" on="1"/>
        <pt x="178" y="696" on="1"/>
        <pt x="231" y="780" on="1"/>
        <pt x="307" y="780" on="1"/>
      </contour>
    </TTGlyph>
    <TTGlyph name="Ccedilla" xMin="50" yMin="-168" xMax="305" yMax="622">
      <contour>
        <pt x="305" y="438" on="1"/>
        <pt x="236" y="438" on="1"/>
        <pt x="236" y="532" on="1"/>
        <pt x="236" y="552" on="0"/>
        <pt x="224" y="563" on="0"/>
        <pt x="205" y="563" on="1"/>
        <pt x="150" y="563" on="1"/>
        <pt x="130" y="563" on="0"/>
        <pt x="119" y="552" on="0"/>
        <pt x="119" y="532" on="1"/>
        <pt x="119" y="89" on="1"/>
        <pt x="119" y="70" on="0"/>
        <pt x="130" y="58" on="0"/>
        <pt x="150" y="58" on="1"/>
        <pt x="205" y="58" on="1"/>
        <pt x="224" y="58" on="0"/>
        <pt x="236" y="70" on="0"/>
        <pt x="236" y="89" on="1"/>
        <pt x="236" y="183" on="1"/>
        <pt x="305" y="183" on="1"/>
        <pt x="305" y="78" on="1"/>
        <pt x="305" y="-1" on="0"/>
        <pt x="226" y="-1" on="1"/>
        <pt x="129" y="-1" on="1"/>
        <pt x="50" y="-1" on="0"/>
        <pt x="50" y="78" on="1"/>
        <pt x="50" y="543" on="1"/>
        <pt x="50" y="622" on="0"/>
        <pt x="129" y="622" on="1"/>
        <pt x="226" y="622" on="1"/>
        <pt x="305" y="622" on="0"/>
        <pt x="305" y="543" on="1"/>
      </contour>
      <contour>
        <pt x="149" y="-73" on="1"/>
        <pt x="149" y="-51" on="1"/>
        <pt x="214" y="-51" on="1"/>
        <pt x="214" y="-79" on="1"/>
        <pt x="214" y="-123" on="0"/>
        <pt x="167" y="-168" on="0"/>
        <pt x="125" y="-168" on="1"/>
        <pt x="77" y="-168" on="1"/>
        <pt x="77" y="-110" on="1"/>
        <pt x="114" y="-110" on="1"/>
        <pt x="133" y="-110" on="0"/>
        <pt x="149" y="-93" on="0"/>
      </contour>
    </TTGlyph>
    <TTGlyph name="D" xMin="55" yMin="0" xMax="331" yMax="622">
      <contour>
        <pt x="55" y="622" on="1"/>
        <pt x="252" y="622" on="1"/>
        <pt x="331" y="622" on="0"/>
        <pt x="331" y="543" on="1"/>
        <pt x="331" y="79" on="1"/>
        <pt x="331" y="0" on="0"/>
        <pt x="252" y="0" on="1"/>
        <pt x="55" y="0" on="1"/>
      </contour>
      <contour>
        <pt x="262" y="90" on="1"/>
        <pt x="262" y="532" on="1"/>
        <pt x="262" y="552" on="0"/>
        <pt x="250" y="563" on="0"/>
        <pt x="231" y="563" on="1"/>
        <pt x="124" y="563" on="1"/>
        <pt x="124" y="59" on="1"/>
        <pt x="231" y="59" on="1"/>
        <pt x="250" y="59" on="0"/>
        <pt x="262" y="70" on="0"/>
      </contour>
    </TTGlyph>
    <TTGlyph name="Dcaron" xMin="55" yMin="0" xMax="331" yMax="780">
      <contour>
        <pt x="55" y="622" on="1"/>
        <pt x="252" y="622" on="1"/>
        <pt x="331" y="622" on="0"/>
        <pt x="331" y="543" on="1"/>
        <pt x="331" y="79" on="1"/>
        <pt x="331" y="0" on="0"/>
        <pt x="252" y="0" on="1"/>
        <pt x="55" y="0" on="1"/>
      </contour>
      <contour>
        <pt x="262" y="90" on="1"/>
        <pt x="262" y="532" on="1"/>
        <pt x="262" y="552" on="0"/>
        <pt x="250" y="563" on="0"/>
        <pt x="231" y="563" on="1"/>
        <pt x="124" y="563" on="1"/>
        <pt x="124" y="59" on="1"/>
        <pt x="231" y="59" on="1"/>
        <pt x="250" y="59" on="0"/>
        <pt x="262" y="70" on="0"/>
      </contour>
      <contour>
        <pt x="231" y="653" on="1"/>
        <pt x="144" y="653" on="1"/>
        <pt x="59" y="780" on="1"/>
        <pt x="135" y="780" on="1"/>
        <pt x="187" y="696" on="1"/>
        <pt x="240" y="780" on="1"/>
        <pt x="316" y="780" on="1"/>
      </contour>
    </TTGlyph>
    <TTGlyph name="Dcroat" xMin="5" yMin="0" xMax="331" yMax="622">
      <contour>
        <pt x="55" y="622" on="1"/>
        <pt x="252" y="622" on="1"/>
        <pt x="331" y="622" on="0"/>
        <pt x="331" y="543" on="1"/>
        <pt x="331" y="79" on="1"/>
        <pt x="331" y="0" on="0"/>
        <pt x="252" y="0" on="1"/>
        <pt x="55" y="0" on="1"/>
        <pt x="55" y="283" on="1"/>
        <pt x="5" y="283" on="1"/>
        <pt x="5" y="342" on="1"/>
        <pt x="55" y="342" on="1"/>
      </contour>
      <contour>
        <pt x="262" y="90" on="1"/>
        <pt x="262" y="532" on="1"/>
        <pt x="262" y="552" on="0"/>
        <pt x="250" y="563" on="0"/>
        <pt x="231" y="563" on="1"/>
        <pt x="124" y="563" on="1"/>
        <pt x="124" y="342" on="1"/>
        <pt x="204" y="342" on="1"/>
        <pt x="204" y="283" on="1"/>
        <pt x="124" y="283" on="1"/>
        <pt x="124" y="59" on="1"/>
        <pt x="231" y="59" on="1"/>
        <pt x="250" y="59" on="0"/>
        <pt x="262" y="70" on="0"/>
      </contour>
    </TTGlyph>
    <TTGlyph name="E" xMin="55" yMin="0" xMax="295" yMax="622">
      <contour>
        <pt x="124" y="59" on="1"/>
        <pt x="295" y="59" on="1"/>
        <pt x="295" y="0" on="1"/>
        <pt x="55" y="0" on="1"/>
        <pt x="55" y="622" on="1"/>
        <pt x="288" y="622" on="1"/>
        <pt x="288" y="563" on="1"/>
        <pt x="124" y="563" on="1"/>
        <pt x="124" y="353" on="1"/>
        <pt x="258" y="353" on="1"/>
        <pt x="258" y="294" on="1"/>
        <pt x="124" y="294" on="1"/>
      </contour>
    </TTGlyph>
    <TTGlyph name="Eacute" xMin="55" yMin="0" xMax="296" yMax="780">
      <contour>
        <pt x="124" y="294" on="1"/>
        <pt x="124" y="59" on="1"/>
        <pt x="295" y="59" on="1"/>
        <pt x="295" y="0" on="1"/>
        <pt x="55" y="0" on="1"/>
        <pt x="55" y="622" on="1"/>
        <pt x="288" y="622" on="1"/>
        <pt x="288" y="563" on="1"/>
        <pt x="124" y="563" on="1"/>
        <pt x="124" y="353" on="1"/>
        <pt x="258" y="353" on="1"/>
        <pt x="258" y="294" on="1"/>
      </contour>
      <contour>
        <pt x="296" y="780" on="1"/>
        <pt x="198" y="653" on="1"/>
        <pt x="136" y="653" on="1"/>
        <pt x="214" y="780" on="1"/>
      </contour>
    </TTGlyph>
    <TTGlyph name="Ecaron" xMin="41" yMin="0" xMax="298" yMax="780">
      <contour>
        <pt x="124" y="294" on="1"/>
        <pt x="124" y="59" on="1"/>
        <pt x="295" y="59" on="1"/>
        <pt x="295" y="0" on="1"/>
        <pt x="55" y="0" on="1"/>
        <pt x="55" y="622" on="1"/>
        <pt x="288" y="622" on="1"/>
        <pt x="288" y="563" on="1"/>
        <pt x="124" y="563" on="1"/>
        <pt x="124" y="353" on="1"/>
        <pt x="258" y="353" on="1"/>
        <pt x="258" y="294" on="1"/>
      </contour>
      <contour>
        <pt x="213" y="653" on="1"/>
        <pt x="126" y="653" on="1"/>
        <pt x="41" y="780" on="1"/>
        <pt x="117" y="780" on="1"/>
        <pt x="169" y="696" on="1"/>
        <pt x="222" y="780" on="1"/>
        <pt x="298" y="780" on="1"/>
      </contour>
    </TTGlyph>
    <TTGlyph name="Ecircumflex" xMin="44" yMin="0" xMax="301" yMax="780">
      <contour>
        <pt x="124" y="294" on="1"/>
        <pt x="124" y="59" on="1"/>
        <pt x="295" y="59" on="1"/>
        <pt x="295" y="0" on="1"/>
        <pt x="55" y="0" on="1"/>
        <pt x="55" y="622" on="1"/>
        <pt x="288" y="622" on="1"/>
        <pt x="288" y="563" on="1"/>
        <pt x="124" y="563" on="1"/>
        <pt x="124" y="353" on="1"/>
        <pt x="258" y="353" on="1"/>
        <pt x="258" y="294" on="1"/>
      </contour>
      <contour>
        <pt x="172" y="737" on="1"/>
        <pt x="120" y="653" on="1"/>
        <pt x="44" y="653" on="1"/>
        <pt x="129" y="780" on="1"/>
        <pt x="216" y="780" on="1"/>
        <pt x="301" y="653" on="1"/>
        <pt x="225" y="653" on="1"/>
      </contour>
    </TTGlyph>
    <TTGlyph name="Edieresis" xMin="37" yMin="0" xMax="301" yMax="737">
      <contour>
        <pt x="213" y="737" on="1"/>
        <pt x="301" y="737" on="1"/>
        <pt x="301" y="653" on="1"/>
        <pt x="213" y="653" on="1"/>
      </contour>
      <contour>
        <pt x="124" y="294" on="1"/>
        <pt x="124" y="59" on="1"/>
        <pt x="295" y="59" on="1"/>
        <pt x="295" y="0" on="1"/>
        <pt x="55" y="0" on="1"/>
        <pt x="55" y="622" on="1"/>
        <pt x="288" y="622" on="1"/>
        <pt x="288" y="563" on="1"/>
        <pt x="124" y="563" on="1"/>
        <pt x="124" y="353" on="1"/>
        <pt x="258" y="353" on="1"/>
        <pt x="258" y="294" on="1"/>
      </contour>
      <contour>
        <pt x="125" y="737" on="1"/>
        <pt x="125" y="653" on="1"/>
        <pt x="37" y="653" on="1"/>
        <pt x="37" y="737" on="1"/>
      </contour>
    </TTGlyph>
    <TTGlyph name="Edotaccent" xMin="55" yMin="0" xMax="295" yMax="739">
      <contour>
        <pt x="124" y="59" on="1"/>
        <pt x="295" y="59" on="1"/>
        <pt x="295" y="0" on="1"/>
        <pt x="55" y="0" on="1"/>
        <pt x="55" y="622" on="1"/>
        <pt x="288" y="622" on="1"/>
        <pt x="288" y="563" on="1"/>
        <pt x="124" y="563" on="1"/>
        <pt x="124" y="353" on="1"/>
        <pt x="258" y="353" on="1"/>
        <pt x="258" y="294" on="1"/>
        <pt x="124" y="294" on="1"/>
      </contour>
      <contour>
        <pt x="226" y="739" on="1"/>
        <pt x="226" y="653" on="1"/>
        <pt x="134" y="653" on="1"/>
        <pt x="134" y="739" on="1"/>
      </contour>
    </TTGlyph>
    <TTGlyph name="Egrave" xMin="42" yMin="0" xMax="295" yMax="780">
      <contour>
        <pt x="124" y="59" on="1"/>
        <pt x="295" y="59" on="1"/>
        <pt x="295" y="0" on="1"/>
        <pt x="55" y="0" on="1"/>
        <pt x="55" y="622" on="1"/>
        <pt x="288" y="622" on="1"/>
        <pt x="288" y="563" on="1"/>
        <pt x="124" y="563" on="1"/>
        <pt x="124" y="353" on="1"/>
        <pt x="258" y="353" on="1"/>
        <pt x="258" y="294" on="1"/>
        <pt x="124" y="294" on="1"/>
      </contour>
      <contour>
        <pt x="202" y="653" on="1"/>
        <pt x="140" y="653" on="1"/>
        <pt x="42" y="780" on="1"/>
        <pt x="124" y="780" on="1"/>
      </contour>
    </TTGlyph>
    <TTGlyph name="Emacron" xMin="53" yMin="0" xMax="295" yMax="728">
      <contour>
        <pt x="124" y="59" on="1"/>
        <pt x="295" y="59" on="1"/>
        <pt x="295" y="0" on="1"/>
        <pt x="55" y="0" on="1"/>
        <pt x="55" y="622" on="1"/>
        <pt x="288" y="622" on="1"/>
        <pt x="288" y="563" on="1"/>
        <pt x="124" y="563" on="1"/>
        <pt x="124" y="353" on="1"/>
        <pt x="258" y="353" on="1"/>
        <pt x="258" y="294" on="1"/>
        <pt x="124" y="294" on="1"/>
      </contour>
      <contour>
        <pt x="289" y="728" on="1"/>
        <pt x="289" y="670" on="1"/>
        <pt x="53" y="670" on="1"/>
        <pt x="53" y="728" on="1"/>
      </contour>
    </TTGlyph>
    <TTGlyph name="Eogonek" xMin="55" yMin="-212" xMax="313" yMax="622">
      <contour>
        <pt x="235" y="-158" on="1"/>
        <pt x="313" y="-158" on="1"/>
        <pt x="313" y="-212" on="1"/>
        <pt x="221" y="-212" on="1"/>
        <pt x="142" y="-212" on="0"/>
        <pt x="142" y="-133" on="1"/>
        <pt x="142" y="-104" on="1"/>
        <pt x="142" y="-25" on="0"/>
        <pt x="221" y="-25" on="1"/>
        <pt x="229" y="-25" on="1"/>
        <pt x="229" y="0" on="1"/>
        <pt x="55" y="0" on="1"/>
        <pt x="55" y="622" on="1"/>
        <pt x="288" y="622" on="1"/>
        <pt x="288" y="563" on="1"/>
        <pt x="124" y="563" on="1"/>
        <pt x="124" y="353" on="1"/>
        <pt x="258" y="353" on="1"/>
        <pt x="258" y="294" on="1"/>
        <pt x="124" y="294" on="1"/>
        <pt x="124" y="59" on="1"/>
        <pt x="295" y="59" on="1"/>
        <pt x="295" y="-78" on="1"/>
        <pt x="235" y="-78" on="1"/>
        <pt x="215" y="-78" on="0"/>
        <pt x="203" y="-89" on="0"/>
        <pt x="203" y="-108" on="1"/>
        <pt x="203" y="-128" on="1"/>
        <pt x="203" y="-147" on="0"/>
        <pt x="215" y="-158" on="0"/>
      </contour>
    </TTGlyph>
    <TTGlyph name="Eth" xMin="5" yMin="0" xMax="331" yMax="622">
      <contour>
        <pt x="55" y="622" on="1"/>
        <pt x="252" y="622" on="1"/>
        <pt x="331" y="622" on="0"/>
        <pt x="331" y="543" on="1"/>
        <pt x="331" y="79" on="1"/>
        <pt x="331" y="0" on="0"/>
        <pt x="252" y="0" on="1"/>
        <pt x="55" y="0" on="1"/>
        <pt x="55" y="283" on="1"/>
        <pt x="5" y="283" on="1"/>
        <pt x="5" y="342" on="1"/>
        <pt x="55" y="342" on="1"/>
      </contour>
      <contour>
        <pt x="262" y="90" on="1"/>
        <pt x="262" y="532" on="1"/>
        <pt x="262" y="552" on="0"/>
        <pt x="250" y="563" on="0"/>
        <pt x="231" y="563" on="1"/>
        <pt x="124" y="563" on="1"/>
        <pt x="124" y="342" on="1"/>
        <pt x="204" y="342" on="1"/>
        <pt x="204" y="283" on="1"/>
        <pt x="124" y="283" on="1"/>
        <pt x="124" y="59" on="1"/>
        <pt x="231" y="59" on="1"/>
        <pt x="250" y="59" on="0"/>
        <pt x="262" y="70" on="0"/>
      </contour>
    </TTGlyph>
    <TTGlyph name="Euro" xMin="25" yMin="-1" xMax="328" yMax="622">
      <contour>
        <pt x="328" y="438" on="1"/>
        <pt x="259" y="438" on="1"/>
        <pt x="259" y="532" on="1"/>
        <pt x="259" y="552" on="0"/>
        <pt x="248" y="563" on="0"/>
        <pt x="228" y="563" on="1"/>
        <pt x="173" y="563" on="1"/>
        <pt x="154" y="563" on="0"/>
        <pt x="142" y="552" on="0"/>
        <pt x="142" y="532" on="1"/>
        <pt x="142" y="398" on="1"/>
        <pt x="237" y="398" on="1"/>
        <pt x="237" y="340" on="1"/>
        <pt x="142" y="340" on="1"/>
        <pt x="142" y="283" on="1"/>
        <pt x="237" y="283" on="1"/>
        <pt x="237" y="224" on="1"/>
        <pt x="142" y="224" on="1"/>
        <pt x="142" y="89" on="1"/>
        <pt x="142" y="70" on="0"/>
        <pt x="154" y="58" on="0"/>
        <pt x="173" y="58" on="1"/>
        <pt x="228" y="58" on="1"/>
        <pt x="248" y="58" on="0"/>
        <pt x="259" y="70" on="0"/>
        <pt x="259" y="89" on="1"/>
        <pt x="259" y="183" on="1"/>
        <pt x="328" y="183" on="1"/>
        <pt x="328" y="78" on="1"/>
        <pt x="328" y="-1" on="0"/>
        <pt x="249" y="-1" on="1"/>
        <pt x="152" y="-1" on="1"/>
        <pt x="73" y="-1" on="0"/>
        <pt x="73" y="78" on="1"/>
        <pt x="73" y="224" on="1"/>
        <pt x="25" y="224" on="1"/>
        <pt x="25" y="283" on="1"/>
        <pt x="73" y="283" on="1"/>
        <pt x="73" y="340" on="1"/>
        <pt x="25" y="340" on="1"/>
        <pt x="25" y="398" on="1"/>
        <pt x="73" y="398" on="1"/>
        <pt x="73" y="543" on="1"/>
        <pt x="73" y="622" on="0"/>
        <pt x="152" y="622" on="1"/>
        <pt x="249" y="622" on="1"/>
        <pt x="328" y="622" on="0"/>
        <pt x="328" y="543" on="1"/>
      </contour>
    </TTGlyph>
    <TTGlyph name="F" xMin="55" yMin="0" xMax="298" yMax="622">
      <contour>
        <pt x="298" y="563" on="1"/>
        <pt x="124" y="563" on="1"/>
        <pt x="124" y="343" on="1"/>
        <pt x="258" y="343" on="1"/>
        <pt x="258" y="284" on="1"/>
        <pt x="124" y="284" on="1"/>
        <pt x="124" y="0" on="1"/>
        <pt x="55" y="0" on="1"/>
        <pt x="55" y="622" on="1"/>
        <pt x="298" y="622" on="1"/>
      </contour>
    </TTGlyph>
    <TTGlyph name="G" xMin="50" yMin="-1" xMax="305" yMax="622">
      <contour>
        <pt x="305" y="448" on="1"/>
        <pt x="236" y="448" on="1"/>
        <pt x="236" y="532" on="1"/>
        <pt x="236" y="552" on="0"/>
        <pt x="224" y="563" on="0"/>
        <pt x="205" y="563" on="1"/>
        <pt x="150" y="563" on="1"/>
        <pt x="130" y="563" on="0"/>
        <pt x="119" y="552" on="0"/>
        <pt x="119" y="532" on="1"/>
        <pt x="119" y="89" on="1"/>
        <pt x="119" y="70" on="0"/>
        <pt x="130" y="58" on="0"/>
        <pt x="150" y="58" on="1"/>
        <pt x="205" y="58" on="1"/>
        <pt x="224" y="58" on="0"/>
        <pt x="236" y="70" on="0"/>
        <pt x="236" y="89" on="1"/>
        <pt x="236" y="254" on="1"/>
        <pt x="186" y="254" on="1"/>
        <pt x="186" y="313" on="1"/>
        <pt x="305" y="313" on="1"/>
        <pt x="305" y="78" on="1"/>
        <pt x="305" y="-1" on="0"/>
        <pt x="226" y="-1" on="1"/>
        <pt x="129" y="-1" on="1"/>
        <pt x="50" y="-1" on="0"/>
        <pt x="50" y="78" on="1"/>
        <pt x="50" y="543" on="1"/>
        <pt x="50" y="622" on="0"/>
        <pt x="129" y="622" on="1"/>
        <pt x="226" y="622" on="1"/>
        <pt x="305" y="622" on="0"/>
        <pt x="305" y="543" on="1"/>
      </contour>
    </TTGlyph>
    <TTGlyph name="Gbreve" xMin="48" yMin="-1" xMax="308" yMax="780">
      <contour>
        <pt x="242" y="780" on="1"/>
        <pt x="308" y="780" on="1"/>
        <pt x="308" y="732" on="1"/>
        <pt x="308" y="653" on="0"/>
        <pt x="229" y="653" on="1"/>
        <pt x="127" y="653" on="1"/>
        <pt x="48" y="653" on="0"/>
        <pt x="48" y="732" on="1"/>
        <pt x="48" y="780" on="1"/>
        <pt x="114" y="780" on="1"/>
        <pt x="114" y="740" on="1"/>
        <pt x="114" y="720" on="0"/>
        <pt x="126" y="709" on="0"/>
        <pt x="145" y="709" on="1"/>
        <pt x="211" y="709" on="1"/>
        <pt x="230" y="709" on="0"/>
        <pt x="242" y="720" on="0"/>
        <pt x="242" y="740" on="1"/>
      </contour>
      <contour>
        <pt x="129" y="622" on="1"/>
        <pt x="226" y="622" on="1"/>
        <pt x="305" y="622" on="0"/>
        <pt x="305" y="543" on="1"/>
        <pt x="305" y="448" on="1"/>
        <pt x="236" y="448" on="1"/>
        <pt x="236" y="532" on="1"/>
        <pt x="236" y="552" on="0"/>
        <pt x="224" y="563" on="0"/>
        <pt x="205" y="563" on="1"/>
        <pt x="150" y="563" on="1"/>
        <pt x="130" y="563" on="0"/>
        <pt x="119" y="552" on="0"/>
        <pt x="119" y="532" on="1"/>
        <pt x="119" y="89" on="1"/>
        <pt x="119" y="70" on="0"/>
        <pt x="130" y="58" on="0"/>
        <pt x="150" y="58" on="1"/>
        <pt x="205" y="58" on="1"/>
        <pt x="224" y="58" on="0"/>
        <pt x="236" y="70" on="0"/>
        <pt x="236" y="89" on="1"/>
        <pt x="236" y="254" on="1"/>
        <pt x="186" y="254" on="1"/>
        <pt x="186" y="313" on="1"/>
        <pt x="305" y="313" on="1"/>
        <pt x="305" y="78" on="1"/>
        <pt x="305" y="-1" on="0"/>
        <pt x="226" y="-1" on="1"/>
        <pt x="129" y="-1" on="1"/>
        <pt x="50" y="-1" on="0"/>
        <pt x="50" y="78" on="1"/>
        <pt x="50" y="543" on="1"/>
        <pt x="50" y="622" on="0"/>
      </contour>
    </TTGlyph>
    <TTGlyph name="H" xMin="55" yMin="0" xMax="327" yMax="622">
      <contour>
        <pt x="258" y="622" on="1"/>
        <pt x="327" y="622" on="1"/>
        <pt x="327" y="0" on="1"/>
        <pt x="258" y="0" on="1"/>
        <pt x="258" y="281" on="1"/>
        <pt x="124" y="281" on="1"/>
        <pt x="124" y="0" on="1"/>
        <pt x="55" y="0" on="1"/>
        <pt x="55" y="622" on="1"/>
        <pt x="124" y="622" on="1"/>
        <pt x="124" y="340" on="1"/>
        <pt x="258" y="340" on="1"/>
      </contour>
    </TTGlyph>
    <TTGlyph name="I" xMin="65" yMin="0" xMax="133" yMax="622">
      <contour>
        <pt x="65" y="622" on="1"/>
        <pt x="133" y="622" on="1"/>
        <pt x="133" y="0" on="1"/>
        <pt x="65" y="0" on="1"/>
      </contour>
    </TTGlyph>
    <TTGlyph name="Iacute" xMin="65" yMin="0" xMax="232" yMax="780">
      <contour>
        <pt x="72" y="653" on="1"/>
        <pt x="150" y="780" on="1"/>
        <pt x="232" y="780" on="1"/>
        <pt x="134" y="653" on="1"/>
      </contour>
      <contour>
        <pt x="65" y="622" on="1"/>
        <pt x="133" y="622" on="1"/>
        <pt x="133" y="0" on="1"/>
        <pt x="65" y="0" on="1"/>
      </contour>
    </TTGlyph>
    <TTGlyph name="Icircumflex" xMin="-28" yMin="0" xMax="229" yMax="780">
      <contour>
        <pt x="-28" y="653" on="1"/>
        <pt x="57" y="780" on="1"/>
        <pt x="144" y="780" on="1"/>
        <pt x="229" y="653" on="1"/>
        <pt x="153" y="653" on="1"/>
        <pt x="100" y="737" on="1"/>
        <pt x="48" y="653" on="1"/>
      </contour>
      <contour>
        <pt x="65" y="622" on="1"/>
        <pt x="133" y="622" on="1"/>
        <pt x="133" y="0" on="1"/>
        <pt x="65" y="0" on="1"/>
      </contour>
    </TTGlyph>
    <TTGlyph name="Idieresis" xMin="-35" yMin="0" xMax="229" yMax="737">
      <contour>
        <pt x="65" y="622" on="1"/>
        <pt x="133" y="622" on="1"/>
        <pt x="133" y="0" on="1"/>
        <pt x="65" y="0" on="1"/>
      </contour>
      <contour>
        <pt x="141" y="653" on="1"/>
        <pt x="141" y="737" on="1"/>
        <pt x="229" y="737" on="1"/>
        <pt x="229" y="653" on="1"/>
      </contour>
      <contour>
        <pt x="-35" y="653" on="1"/>
        <pt x="-35" y="737" on="1"/>
        <pt x="53" y="737" on="1"/>
        <pt x="53" y="653" on="1"/>
      </contour>
    </TTGlyph>
    <TTGlyph name="Idotaccent" xMin="52" yMin="0" xMax="144" yMax="755">
      <contour>
        <pt x="52" y="669" on="1"/>
        <pt x="52" y="755" on="1"/>
        <pt x="144" y="755" on="1"/>
        <pt x="144" y="669" on="1"/>
      </contour>
      <contour>
        <pt x="65" y="622" on="1"/>
        <pt x="133" y="622" on="1"/>
        <pt x="133" y="0" on="1"/>
        <pt x="65" y="0" on="1"/>
      </contour>
    </TTGlyph>
    <TTGlyph name="Igrave" xMin="-30" yMin="0" xMax="133" yMax="780">
      <contour>
        <pt x="52" y="780" on="1"/>
        <pt x="130" y="653" on="1"/>
        <pt x="68" y="653" on="1"/>
        <pt x="-30" y="780" on="1"/>
      </contour>
      <contour>
        <pt x="65" y="622" on="1"/>
        <pt x="133" y="622" on="1"/>
        <pt x="133" y="0" on="1"/>
        <pt x="65" y="0" on="1"/>
      </contour>
    </TTGlyph>
    <TTGlyph name="Imacron" xMin="-20" yMin="0" xMax="216" yMax="728">
      <contour>
        <pt x="-20" y="670" on="1"/>
        <pt x="-20" y="728" on="1"/>
        <pt x="216" y="728" on="1"/>
        <pt x="216" y="670" on="1"/>
      </contour>
      <contour>
        <pt x="65" y="622" on="1"/>
        <pt x="133" y="622" on="1"/>
        <pt x="133" y="0" on="1"/>
        <pt x="65" y="0" on="1"/>
      </contour>
    </TTGlyph>
    <TTGlyph name="Iogonek" xMin="-20" yMin="-212" xMax="151" yMax="622">
      <contour>
        <pt x="73" y="-158" on="1"/>
        <pt x="151" y="-158" on="1"/>
        <pt x="151" y="-212" on="1"/>
        <pt x="59" y="-212" on="1"/>
        <pt x="-20" y="-212" on="0"/>
        <pt x="-20" y="-133" on="1"/>
        <pt x="-20" y="-104" on="1"/>
        <pt x="-20" y="-25" on="0"/>
        <pt x="59" y="-25" on="1"/>
        <pt x="67" y="-25" on="1"/>
        <pt x="67" y="0" on="1"/>
        <pt x="65" y="0" on="1"/>
        <pt x="65" y="622" on="1"/>
        <pt x="133" y="622" on="1"/>
        <pt x="133" y="-78" on="1"/>
        <pt x="73" y="-78" on="1"/>
        <pt x="53" y="-78" on="0"/>
        <pt x="41" y="-89" on="0"/>
        <pt x="41" y="-108" on="1"/>
        <pt x="41" y="-128" on="1"/>
        <pt x="41" y="-147" on="0"/>
        <pt x="53" y="-158" on="0"/>
      </contour>
    </TTGlyph>
    <TTGlyph name="J" xMin="15" yMin="0" xMax="249" yMax="622">
      <contour>
        <pt x="15" y="192" on="1"/>
        <pt x="84" y="192" on="1"/>
        <pt x="84" y="90" on="1"/>
        <pt x="84" y="70" on="0"/>
        <pt x="96" y="59" on="0"/>
        <pt x="115" y="59" on="1"/>
        <pt x="149" y="59" on="1"/>
        <pt x="168" y="59" on="0"/>
        <pt x="180" y="70" on="0"/>
        <pt x="180" y="90" on="1"/>
        <pt x="180" y="622" on="1"/>
        <pt x="249" y="622" on="1"/>
        <pt x="249" y="79" on="1"/>
        <pt x="249" y="0" on="0"/>
        <pt x="170" y="0" on="1"/>
        <pt x="94" y="0" on="1"/>
        <pt x="15" y="0" on="0"/>
        <pt x="15" y="79" on="1"/>
      </contour>
    </TTGlyph>
    <TTGlyph name="K" xMin="55" yMin="0" xMax="335" yMax="622">
      <contour>
        <pt x="335" y="622" on="1"/>
        <pt x="201" y="308" on="1"/>
        <pt x="333" y="0" on="1"/>
        <pt x="259" y="0" on="1"/>
        <pt x="130" y="308" on="1"/>
        <pt x="261" y="622" on="1"/>
      </contour>
      <contour>
        <pt x="55" y="0" on="1"/>
        <pt x="55" y="622" on="1"/>
        <pt x="123" y="622" on="1"/>
        <pt x="123" y="0" on="1"/>
      </contour>
    </TTGlyph>
    <TTGlyph name="L" xMin="55" yMin="0" xMax="266" yMax="622">
      <contour>
        <pt x="123" y="59" on="1"/>
        <pt x="266" y="59" on="1"/>
        <pt x="266" y="0" on="1"/>
        <pt x="55" y="0" on="1"/>
        <pt x="55" y="622" on="1"/>
        <pt x="123" y="622" on="1"/>
      </contour>
    </TTGlyph>
    <TTGlyph name="Lacute" xMin="55" yMin="0" xMax="266" yMax="780">
      <contour>
        <pt x="123" y="59" on="1"/>
        <pt x="266" y="59" on="1"/>
        <pt x="266" y="0" on="1"/>
        <pt x="55" y="0" on="1"/>
        <pt x="55" y="622" on="1"/>
        <pt x="123" y="622" on="1"/>
      </contour>
      <contour>
        <pt x="217" y="780" on="1"/>
        <pt x="119" y="653" on="1"/>
        <pt x="57" y="653" on="1"/>
        <pt x="135" y="780" on="1"/>
      </contour>
    </TTGlyph>
    <TTGlyph name="Lcaron" xMin="-42" yMin="0" xMax="266" yMax="786">
      <contour>
        <pt x="123" y="59" on="1"/>
        <pt x="266" y="59" on="1"/>
        <pt x="266" y="0" on="1"/>
        <pt x="55" y="0" on="1"/>
        <pt x="55" y="622" on="1"/>
        <pt x="123" y="622" on="1"/>
      </contour>
      <contour>
        <pt x="215" y="786" on="1"/>
        <pt x="130" y="659" on="1"/>
        <pt x="43" y="659" on="1"/>
        <pt x="-42" y="786" on="1"/>
        <pt x="34" y="786" on="1"/>
        <pt x="86" y="702" on="1"/>
        <pt x="139" y="786" on="1"/>
      </contour>
    </TTGlyph>
    <TTGlyph name="Lslash" xMin="-18" yMin="0" xMax="266" yMax="622">
      <contour>
        <pt x="123" y="59" on="1"/>
        <pt x="266" y="59" on="1"/>
        <pt x="266" y="0" on="1"/>
        <pt x="55" y="0" on="1"/>
        <pt x="55" y="257" on="1"/>
        <pt x="-18" y="223" on="1"/>
        <pt x="-18" y="282" on="1"/>
        <pt x="55" y="316" on="1"/>
        <pt x="55" y="622" on="1"/>
        <pt x="123" y="622" on="1"/>
        <pt x="123" y="347" on="1"/>
        <pt x="220" y="392" on="1"/>
        <pt x="220" y="333" on="1"/>
        <pt x="123" y="288" on="1"/>
      </contour>
    </TTGlyph>
    <TTGlyph name="M" xMin="55" yMin="0" xMax="420" yMax="622">
      <contour>
        <pt x="114" y="0" on="1"/>
        <pt x="55" y="0" on="1"/>
        <pt x="55" y="622" on="1"/>
        <pt x="130" y="622" on="1"/>
        <pt x="237" y="222" on="1"/>
        <pt x="345" y="622" on="1"/>
        <pt x="420" y="622" on="1"/>
        <pt x="420" y="0" on="1"/>
        <pt x="361" y="0" on="1"/>
        <pt x="361" y="471" on="1"/>
        <pt x="274" y="135" on="1"/>
        <pt x="201" y="135" on="1"/>
        <pt x="114" y="471" on="1"/>
      </contour>
    </TTGlyph>
    <TTGlyph name="N" xMin="55" yMin="0" xMax="322" yMax="622">
      <contour>
        <pt x="259" y="622" on="1"/>
        <pt x="322" y="622" on="1"/>
        <pt x="322" y="0" on="1"/>
        <pt x="247" y="0" on="1"/>
        <pt x="118" y="482" on="1"/>
        <pt x="118" y="0" on="1"/>
        <pt x="55" y="0" on="1"/>
        <pt x="55" y="622" on="1"/>
        <pt x="135" y="622" on="1"/>
        <pt x="259" y="157" on="1"/>
      </contour>
    </TTGlyph>
    <TTGlyph name="Nacute" xMin="55" yMin="0" xMax="322" yMax="780">
      <contour>
        <pt x="259" y="622" on="1"/>
        <pt x="322" y="622" on="1"/>
        <pt x="322" y="0" on="1"/>
        <pt x="247" y="0" on="1"/>
        <pt x="118" y="482" on="1"/>
        <pt x="118" y="0" on="1"/>
        <pt x="55" y="0" on="1"/>
        <pt x="55" y="622" on="1"/>
        <pt x="135" y="622" on="1"/>
        <pt x="259" y="157" on="1"/>
      </contour>
      <contour>
        <pt x="161" y="653" on="1"/>
        <pt x="239" y="780" on="1"/>
        <pt x="321" y="780" on="1"/>
        <pt x="223" y="653" on="1"/>
      </contour>
    </TTGlyph>
    <TTGlyph name="Ncaron" xMin="55" yMin="0" xMax="322" yMax="780">
      <contour>
        <pt x="259" y="622" on="1"/>
        <pt x="322" y="622" on="1"/>
        <pt x="322" y="0" on="1"/>
        <pt x="247" y="0" on="1"/>
        <pt x="118" y="482" on="1"/>
        <pt x="118" y="0" on="1"/>
        <pt x="55" y="0" on="1"/>
        <pt x="55" y="622" on="1"/>
        <pt x="135" y="622" on="1"/>
        <pt x="259" y="157" on="1"/>
      </contour>
      <contour>
        <pt x="149" y="653" on="1"/>
        <pt x="64" y="780" on="1"/>
        <pt x="140" y="780" on="1"/>
        <pt x="192" y="696" on="1"/>
        <pt x="245" y="780" on="1"/>
        <pt x="321" y="780" on="1"/>
        <pt x="236" y="653" on="1"/>
      </contour>
    </TTGlyph>
    <TTGlyph name="Ntilde" xMin="55" yMin="0" xMax="322" yMax="743">
      <contour>
        <pt x="237" y="653" on="1"/>
        <pt x="213" y="653" on="0"/>
        <pt x="152" y="688" on="0"/>
        <pt x="142" y="688" on="1"/>
        <pt x="125" y="688" on="0"/>
        <pt x="125" y="664" on="1"/>
        <pt x="125" y="653" on="1"/>
        <pt x="63" y="653" on="1"/>
        <pt x="63" y="667" on="1"/>
        <pt x="63" y="704" on="0"/>
        <pt x="96" y="743" on="0"/>
        <pt x="135" y="743" on="1"/>
        <pt x="141" y="743" on="1"/>
        <pt x="164" y="743" on="0"/>
        <pt x="222" y="708" on="0"/>
        <pt x="243" y="708" on="0"/>
        <pt x="251" y="718" on="0"/>
        <pt x="251" y="733" on="1"/>
        <pt x="251" y="743" on="1"/>
        <pt x="313" y="743" on="1"/>
        <pt x="313" y="729" on="1"/>
        <pt x="313" y="692" on="0"/>
        <pt x="282" y="653" on="0"/>
        <pt x="242" y="653" on="1"/>
      </contour>
      <contour>
        <pt x="259" y="622" on="1"/>
        <pt x="322" y="622" on="1"/>
        <pt x="322" y="0" on="1"/>
        <pt x="247" y="0" on="1"/>
        <pt x="118" y="482" on="1"/>
        <pt x="118" y="0" on="1"/>
        <pt x="55" y="0" on="1"/>
        <pt x="55" y="622" on="1"/>
        <pt x="135" y="622" on="1"/>
        <pt x="259" y="157" on="1"/>
      </contour>
    </TTGlyph>
    <TTGlyph name="O" xMin="50" yMin="0" xMax="310" yMax="622">
      <contour>
        <pt x="129" y="622" on="1"/>
        <pt x="231" y="622" on="1"/>
        <pt x="310" y="622" on="0"/>
        <pt x="310" y="543" on="1"/>
        <pt x="310" y="79" on="1"/>
        <pt x="310" y="0" on="0"/>
        <pt x="231" y="0" on="1"/>
        <pt x="129" y="0" on="1"/>
        <pt x="50" y="0" on="0"/>
        <pt x="50" y="79" on="1"/>
        <pt x="50" y="543" on="1"/>
        <pt x="50" y="622" on="0"/>
      </contour>
      <contour>
        <pt x="242" y="90" on="1"/>
        <pt x="242" y="532" on="1"/>
        <pt x="242" y="552" on="0"/>
        <pt x="230" y="563" on="0"/>
        <pt x="211" y="563" on="1"/>
        <pt x="149" y="563" on="1"/>
        <pt x="130" y="563" on="0"/>
        <pt x="118" y="552" on="0"/>
        <pt x="118" y="532" on="1"/>
        <pt x="118" y="90" on="1"/>
        <pt x="118" y="70" on="0"/>
        <pt x="130" y="59" on="0"/>
        <pt x="149" y="59" on="1"/>
        <pt x="211" y="59" on="1"/>
        <pt x="230" y="59" on="0"/>
        <pt x="242" y="70" on="0"/>
      </contour>
    </TTGlyph>
    <TTGlyph name="OE" xMin="50" yMin="0" xMax="492" yMax="622">
      <contour>
        <pt x="321" y="59" on="1"/>
        <pt x="492" y="59" on="1"/>
        <pt x="492" y="0" on="1"/>
        <pt x="262" y="0" on="1"/>
        <pt x="262" y="19" on="1"/>
        <pt x="244" y="0" on="0"/>
        <pt x="206" y="0" on="1"/>
        <pt x="129" y="0" on="1"/>
        <pt x="50" y="0" on="0"/>
        <pt x="50" y="79" on="1"/>
        <pt x="50" y="543" on="1"/>
        <pt x="50" y="622" on="0"/>
        <pt x="129" y="622" on="1"/>
        <pt x="205" y="622" on="1"/>
        <pt x="244" y="622" on="0"/>
        <pt x="262" y="603" on="1"/>
        <pt x="262" y="622" on="1"/>
        <pt x="485" y="622" on="1"/>
        <pt x="485" y="563" on="1"/>
        <pt x="321" y="563" on="1"/>
        <pt x="321" y="353" on="1"/>
        <pt x="455" y="353" on="1"/>
        <pt x="455" y="294" on="1"/>
        <pt x="321" y="294" on="1"/>
      </contour>
      <contour>
        <pt x="242" y="90" on="1"/>
        <pt x="242" y="532" on="1"/>
        <pt x="242" y="552" on="0"/>
        <pt x="230" y="563" on="0"/>
        <pt x="211" y="563" on="1"/>
        <pt x="149" y="563" on="1"/>
        <pt x="130" y="563" on="0"/>
        <pt x="118" y="552" on="0"/>
        <pt x="118" y="532" on="1"/>
        <pt x="118" y="90" on="1"/>
        <pt x="118" y="70" on="0"/>
        <pt x="130" y="59" on="0"/>
        <pt x="149" y="59" on="1"/>
        <pt x="211" y="59" on="1"/>
        <pt x="230" y="59" on="0"/>
        <pt x="242" y="70" on="0"/>
      </contour>
    </TTGlyph>
    <TTGlyph name="Oacute" xMin="50" yMin="0" xMax="310" yMax="780">
      <contour>
        <pt x="129" y="622" on="1"/>
        <pt x="231" y="622" on="1"/>
        <pt x="310" y="622" on="0"/>
        <pt x="310" y="543" on="1"/>
        <pt x="310" y="79" on="1"/>
        <pt x="310" y="0" on="0"/>
        <pt x="231" y="0" on="1"/>
        <pt x="129" y="0" on="1"/>
        <pt x="50" y="0" on="0"/>
        <pt x="50" y="79" on="1"/>
        <pt x="50" y="543" on="1"/>
        <pt x="50" y="622" on="0"/>
      </contour>
      <contour>
        <pt x="242" y="90" on="1"/>
        <pt x="242" y="532" on="1"/>
        <pt x="242" y="552" on="0"/>
        <pt x="230" y="563" on="0"/>
        <pt x="211" y="563" on="1"/>
        <pt x="149" y="563" on="1"/>
        <pt x="130" y="563" on="0"/>
        <pt x="118" y="552" on="0"/>
        <pt x="118" y="532" on="1"/>
        <pt x="118" y="90" on="1"/>
        <pt x="118" y="70" on="0"/>
        <pt x="130" y="59" on="0"/>
        <pt x="149" y="59" on="1"/>
        <pt x="211" y="59" on="1"/>
        <pt x="230" y="59" on="0"/>
        <pt x="242" y="70" on="0"/>
      </contour>
      <contour>
        <pt x="300" y="780" on="1"/>
        <pt x="202" y="653" on="1"/>
        <pt x="140" y="653" on="1"/>
        <pt x="218" y="780" on="1"/>
      </contour>
    </TTGlyph>
    <TTGlyph name="Ocircumflex" xMin="50" yMin="0" xMax="310" yMax="780">
      <contour>
        <pt x="129" y="622" on="1"/>
        <pt x="231" y="622" on="1"/>
        <pt x="310" y="622" on="0"/>
        <pt x="310" y="543" on="1"/>
        <pt x="310" y="79" on="1"/>
        <pt x="310" y="0" on="0"/>
        <pt x="231" y="0" on="1"/>
        <pt x="129" y="0" on="1"/>
        <pt x="50" y="0" on="0"/>
        <pt x="50" y="79" on="1"/>
        <pt x="50" y="543" on="1"/>
        <pt x="50" y="622" on="0"/>
      </contour>
      <contour>
        <pt x="242" y="90" on="1"/>
        <pt x="242" y="532" on="1"/>
        <pt x="242" y="552" on="0"/>
        <pt x="230" y="563" on="0"/>
        <pt x="211" y="563" on="1"/>
        <pt x="149" y="563" on="1"/>
        <pt x="130" y="563" on="0"/>
        <pt x="118" y="552" on="0"/>
        <pt x="118" y="532" on="1"/>
        <pt x="118" y="90" on="1"/>
        <pt x="118" y="70" on="0"/>
        <pt x="130" y="59" on="0"/>
        <pt x="149" y="59" on="1"/>
        <pt x="211" y="59" on="1"/>
        <pt x="230" y="59" on="0"/>
        <pt x="242" y="70" on="0"/>
      </contour>
      <contour>
        <pt x="179" y="737" on="1"/>
        <pt x="127" y="653" on="1"/>
        <pt x="51" y="653" on="1"/>
        <pt x="136" y="780" on="1"/>
        <pt x="223" y="780" on="1"/>
        <pt x="308" y="653" on="1"/>
        <pt x="232" y="653" on="1"/>
      </contour>
    </TTGlyph>
    <TTGlyph name="Odieresis" xMin="48" yMin="0" xMax="312" yMax="737">
      <contour>
        <pt x="224" y="737" on="1"/>
        <pt x="312" y="737" on="1"/>
        <pt x="312" y="653" on="1"/>
        <pt x="224" y="653" on="1"/>
      </contour>
      <contour>
        <pt x="129" y="622" on="1"/>
        <pt x="231" y="622" on="1"/>
        <pt x="310" y="622" on="0"/>
        <pt x="310" y="543" on="1"/>
        <pt x="310" y="79" on="1"/>
        <pt x="310" y="0" on="0"/>
        <pt x="231" y="0" on="1"/>
        <pt x="129" y="0" on="1"/>
        <pt x="50" y="0" on="0"/>
        <pt x="50" y="79" on="1"/>
        <pt x="50" y="543" on="1"/>
        <pt x="50" y="622" on="0"/>
      </contour>
      <contour>
        <pt x="242" y="90" on="1"/>
        <pt x="242" y="532" on="1"/>
        <pt x="242" y="552" on="0"/>
        <pt x="230" y="563" on="0"/>
        <pt x="211" y="563" on="1"/>
        <pt x="149" y="563" on="1"/>
        <pt x="130" y="563" on="0"/>
        <pt x="118" y="552" on="0"/>
        <pt x="118" y="532" on="1"/>
        <pt x="118" y="90" on="1"/>
        <pt x="118" y="70" on="0"/>
        <pt x="130" y="59" on="0"/>
        <pt x="149" y="59" on="1"/>
        <pt x="211" y="59" on="1"/>
        <pt x="230" y="59" on="0"/>
        <pt x="242" y="70" on="0"/>
      </contour>
      <contour>
        <pt x="136" y="737" on="1"/>
        <pt x="136" y="653" on="1"/>
        <pt x="48" y="653" on="1"/>
        <pt x="48" y="737" on="1"/>
      </contour>
    </TTGlyph>
    <TTGlyph name="Ograve" xMin="40" yMin="0" xMax="310" yMax="780">
      <contour>
        <pt x="129" y="622" on="1"/>
        <pt x="231" y="622" on="1"/>
        <pt x="310" y="622" on="0"/>
        <pt x="310" y="543" on="1"/>
        <pt x="310" y="79" on="1"/>
        <pt x="310" y="0" on="0"/>
        <pt x="231" y="0" on="1"/>
        <pt x="129" y="0" on="1"/>
        <pt x="50" y="0" on="0"/>
        <pt x="50" y="79" on="1"/>
        <pt x="50" y="543" on="1"/>
        <pt x="50" y="622" on="0"/>
      </contour>
      <contour>
        <pt x="242" y="90" on="1"/>
        <pt x="242" y="532" on="1"/>
        <pt x="242" y="552" on="0"/>
        <pt x="230" y="563" on="0"/>
        <pt x="211" y="563" on="1"/>
        <pt x="149" y="563" on="1"/>
        <pt x="130" y="563" on="0"/>
        <pt x="118" y="552" on="0"/>
        <pt x="118" y="532" on="1"/>
        <pt x="118" y="90" on="1"/>
        <pt x="118" y="70" on="0"/>
        <pt x="130" y="59" on="0"/>
        <pt x="149" y="59" on="1"/>
        <pt x="211" y="59" on="1"/>
        <pt x="230" y="59" on="0"/>
        <pt x="242" y="70" on="0"/>
      </contour>
      <contour>
        <pt x="200" y="653" on="1"/>
        <pt x="138" y="653" on="1"/>
        <pt x="40" y="780" on="1"/>
        <pt x="122" y="780" on="1"/>
      </contour>
    </TTGlyph>
    <TTGlyph name="Ohungarumlaut" xMin="50" yMin="0" xMax="354" yMax="780">
      <contour>
        <pt x="129" y="622" on="1"/>
        <pt x="231" y="622" on="1"/>
        <pt x="310" y="622" on="0"/>
        <pt x="310" y="543" on="1"/>
        <pt x="310" y="79" on="1"/>
        <pt x="310" y="0" on="0"/>
        <pt x="231" y="0" on="1"/>
        <pt x="129" y="0" on="1"/>
        <pt x="50" y="0" on="0"/>
        <pt x="50" y="79" on="1"/>
        <pt x="50" y="543" on="1"/>
        <pt x="50" y="622" on="0"/>
      </contour>
      <contour>
        <pt x="242" y="90" on="1"/>
        <pt x="242" y="532" on="1"/>
        <pt x="242" y="552" on="0"/>
        <pt x="230" y="563" on="0"/>
        <pt x="211" y="563" on="1"/>
        <pt x="149" y="563" on="1"/>
        <pt x="130" y="563" on="0"/>
        <pt x="118" y="552" on="0"/>
        <pt x="118" y="532" on="1"/>
        <pt x="118" y="90" on="1"/>
        <pt x="118" y="70" on="0"/>
        <pt x="130" y="59" on="0"/>
        <pt x="149" y="59" on="1"/>
        <pt x="211" y="59" on="1"/>
        <pt x="230" y="59" on="0"/>
        <pt x="242" y="70" on="0"/>
      </contour>
      <contour>
        <pt x="254" y="780" on="1"/>
        <pt x="156" y="653" on="1"/>
        <pt x="102" y="653" on="1"/>
        <pt x="180" y="780" on="1"/>
      </contour>
      <contour>
        <pt x="256" y="653" on="1"/>
        <pt x="202" y="653" on="1"/>
        <pt x="280" y="780" on="1"/>
        <pt x="354" y="780" on="1"/>
      </contour>
    </TTGlyph>
    <TTGlyph name="Omacron" xMin="50" yMin="0" xMax="310" yMax="711">
      <contour>
        <pt x="129" y="622" on="1"/>
        <pt x="231" y="622" on="1"/>
        <pt x="310" y="622" on="0"/>
        <pt x="310" y="543" on="1"/>
        <pt x="310" y="79" on="1"/>
        <pt x="310" y="0" on="0"/>
        <pt x="231" y="0" on="1"/>
        <pt x="129" y="0" on="1"/>
        <pt x="50" y="0" on="0"/>
        <pt x="50" y="79" on="1"/>
        <pt x="50" y="543" on="1"/>
        <pt x="50" y="622" on="0"/>
      </contour>
      <contour>
        <pt x="242" y="90" on="1"/>
        <pt x="242" y="532" on="1"/>
        <pt x="242" y="552" on="0"/>
        <pt x="230" y="563" on="0"/>
        <pt x="211" y="563" on="1"/>
        <pt x="149" y="563" on="1"/>
        <pt x="130" y="563" on="0"/>
        <pt x="118" y="552" on="0"/>
        <pt x="118" y="532" on="1"/>
        <pt x="118" y="90" on="1"/>
        <pt x="118" y="70" on="0"/>
        <pt x="130" y="59" on="0"/>
        <pt x="149" y="59" on="1"/>
        <pt x="211" y="59" on="1"/>
        <pt x="230" y="59" on="0"/>
        <pt x="242" y="70" on="0"/>
      </contour>
      <contour>
        <pt x="298" y="711" on="1"/>
        <pt x="298" y="653" on="1"/>
        <pt x="62" y="653" on="1"/>
        <pt x="62" y="711" on="1"/>
      </contour>
    </TTGlyph>
    <TTGlyph name="Oslash" xMin="55" yMin="-20" xMax="315" yMax="642">
      <contour>
        <pt x="315" y="543" on="1"/>
        <pt x="315" y="79" on="1"/>
        <pt x="315" y="0" on="0"/>
        <pt x="236" y="0" on="1"/>
        <pt x="134" y="0" on="1"/>
        <pt x="124" y="0" on="0"/>
        <pt x="110" y="2" on="1"/>
        <pt x="103" y="-20" on="1"/>
        <pt x="55" y="-20" on="1"/>
        <pt x="70" y="25" on="1"/>
        <pt x="55" y="44" on="0"/>
        <pt x="55" y="79" on="1"/>
        <pt x="55" y="543" on="1"/>
        <pt x="55" y="622" on="0"/>
        <pt x="134" y="622" on="1"/>
        <pt x="236" y="622" on="1"/>
        <pt x="246" y="622" on="0"/>
        <pt x="260" y="620" on="1"/>
        <pt x="267" y="642" on="1"/>
        <pt x="315" y="642" on="1"/>
        <pt x="300" y="597" on="1"/>
        <pt x="315" y="578" on="0"/>
      </contour>
      <contour>
        <pt x="122" y="535" on="1"/>
        <pt x="122" y="189" on="1"/>
        <pt x="241" y="561" on="1"/>
        <pt x="235" y="566" on="0"/>
        <pt x="216" y="566" on="1"/>
        <pt x="153" y="566" on="1"/>
        <pt x="134" y="566" on="0"/>
        <pt x="122" y="554" on="0"/>
      </contour>
      <contour>
        <pt x="248" y="87" on="1"/>
        <pt x="248" y="433" on="1"/>
        <pt x="129" y="61" on="1"/>
        <pt x="134" y="56" on="0"/>
        <pt x="153" y="56" on="1"/>
        <pt x="216" y="56" on="1"/>
        <pt x="236" y="56" on="0"/>
        <pt x="248" y="67" on="0"/>
      </contour>
    </TTGlyph>
    <TTGlyph name="Otilde" xMin="50" yMin="0" xMax="310" yMax="743">
      <contour>
        <pt x="129" y="622" on="1"/>
        <pt x="231" y="622" on="1"/>
        <pt x="310" y="622" on="0"/>
        <pt x="310" y="543" on="1"/>
        <pt x="310" y="79" on="1"/>
        <pt x="310" y="0" on="0"/>
        <pt x="231" y="0" on="1"/>
        <pt x="129" y="0" on="1"/>
        <pt x="50" y="0" on="0"/>
        <pt x="50" y="79" on="1"/>
        <pt x="50" y="543" on="1"/>
        <pt x="50" y="622" on="0"/>
      </contour>
      <contour>
        <pt x="242" y="90" on="1"/>
        <pt x="242" y="532" on="1"/>
        <pt x="242" y="552" on="0"/>
        <pt x="230" y="563" on="0"/>
        <pt x="211" y="563" on="1"/>
        <pt x="149" y="563" on="1"/>
        <pt x="130" y="563" on="0"/>
        <pt x="118" y="552" on="0"/>
        <pt x="118" y="532" on="1"/>
        <pt x="118" y="90" on="1"/>
        <pt x="118" y="70" on="0"/>
        <pt x="130" y="59" on="0"/>
        <pt x="149" y="59" on="1"/>
        <pt x="211" y="59" on="1"/>
        <pt x="230" y="59" on="0"/>
        <pt x="242" y="70" on="0"/>
      </contour>
      <contour>
        <pt x="116" y="664" on="1"/>
        <pt x="116" y="653" on="1"/>
        <pt x="54" y="653" on="1"/>
        <pt x="54" y="667" on="1"/>
        <pt x="54" y="704" on="0"/>
        <pt x="87" y="743" on="0"/>
        <pt x="126" y="743" on="1"/>
        <pt x="132" y="743" on="1"/>
        <pt x="155" y="743" on="0"/>
        <pt x="213" y="708" on="0"/>
        <pt x="234" y="708" on="0"/>
        <pt x="242" y="718" on="0"/>
        <pt x="242" y="733" on="1"/>
        <pt x="242" y="743" on="1"/>
        <pt x="304" y="743" on="1"/>
        <pt x="304" y="729" on="1"/>
        <pt x="304" y="692" on="0"/>
        <pt x="273" y="653" on="0"/>
        <pt x="233" y="653" on="1"/>
        <pt x="228" y="653" on="1"/>
        <pt x="204" y="653" on="0"/>
        <pt x="143" y="688" on="0"/>
        <pt x="133" y="688" on="1"/>
        <pt x="116" y="688" on="0"/>
      </contour>
    </TTGlyph>
    <TTGlyph name="P" xMin="55" yMin="0" xMax="315" yMax="622">
      <contour>
        <pt x="55" y="622" on="1"/>
        <pt x="236" y="622" on="1"/>
        <pt x="315" y="622" on="0"/>
        <pt x="315" y="543" on="1"/>
        <pt x="315" y="329" on="1"/>
        <pt x="315" y="250" on="0"/>
        <pt x="236" y="250" on="1"/>
        <pt x="123" y="250" on="1"/>
        <pt x="123" y="0" on="1"/>
        <pt x="55" y="0" on="1"/>
      </contour>
      <contour>
        <pt x="247" y="340" on="1"/>
        <pt x="247" y="532" on="1"/>
        <pt x="247" y="552" on="0"/>
        <pt x="236" y="563" on="0"/>
        <pt x="216" y="563" on="1"/>
        <pt x="123" y="563" on="1"/>
        <pt x="123" y="309" on="1"/>
        <pt x="216" y="309" on="1"/>
        <pt x="236" y="309" on="0"/>
        <pt x="247" y="320" on="0"/>
      </contour>
    </TTGlyph>
    <TTGlyph name="Q" xMin="50" yMin="-97" xMax="313" yMax="622">
      <contour>
        <pt x="129" y="0" on="1"/>
        <pt x="50" y="0" on="0"/>
        <pt x="50" y="79" on="1"/>
        <pt x="50" y="543" on="1"/>
        <pt x="50" y="622" on="0"/>
        <pt x="129" y="622" on="1"/>
        <pt x="231" y="622" on="1"/>
        <pt x="310" y="622" on="0"/>
        <pt x="310" y="543" on="1"/>
        <pt x="310" y="79" on="1"/>
        <pt x="310" y="8" on="0"/>
        <pt x="248" y="1" on="1"/>
        <pt x="313" y="-97" on="1"/>
        <pt x="245" y="-97" on="1"/>
        <pt x="182" y="0" on="1"/>
      </contour>
      <contour>
        <pt x="118" y="532" on="1"/>
        <pt x="118" y="90" on="1"/>
        <pt x="118" y="70" on="0"/>
        <pt x="130" y="59" on="0"/>
        <pt x="149" y="59" on="1"/>
        <pt x="211" y="59" on="1"/>
        <pt x="230" y="59" on="0"/>
        <pt x="242" y="70" on="0"/>
        <pt x="242" y="90" on="1"/>
        <pt x="242" y="532" on="1"/>
        <pt x="242" y="552" on="0"/>
        <pt x="230" y="563" on="0"/>
        <pt x="211" y="563" on="1"/>
        <pt x="149" y="563" on="1"/>
        <pt x="130" y="563" on="0"/>
        <pt x="118" y="552" on="0"/>
      </contour>
    </TTGlyph>
    <TTGlyph name="R" xMin="55" yMin="0" xMax="347" yMax="622">
      <contour>
        <pt x="123" y="260" on="1"/>
        <pt x="123" y="0" on="1"/>
        <pt x="55" y="0" on="1"/>
        <pt x="55" y="622" on="1"/>
        <pt x="236" y="622" on="1"/>
        <pt x="315" y="622" on="0"/>
        <pt x="315" y="543" on="1"/>
        <pt x="315" y="339" on="1"/>
        <pt x="315" y="268" on="0"/>
        <pt x="253" y="261" on="1"/>
        <pt x="347" y="0" on="1"/>
        <pt x="273" y="0" on="1"/>
        <pt x="182" y="260" on="1"/>
      </contour>
      <contour>
        <pt x="123" y="563" on="1"/>
        <pt x="123" y="319" on="1"/>
        <pt x="216" y="319" on="1"/>
        <pt x="236" y="319" on="0"/>
        <pt x="247" y="330" on="0"/>
        <pt x="247" y="350" on="1"/>
        <pt x="247" y="532" on="1"/>
        <pt x="247" y="552" on="0"/>
        <pt x="236" y="563" on="0"/>
        <pt x="216" y="563" on="1"/>
      </contour>
    </TTGlyph>
    <TTGlyph name="Racute" xMin="55" yMin="0" xMax="347" yMax="780">
      <contour>
        <pt x="123" y="260" on="1"/>
        <pt x="123" y="0" on="1"/>
        <pt x="55" y="0" on="1"/>
        <pt x="55" y="622" on="1"/>
        <pt x="236" y="622" on="1"/>
        <pt x="315" y="622" on="0"/>
        <pt x="315" y="543" on="1"/>
        <pt x="315" y="339" on="1"/>
        <pt x="315" y="268" on="0"/>
        <pt x="253" y="261" on="1"/>
        <pt x="347" y="0" on="1"/>
        <pt x="273" y="0" on="1"/>
        <pt x="182" y="260" on="1"/>
      </contour>
      <contour>
        <pt x="123" y="563" on="1"/>
        <pt x="123" y="319" on="1"/>
        <pt x="216" y="319" on="1"/>
        <pt x="236" y="319" on="0"/>
        <pt x="247" y="330" on="0"/>
        <pt x="247" y="350" on="1"/>
        <pt x="247" y="532" on="1"/>
        <pt x="247" y="552" on="0"/>
        <pt x="236" y="563" on="0"/>
        <pt x="216" y="563" on="1"/>
      </contour>
      <contour>
        <pt x="307" y="780" on="1"/>
        <pt x="209" y="653" on="1"/>
        <pt x="147" y="653" on="1"/>
        <pt x="225" y="780" on="1"/>
      </contour>
    </TTGlyph>
    <TTGlyph name="Rcaron" xMin="52" yMin="0" xMax="347" yMax="780">
      <contour>
        <pt x="123" y="260" on="1"/>
        <pt x="123" y="0" on="1"/>
        <pt x="55" y="0" on="1"/>
        <pt x="55" y="622" on="1"/>
        <pt x="236" y="622" on="1"/>
        <pt x="315" y="622" on="0"/>
        <pt x="315" y="543" on="1"/>
        <pt x="315" y="339" on="1"/>
        <pt x="315" y="268" on="0"/>
        <pt x="253" y="261" on="1"/>
        <pt x="347" y="0" on="1"/>
        <pt x="273" y="0" on="1"/>
        <pt x="182" y="260" on="1"/>
      </contour>
      <contour>
        <pt x="123" y="563" on="1"/>
        <pt x="123" y="319" on="1"/>
        <pt x="216" y="319" on="1"/>
        <pt x="236" y="319" on="0"/>
        <pt x="247" y="330" on="0"/>
        <pt x="247" y="350" on="1"/>
        <pt x="247" y="532" on="1"/>
        <pt x="247" y="552" on="0"/>
        <pt x="236" y="563" on="0"/>
        <pt x="216" y="563" on="1"/>
      </contour>
      <contour>
        <pt x="224" y="653" on="1"/>
        <pt x="137" y="653" on="1"/>
        <pt x="52" y="780" on="1"/>
        <pt x="128" y="780" on="1"/>
        <pt x="180" y="696" on="1"/>
        <pt x="233" y="780" on="1"/>
        <pt x="309" y="780" on="1"/>
      </contour>
    </TTGlyph>
    <TTGlyph name="S" xMin="40" yMin="0" xMax="287" yMax="622">
      <contour>
        <pt x="218" y="90" on="1"/>
        <pt x="218" y="260" on="1"/>
        <pt x="218" y="280" on="0"/>
        <pt x="206" y="291" on="0"/>
        <pt x="187" y="291" on="1"/>
        <pt x="119" y="291" on="1"/>
        <pt x="40" y="291" on="0"/>
        <pt x="40" y="370" on="1"/>
        <pt x="40" y="543" on="1"/>
        <pt x="40" y="622" on="0"/>
        <pt x="119" y="622" on="1"/>
        <pt x="207" y="622" on="1"/>
        <pt x="286" y="622" on="0"/>
        <pt x="286" y="543" on="1"/>
        <pt x="286" y="447" on="1"/>
        <pt x="217" y="447" on="1"/>
        <pt x="217" y="532" on="1"/>
        <pt x="217" y="552" on="0"/>
        <pt x="206" y="563" on="0"/>
        <pt x="186" y="563" on="1"/>
        <pt x="140" y="563" on="1"/>
        <pt x="120" y="563" on="0"/>
        <pt x="109" y="552" on="0"/>
        <pt x="109" y="532" on="1"/>
        <pt x="109" y="381" on="1"/>
        <pt x="109" y="362" on="0"/>
        <pt x="120" y="350" on="0"/>
        <pt x="140" y="350" on="1"/>
        <pt x="208" y="350" on="1"/>
        <pt x="287" y="350" on="0"/>
        <pt x="287" y="271" on="1"/>
        <pt x="287" y="79" on="1"/>
        <pt x="287" y="0" on="0"/>
        <pt x="208" y="0" on="1"/>
        <pt x="121" y="0" on="1"/>
        <pt x="42" y="0" on="0"/>
        <pt x="42" y="79" on="1"/>
        <pt x="42" y="175" on="1"/>
        <pt x="111" y="175" on="1"/>
        <pt x="111" y="90" on="1"/>
        <pt x="111" y="70" on="0"/>
        <pt x="122" y="59" on="0"/>
        <pt x="142" y="59" on="1"/>
        <pt x="187" y="59" on="1"/>
        <pt x="206" y="59" on="0"/>
        <pt x="218" y="70" on="0"/>
      </contour>
    </TTGlyph>
    <TTGlyph name="Sacute" xMin="40" yMin="0" xMax="288" yMax="780">
      <contour>
        <pt x="218" y="90" on="1"/>
        <pt x="218" y="260" on="1"/>
        <pt x="218" y="280" on="0"/>
        <pt x="206" y="291" on="0"/>
        <pt x="187" y="291" on="1"/>
        <pt x="119" y="291" on="1"/>
        <pt x="40" y="291" on="0"/>
        <pt x="40" y="370" on="1"/>
        <pt x="40" y="543" on="1"/>
        <pt x="40" y="622" on="0"/>
        <pt x="119" y="622" on="1"/>
        <pt x="207" y="622" on="1"/>
        <pt x="286" y="622" on="0"/>
        <pt x="286" y="543" on="1"/>
        <pt x="286" y="447" on="1"/>
        <pt x="217" y="447" on="1"/>
        <pt x="217" y="532" on="1"/>
        <pt x="217" y="552" on="0"/>
        <pt x="206" y="563" on="0"/>
        <pt x="186" y="563" on="1"/>
        <pt x="140" y="563" on="1"/>
        <pt x="120" y="563" on="0"/>
        <pt x="109" y="552" on="0"/>
        <pt x="109" y="532" on="1"/>
        <pt x="109" y="381" on="1"/>
        <pt x="109" y="362" on="0"/>
        <pt x="120" y="350" on="0"/>
        <pt x="140" y="350" on="1"/>
        <pt x="208" y="350" on="1"/>
        <pt x="287" y="350" on="0"/>
        <pt x="287" y="271" on="1"/>
        <pt x="287" y="79" on="1"/>
        <pt x="287" y="0" on="0"/>
        <pt x="208" y="0" on="1"/>
        <pt x="121" y="0" on="1"/>
        <pt x="42" y="0" on="0"/>
        <pt x="42" y="79" on="1"/>
        <pt x="42" y="175" on="1"/>
        <pt x="111" y="175" on="1"/>
        <pt x="111" y="90" on="1"/>
        <pt x="111" y="70" on="0"/>
        <pt x="122" y="59" on="0"/>
        <pt x="142" y="59" on="1"/>
        <pt x="187" y="59" on="1"/>
        <pt x="206" y="59" on="0"/>
        <pt x="218" y="70" on="0"/>
      </contour>
      <contour>
        <pt x="128" y="653" on="1"/>
        <pt x="206" y="780" on="1"/>
        <pt x="288" y="780" on="1"/>
        <pt x="190" y="653" on="1"/>
      </contour>
    </TTGlyph>
    <TTGlyph name="Scaron" xMin="36" yMin="0" xMax="293" yMax="780">
      <contour>
        <pt x="218" y="90" on="1"/>
        <pt x="218" y="260" on="1"/>
        <pt x="218" y="280" on="0"/>
        <pt x="206" y="291" on="0"/>
        <pt x="187" y="291" on="1"/>
        <pt x="119" y="291" on="1"/>
        <pt x="40" y="291" on="0"/>
        <pt x="40" y="370" on="1"/>
        <pt x="40" y="543" on="1"/>
        <pt x="40" y="622" on="0"/>
        <pt x="119" y="622" on="1"/>
        <pt x="207" y="622" on="1"/>
        <pt x="286" y="622" on="0"/>
        <pt x="286" y="543" on="1"/>
        <pt x="286" y="447" on="1"/>
        <pt x="217" y="447" on="1"/>
        <pt x="217" y="532" on="1"/>
        <pt x="217" y="552" on="0"/>
        <pt x="206" y="563" on="0"/>
        <pt x="186" y="563" on="1"/>
        <pt x="140" y="563" on="1"/>
        <pt x="120" y="563" on="0"/>
        <pt x="109" y="552" on="0"/>
        <pt x="109" y="532" on="1"/>
        <pt x="109" y="381" on="1"/>
        <pt x="109" y="362" on="0"/>
        <pt x="120" y="350" on="0"/>
        <pt x="140" y="350" on="1"/>
        <pt x="208" y="350" on="1"/>
        <pt x="287" y="350" on="0"/>
        <pt x="287" y="271" on="1"/>
        <pt x="287" y="79" on="1"/>
        <pt x="287" y="0" on="0"/>
        <pt x="208" y="0" on="1"/>
        <pt x="121" y="0" on="1"/>
        <pt x="42" y="0" on="0"/>
        <pt x="42" y="79" on="1"/>
        <pt x="42" y="175" on="1"/>
        <pt x="111" y="175" on="1"/>
        <pt x="111" y="90" on="1"/>
        <pt x="111" y="70" on="0"/>
        <pt x="122" y="59" on="0"/>
        <pt x="142" y="59" on="1"/>
        <pt x="187" y="59" on="1"/>
        <pt x="206" y="59" on="0"/>
        <pt x="218" y="70" on="0"/>
      </contour>
      <contour>
        <pt x="121" y="653" on="1"/>
        <pt x="36" y="780" on="1"/>
        <pt x="112" y="780" on="1"/>
        <pt x="164" y="696" on="1"/>
        <pt x="217" y="780" on="1"/>
        <pt x="293" y="780" on="1"/>
        <pt x="208" y="653" on="1"/>
      </contour>
    </TTGlyph>
    <TTGlyph name="T" xMin="5" yMin="0" xMax="273" yMax="622">
      <contour>
        <pt x="273" y="622" on="1"/>
        <pt x="273" y="563" on="1"/>
        <pt x="173" y="563" on="1"/>
        <pt x="173" y="0" on="1"/>
        <pt x="105" y="0" on="1"/>
        <pt x="105" y="563" on="1"/>
        <pt x="5" y="563" on="1"/>
        <pt x="5" y="622" on="1"/>
      </contour>
    </TTGlyph>
    <TTGlyph name="Tcaron" xMin="5" yMin="0" xMax="273" yMax="780">
      <contour>
        <pt x="273" y="622" on="1"/>
        <pt x="273" y="563" on="1"/>
        <pt x="173" y="563" on="1"/>
        <pt x="173" y="0" on="1"/>
        <pt x="105" y="0" on="1"/>
        <pt x="105" y="563" on="1"/>
        <pt x="5" y="563" on="1"/>
        <pt x="5" y="622" on="1"/>
      </contour>
      <contour>
        <pt x="183" y="653" on="1"/>
        <pt x="96" y="653" on="1"/>
        <pt x="11" y="780" on="1"/>
        <pt x="87" y="780" on="1"/>
        <pt x="139" y="696" on="1"/>
        <pt x="192" y="780" on="1"/>
        <pt x="268" y="780" on="1"/>
      </contour>
    </TTGlyph>
    <TTGlyph name="Thorn" xMin="55" yMin="0" xMax="315" yMax="622">
      <contour>
        <pt x="123" y="497" on="1"/>
        <pt x="236" y="497" on="1"/>
        <pt x="315" y="497" on="0"/>
        <pt x="315" y="418" on="1"/>
        <pt x="315" y="204" on="1"/>
        <pt x="315" y="125" on="0"/>
        <pt x="236" y="125" on="1"/>
        <pt x="123" y="125" on="1"/>
        <pt x="123" y="0" on="1"/>
        <pt x="55" y="0" on="1"/>
        <pt x="55" y="622" on="1"/>
        <pt x="123" y="622" on="1"/>
      </contour>
      <contour>
        <pt x="247" y="215" on="1"/>
        <pt x="247" y="407" on="1"/>
        <pt x="247" y="426" on="0"/>
        <pt x="236" y="438" on="0"/>
        <pt x="216" y="438" on="1"/>
        <pt x="123" y="438" on="1"/>
        <pt x="123" y="184" on="1"/>
        <pt x="216" y="184" on="1"/>
        <pt x="236" y="184" on="0"/>
        <pt x="247" y="196" on="0"/>
      </contour>
    </TTGlyph>
    <TTGlyph name="U" xMin="52" yMin="0" xMax="312" yMax="622">
      <contour>
        <pt x="244" y="622" on="1"/>
        <pt x="312" y="622" on="1"/>
        <pt x="312" y="79" on="1"/>
        <pt x="312" y="0" on="0"/>
        <pt x="233" y="0" on="1"/>
        <pt x="131" y="0" on="1"/>
        <pt x="52" y="0" on="0"/>
        <pt x="52" y="79" on="1"/>
        <pt x="52" y="622" on="1"/>
        <pt x="120" y="622" on="1"/>
        <pt x="120" y="90" on="1"/>
        <pt x="120" y="70" on="0"/>
        <pt x="132" y="59" on="0"/>
        <pt x="151" y="59" on="1"/>
        <pt x="213" y="59" on="1"/>
        <pt x="232" y="59" on="0"/>
        <pt x="244" y="70" on="0"/>
        <pt x="244" y="90" on="1"/>
      </contour>
    </TTGlyph>
    <TTGlyph name="Uacute" xMin="52" yMin="0" xMax="312" yMax="780">
      <contour>
        <pt x="244" y="622" on="1"/>
        <pt x="312" y="622" on="1"/>
        <pt x="312" y="79" on="1"/>
        <pt x="312" y="0" on="0"/>
        <pt x="233" y="0" on="1"/>
        <pt x="131" y="0" on="1"/>
        <pt x="52" y="0" on="0"/>
        <pt x="52" y="79" on="1"/>
        <pt x="52" y="622" on="1"/>
        <pt x="120" y="622" on="1"/>
        <pt x="120" y="90" on="1"/>
        <pt x="120" y="70" on="0"/>
        <pt x="132" y="59" on="0"/>
        <pt x="151" y="59" on="1"/>
        <pt x="213" y="59" on="1"/>
        <pt x="232" y="59" on="0"/>
        <pt x="244" y="70" on="0"/>
        <pt x="244" y="90" on="1"/>
      </contour>
      <contour>
        <pt x="310" y="780" on="1"/>
        <pt x="212" y="653" on="1"/>
        <pt x="150" y="653" on="1"/>
        <pt x="228" y="780" on="1"/>
      </contour>
    </TTGlyph>
    <TTGlyph name="Ucircumflex" xMin="52" yMin="0" xMax="312" yMax="780">
      <contour>
        <pt x="244" y="622" on="1"/>
        <pt x="312" y="622" on="1"/>
        <pt x="312" y="79" on="1"/>
        <pt x="312" y="0" on="0"/>
        <pt x="233" y="0" on="1"/>
        <pt x="131" y="0" on="1"/>
        <pt x="52" y="0" on="0"/>
        <pt x="52" y="79" on="1"/>
        <pt x="52" y="622" on="1"/>
        <pt x="120" y="622" on="1"/>
        <pt x="120" y="90" on="1"/>
        <pt x="120" y="70" on="0"/>
        <pt x="132" y="59" on="0"/>
        <pt x="151" y="59" on="1"/>
        <pt x="213" y="59" on="1"/>
        <pt x="232" y="59" on="0"/>
        <pt x="244" y="70" on="0"/>
        <pt x="244" y="90" on="1"/>
      </contour>
      <contour>
        <pt x="181" y="737" on="1"/>
        <pt x="129" y="653" on="1"/>
        <pt x="53" y="653" on="1"/>
        <pt x="138" y="780" on="1"/>
        <pt x="225" y="780" on="1"/>
        <pt x="310" y="653" on="1"/>
        <pt x="234" y="653" on="1"/>
      </contour>
    </TTGlyph>
    <TTGlyph name="Udieresis" xMin="50" yMin="0" xMax="314" yMax="737">
      <contour>
        <pt x="226" y="737" on="1"/>
        <pt x="314" y="737" on="1"/>
        <pt x="314" y="653" on="1"/>
        <pt x="226" y="653" on="1"/>
      </contour>
      <contour>
        <pt x="244" y="90" on="1"/>
        <pt x="244" y="622" on="1"/>
        <pt x="312" y="622" on="1"/>
        <pt x="312" y="79" on="1"/>
        <pt x="312" y="0" on="0"/>
        <pt x="233" y="0" on="1"/>
        <pt x="131" y="0" on="1"/>
        <pt x="52" y="0" on="0"/>
        <pt x="52" y="79" on="1"/>
        <pt x="52" y="622" on="1"/>
        <pt x="120" y="622" on="1"/>
        <pt x="120" y="90" on="1"/>
        <pt x="120" y="70" on="0"/>
        <pt x="132" y="59" on="0"/>
        <pt x="151" y="59" on="1"/>
        <pt x="213" y="59" on="1"/>
        <pt x="232" y="59" on="0"/>
        <pt x="244" y="70" on="0"/>
      </contour>
      <contour>
        <pt x="138" y="737" on="1"/>
        <pt x="138" y="653" on="1"/>
        <pt x="50" y="653" on="1"/>
        <pt x="50" y="737" on="1"/>
      </contour>
    </TTGlyph>
    <TTGlyph name="Ugrave" xMin="52" yMin="0" xMax="312" yMax="780">
      <contour>
        <pt x="244" y="622" on="1"/>
        <pt x="312" y="622" on="1"/>
        <pt x="312" y="79" on="1"/>
        <pt x="312" y="0" on="0"/>
        <pt x="233" y="0" on="1"/>
        <pt x="131" y="0" on="1"/>
        <pt x="52" y="0" on="0"/>
        <pt x="52" y="79" on="1"/>
        <pt x="52" y="622" on="1"/>
        <pt x="120" y="622" on="1"/>
        <pt x="120" y="90" on="1"/>
        <pt x="120" y="70" on="0"/>
        <pt x="132" y="59" on="0"/>
        <pt x="151" y="59" on="1"/>
        <pt x="213" y="59" on="1"/>
        <pt x="232" y="59" on="0"/>
        <pt x="244" y="70" on="0"/>
        <pt x="244" y="90" on="1"/>
      </contour>
      <contour>
        <pt x="213" y="653" on="1"/>
        <pt x="151" y="653" on="1"/>
        <pt x="53" y="780" on="1"/>
        <pt x="135" y="780" on="1"/>
      </contour>
    </TTGlyph>
    <TTGlyph name="Uhungarumlaut" xMin="52" yMin="0" xMax="354" yMax="780">
      <contour>
        <pt x="244" y="90" on="1"/>
        <pt x="244" y="622" on="1"/>
        <pt x="312" y="622" on="1"/>
        <pt x="312" y="79" on="1"/>
        <pt x="312" y="0" on="0"/>
        <pt x="233" y="0" on="1"/>
        <pt x="131" y="0" on="1"/>
        <pt x="52" y="0" on="0"/>
        <pt x="52" y="79" on="1"/>
        <pt x="52" y="622" on="1"/>
        <pt x="120" y="622" on="1"/>
        <pt x="120" y="90" on="1"/>
        <pt x="120" y="70" on="0"/>
        <pt x="132" y="59" on="0"/>
        <pt x="151" y="59" on="1"/>
        <pt x="213" y="59" on="1"/>
        <pt x="232" y="59" on="0"/>
        <pt x="244" y="70" on="0"/>
      </contour>
      <contour>
        <pt x="254" y="780" on="1"/>
        <pt x="156" y="653" on="1"/>
        <pt x="102" y="653" on="1"/>
        <pt x="180" y="780" on="1"/>
      </contour>
      <contour>
        <pt x="256" y="653" on="1"/>
        <pt x="202" y="653" on="1"/>
        <pt x="280" y="780" on="1"/>
        <pt x="354" y="780" on="1"/>
      </contour>
    </TTGlyph>
    <TTGlyph name="Umacron" xMin="52" yMin="0" xMax="312" yMax="711">
      <contour>
        <pt x="244" y="622" on="1"/>
        <pt x="312" y="622" on="1"/>
        <pt x="312" y="79" on="1"/>
        <pt x="312" y="0" on="0"/>
        <pt x="233" y="0" on="1"/>
        <pt x="131" y="0" on="1"/>
        <pt x="52" y="0" on="0"/>
        <pt x="52" y="79" on="1"/>
        <pt x="52" y="622" on="1"/>
        <pt x="120" y="622" on="1"/>
        <pt x="120" y="90" on="1"/>
        <pt x="120" y="70" on="0"/>
        <pt x="132" y="59" on="0"/>
        <pt x="151" y="59" on="1"/>
        <pt x="213" y="59" on="1"/>
        <pt x="232" y="59" on="0"/>
        <pt x="244" y="70" on="0"/>
        <pt x="244" y="90" on="1"/>
      </contour>
      <contour>
        <pt x="301" y="711" on="1"/>
        <pt x="301" y="653" on="1"/>
        <pt x="65" y="653" on="1"/>
        <pt x="65" y="711" on="1"/>
      </contour>
    </TTGlyph>
    <TTGlyph name="Uogonek" xMin="52" yMin="-212" xMax="312" yMax="622">
      <contour>
        <pt x="244" y="622" on="1"/>
        <pt x="312" y="622" on="1"/>
        <pt x="312" y="79" on="1"/>
        <pt x="312" y="0" on="0"/>
        <pt x="233" y="0" on="1"/>
        <pt x="222" y="0" on="1"/>
        <pt x="222" y="-78" on="1"/>
        <pt x="162" y="-78" on="1"/>
        <pt x="142" y="-78" on="0"/>
        <pt x="130" y="-89" on="0"/>
        <pt x="130" y="-108" on="1"/>
        <pt x="130" y="-128" on="1"/>
        <pt x="130" y="-147" on="0"/>
        <pt x="142" y="-158" on="0"/>
        <pt x="162" y="-158" on="1"/>
        <pt x="240" y="-158" on="1"/>
        <pt x="240" y="-212" on="1"/>
        <pt x="148" y="-212" on="1"/>
        <pt x="69" y="-212" on="0"/>
        <pt x="69" y="-133" on="1"/>
        <pt x="69" y="-104" on="1"/>
        <pt x="69" y="-25" on="0"/>
        <pt x="148" y="-25" on="1"/>
        <pt x="156" y="-25" on="1"/>
        <pt x="156" y="0" on="1"/>
        <pt x="131" y="0" on="1"/>
        <pt x="52" y="0" on="0"/>
        <pt x="52" y="79" on="1"/>
        <pt x="52" y="622" on="1"/>
        <pt x="120" y="622" on="1"/>
        <pt x="120" y="90" on="1"/>
        <pt x="120" y="70" on="0"/>
        <pt x="132" y="59" on="0"/>
        <pt x="151" y="59" on="1"/>
        <pt x="213" y="59" on="1"/>
        <pt x="232" y="59" on="0"/>
        <pt x="244" y="70" on="0"/>
        <pt x="244" y="90" on="1"/>
      </contour>
    </TTGlyph>
    <TTGlyph name="Uring" xMin="52" yMin="0" xMax="312" yMax="800">
      <contour>
        <pt x="244" y="622" on="1"/>
        <pt x="312" y="622" on="1"/>
        <pt x="312" y="79" on="1"/>
        <pt x="312" y="0" on="0"/>
        <pt x="233" y="0" on="1"/>
        <pt x="131" y="0" on="1"/>
        <pt x="52" y="0" on="0"/>
        <pt x="52" y="79" on="1"/>
        <pt x="52" y="622" on="1"/>
        <pt x="120" y="622" on="1"/>
        <pt x="120" y="90" on="1"/>
        <pt x="120" y="70" on="0"/>
        <pt x="132" y="59" on="0"/>
        <pt x="151" y="59" on="1"/>
        <pt x="213" y="59" on="1"/>
        <pt x="232" y="59" on="0"/>
        <pt x="244" y="70" on="0"/>
        <pt x="244" y="90" on="1"/>
      </contour>
      <contour>
        <pt x="211" y="653" on="1"/>
        <pt x="151" y="653" on="1"/>
        <pt x="86" y="653" on="0"/>
        <pt x="86" y="718" on="1"/>
        <pt x="86" y="735" on="1"/>
        <pt x="86" y="800" on="0"/>
        <pt x="151" y="800" on="1"/>
        <pt x="211" y="800" on="1"/>
        <pt x="276" y="800" on="0"/>
        <pt x="276" y="735" on="1"/>
        <pt x="276" y="718" on="1"/>
        <pt x="276" y="653" on="0"/>
      </contour>
      <contour>
        <pt x="137" y="729" on="1"/>
        <pt x="137" y="724" on="1"/>
        <pt x="137" y="707" on="0"/>
        <pt x="147" y="697" on="0"/>
        <pt x="165" y="697" on="1"/>
        <pt x="197" y="697" on="1"/>
        <pt x="215" y="697" on="0"/>
        <pt x="225" y="707" on="0"/>
        <pt x="225" y="724" on="1"/>
        <pt x="225" y="729" on="1"/>
        <pt x="225" y="746" on="0"/>
        <pt x="215" y="756" on="0"/>
        <pt x="197" y="756" on="1"/>
        <pt x="165" y="756" on="1"/>
        <pt x="147" y="756" on="0"/>
        <pt x="137" y="746" on="0"/>
      </contour>
    </TTGlyph>
    <TTGlyph name="V" xMin="5" yMin="0" xMax="314" yMax="622">
      <contour>
        <pt x="245" y="622" on="1"/>
        <pt x="314" y="622" on="1"/>
        <pt x="214" y="0" on="1"/>
        <pt x="105" y="0" on="1"/>
        <pt x="5" y="622" on="1"/>
        <pt x="74" y="622" on="1"/>
        <pt x="159" y="48" on="1"/>
      </contour>
    </TTGlyph>
    <TTGlyph name="W" xMin="10" yMin="0" xMax="539" yMax="622">
      <contour>
        <pt x="470" y="622" on="1"/>
        <pt x="539" y="622" on="1"/>
        <pt x="448" y="0" on="1"/>
        <pt x="344" y="0" on="1"/>
        <pt x="274" y="493" on="1"/>
        <pt x="205" y="0" on="1"/>
        <pt x="101" y="0" on="1"/>
        <pt x="10" y="622" on="1"/>
        <pt x="79" y="622" on="1"/>
        <pt x="154" y="48" on="1"/>
        <pt x="233" y="622" on="1"/>
        <pt x="315" y="622" on="1"/>
        <pt x="394" y="48" on="1"/>
      </contour>
    </TTGlyph>
    <TTGlyph name="X" xMin="5" yMin="0" xMax="329" yMax="622">
      <contour>
        <pt x="203" y="318" on="1"/>
        <pt x="329" y="0" on="1"/>
        <pt x="255" y="0" on="1"/>
        <pt x="167" y="253" on="1"/>
        <pt x="79" y="0" on="1"/>
        <pt x="5" y="0" on="1"/>
        <pt x="131" y="318" on="1"/>
        <pt x="15" y="622" on="1"/>
        <pt x="89" y="622" on="1"/>
        <pt x="167" y="380" on="1"/>
        <pt x="245" y="622" on="1"/>
        <pt x="319" y="622" on="1"/>
      </contour>
    </TTGlyph>
    <TTGlyph name="Y" xMin="5" yMin="0" xMax="314" yMax="622">
      <contour>
        <pt x="196" y="0" on="1"/>
        <pt x="128" y="0" on="1"/>
        <pt x="128" y="190" on="1"/>
        <pt x="5" y="622" on="1"/>
        <pt x="74" y="622" on="1"/>
        <pt x="162" y="257" on="1"/>
        <pt x="245" y="622" on="1"/>
        <pt x="314" y="622" on="1"/>
        <pt x="196" y="190" on="1"/>
      </contour>
    </TTGlyph>
    <TTGlyph name="Yacute" xMin="5" yMin="0" xMax="314" yMax="780">
      <contour>
        <pt x="196" y="0" on="1"/>
        <pt x="128" y="0" on="1"/>
        <pt x="128" y="190" on="1"/>
        <pt x="5" y="622" on="1"/>
        <pt x="74" y="622" on="1"/>
        <pt x="162" y="257" on="1"/>
        <pt x="245" y="622" on="1"/>
        <pt x="314" y="622" on="1"/>
        <pt x="196" y="190" on="1"/>
      </contour>
      <contour>
        <pt x="291" y="780" on="1"/>
        <pt x="193" y="653" on="1"/>
        <pt x="131" y="653" on="1"/>
        <pt x="209" y="780" on="1"/>
      </contour>
    </TTGlyph>
    <TTGlyph name="Ydieresis" xMin="5" yMin="0" xMax="314" yMax="737">
      <contour>
        <pt x="196" y="0" on="1"/>
        <pt x="128" y="0" on="1"/>
        <pt x="128" y="190" on="1"/>
        <pt x="5" y="622" on="1"/>
        <pt x="74" y="622" on="1"/>
        <pt x="162" y="257" on="1"/>
        <pt x="245" y="622" on="1"/>
        <pt x="314" y="622" on="1"/>
        <pt x="196" y="190" on="1"/>
      </contour>
      <contour>
        <pt x="119" y="737" on="1"/>
        <pt x="119" y="653" on="1"/>
        <pt x="31" y="653" on="1"/>
        <pt x="31" y="737" on="1"/>
      </contour>
      <contour>
        <pt x="295" y="737" on="1"/>
        <pt x="295" y="653" on="1"/>
        <pt x="207" y="653" on="1"/>
        <pt x="207" y="737" on="1"/>
      </contour>
    </TTGlyph>
    <TTGlyph name="Z" xMin="5" yMin="0" xMax="268" yMax="623">
      <contour>
        <pt x="268" y="623" on="1"/>
        <pt x="268" y="564" on="1"/>
        <pt x="73" y="59" on="1"/>
        <pt x="263" y="59" on="1"/>
        <pt x="263" y="0" on="1"/>
        <pt x="5" y="0" on="1"/>
        <pt x="5" y="59" on="1"/>
        <pt x="200" y="564" on="1"/>
        <pt x="15" y="564" on="1"/>
        <pt x="15" y="623" on="1"/>
      </contour>
    </TTGlyph>
    <TTGlyph name="Zacute" xMin="5" yMin="0" xMax="276" yMax="780">
      <contour>
        <pt x="15" y="564" on="1"/>
        <pt x="15" y="623" on="1"/>
        <pt x="268" y="623" on="1"/>
        <pt x="268" y="564" on="1"/>
        <pt x="73" y="59" on="1"/>
        <pt x="263" y="59" on="1"/>
        <pt x="263" y="0" on="1"/>
        <pt x="5" y="0" on="1"/>
        <pt x="5" y="59" on="1"/>
        <pt x="200" y="564" on="1"/>
      </contour>
      <contour>
        <pt x="276" y="780" on="1"/>
        <pt x="178" y="653" on="1"/>
        <pt x="116" y="653" on="1"/>
        <pt x="194" y="780" on="1"/>
      </contour>
    </TTGlyph>
    <TTGlyph name="Zcaron" xMin="5" yMin="0" xMax="268" yMax="780">
      <contour>
        <pt x="268" y="623" on="1"/>
        <pt x="268" y="564" on="1"/>
        <pt x="73" y="59" on="1"/>
        <pt x="263" y="59" on="1"/>
        <pt x="263" y="0" on="1"/>
        <pt x="5" y="0" on="1"/>
        <pt x="5" y="59" on="1"/>
        <pt x="200" y="564" on="1"/>
        <pt x="15" y="564" on="1"/>
        <pt x="15" y="623" on="1"/>
      </contour>
      <contour>
        <pt x="182" y="653" on="1"/>
        <pt x="95" y="653" on="1"/>
        <pt x="10" y="780" on="1"/>
        <pt x="86" y="780" on="1"/>
        <pt x="138" y="696" on="1"/>
        <pt x="191" y="780" on="1"/>
        <pt x="267" y="780" on="1"/>
      </contour>
    </TTGlyph>
    <TTGlyph name="Zdotaccent" xMin="5" yMin="0" xMax="268" yMax="739">
      <contour>
        <pt x="268" y="623" on="1"/>
        <pt x="268" y="564" on="1"/>
        <pt x="73" y="59" on="1"/>
        <pt x="263" y="59" on="1"/>
        <pt x="263" y="0" on="1"/>
        <pt x="5" y="0" on="1"/>
        <pt x="5" y="59" on="1"/>
        <pt x="200" y="564" on="1"/>
        <pt x="15" y="564" on="1"/>
        <pt x="15" y="623" on="1"/>
      </contour>
      <contour>
        <pt x="190" y="739" on="1"/>
        <pt x="190" y="653" on="1"/>
        <pt x="98" y="653" on="1"/>
        <pt x="98" y="739" on="1"/>
      </contour>
    </TTGlyph>
    <TTGlyph name="a" xMin="40" yMin="0" xMax="283" yMax="485">
      <contour>
        <pt x="214" y="485" on="1"/>
        <pt x="283" y="485" on="1"/>
        <pt x="283" y="0" on="1"/>
        <pt x="214" y="0" on="1"/>
        <pt x="214" y="33" on="1"/>
        <pt x="203" y="0" on="0"/>
        <pt x="159" y="0" on="1"/>
        <pt x="119" y="0" on="1"/>
        <pt x="40" y="0" on="0"/>
        <pt x="40" y="79" on="1"/>
        <pt x="40" y="406" on="1"/>
        <pt x="40" y="485" on="0"/>
        <pt x="119" y="485" on="1"/>
        <pt x="159" y="485" on="1"/>
        <pt x="203" y="485" on="0"/>
        <pt x="214" y="452" on="1"/>
      </contour>
      <contour>
        <pt x="140" y="59" on="1"/>
        <pt x="180" y="59" on="1"/>
        <pt x="198" y="59" on="0"/>
        <pt x="214" y="75" on="0"/>
        <pt x="214" y="95" on="1"/>
        <pt x="214" y="390" on="1"/>
        <pt x="214" y="410" on="0"/>
        <pt x="198" y="426" on="0"/>
        <pt x="180" y="426" on="1"/>
        <pt x="140" y="426" on="1"/>
        <pt x="120" y="426" on="0"/>
        <pt x="109" y="414" on="0"/>
        <pt x="109" y="395" on="1"/>
        <pt x="109" y="90" on="1"/>
        <pt x="109" y="70" on="0"/>
        <pt x="120" y="59" on="0"/>
      </contour>
    </TTGlyph>
    <TTGlyph name="aacute" xMin="40" yMin="0" xMax="298" yMax="643">
      <contour>
        <pt x="214" y="485" on="1"/>
        <pt x="283" y="485" on="1"/>
        <pt x="283" y="0" on="1"/>
        <pt x="214" y="0" on="1"/>
        <pt x="214" y="33" on="1"/>
        <pt x="203" y="0" on="0"/>
        <pt x="159" y="0" on="1"/>
        <pt x="119" y="0" on="1"/>
        <pt x="40" y="0" on="0"/>
        <pt x="40" y="79" on="1"/>
        <pt x="40" y="406" on="1"/>
        <pt x="40" y="485" on="0"/>
        <pt x="119" y="485" on="1"/>
        <pt x="159" y="485" on="1"/>
        <pt x="203" y="485" on="0"/>
        <pt x="214" y="452" on="1"/>
      </contour>
      <contour>
        <pt x="140" y="59" on="1"/>
        <pt x="180" y="59" on="1"/>
        <pt x="198" y="59" on="0"/>
        <pt x="214" y="75" on="0"/>
        <pt x="214" y="95" on="1"/>
        <pt x="214" y="390" on="1"/>
        <pt x="214" y="410" on="0"/>
        <pt x="198" y="426" on="0"/>
        <pt x="180" y="426" on="1"/>
        <pt x="140" y="426" on="1"/>
        <pt x="120" y="426" on="0"/>
        <pt x="109" y="414" on="0"/>
        <pt x="109" y="395" on="1"/>
        <pt x="109" y="90" on="1"/>
        <pt x="109" y="70" on="0"/>
        <pt x="120" y="59" on="0"/>
      </contour>
      <contour>
        <pt x="298" y="643" on="1"/>
        <pt x="200" y="516" on="1"/>
        <pt x="138" y="516" on="1"/>
        <pt x="216" y="643" on="1"/>
      </contour>
    </TTGlyph>
    <TTGlyph name="abreve" xMin="32" yMin="0" xMax="292" yMax="643">
      <contour>
        <pt x="226" y="643" on="1"/>
        <pt x="292" y="643" on="1"/>
        <pt x="292" y="595" on="1"/>
        <pt x="292" y="516" on="0"/>
        <pt x="213" y="516" on="1"/>
        <pt x="111" y="516" on="1"/>
        <pt x="32" y="516" on="0"/>
        <pt x="32" y="595" on="1"/>
        <pt x="32" y="643" on="1"/>
        <pt x="98" y="643" on="1"/>
        <pt x="98" y="603" on="1"/>
        <pt x="98" y="584" on="0"/>
        <pt x="110" y="572" on="0"/>
        <pt x="129" y="572" on="1"/>
        <pt x="195" y="572" on="1"/>
        <pt x="214" y="572" on="0"/>
        <pt x="226" y="584" on="0"/>
        <pt x="226" y="603" on="1"/>
      </contour>
      <contour>
        <pt x="214" y="485" on="1"/>
        <pt x="283" y="485" on="1"/>
        <pt x="283" y="0" on="1"/>
        <pt x="214" y="0" on="1"/>
        <pt x="214" y="33" on="1"/>
        <pt x="203" y="0" on="0"/>
        <pt x="159" y="0" on="1"/>
        <pt x="119" y="0" on="1"/>
        <pt x="40" y="0" on="0"/>
        <pt x="40" y="79" on="1"/>
        <pt x="40" y="406" on="1"/>
        <pt x="40" y="485" on="0"/>
        <pt x="119" y="485" on="1"/>
        <pt x="159" y="485" on="1"/>
        <pt x="203" y="485" on="0"/>
        <pt x="214" y="452" on="1"/>
      </contour>
      <contour>
        <pt x="140" y="59" on="1"/>
        <pt x="180" y="59" on="1"/>
        <pt x="198" y="59" on="0"/>
        <pt x="214" y="75" on="0"/>
        <pt x="214" y="95" on="1"/>
        <pt x="214" y="390" on="1"/>
        <pt x="214" y="410" on="0"/>
        <pt x="198" y="426" on="0"/>
        <pt x="180" y="426" on="1"/>
        <pt x="140" y="426" on="1"/>
        <pt x="120" y="426" on="0"/>
        <pt x="109" y="414" on="0"/>
        <pt x="109" y="395" on="1"/>
        <pt x="109" y="90" on="1"/>
        <pt x="109" y="70" on="0"/>
        <pt x="120" y="59" on="0"/>
      </contour>
    </TTGlyph>
    <TTGlyph name="acircumflex" xMin="38" yMin="0" xMax="295" yMax="643">
      <contour>
        <pt x="214" y="485" on="1"/>
        <pt x="283" y="485" on="1"/>
        <pt x="283" y="0" on="1"/>
        <pt x="214" y="0" on="1"/>
        <pt x="214" y="33" on="1"/>
        <pt x="203" y="0" on="0"/>
        <pt x="159" y="0" on="1"/>
        <pt x="119" y="0" on="1"/>
        <pt x="40" y="0" on="0"/>
        <pt x="40" y="79" on="1"/>
        <pt x="40" y="406" on="1"/>
        <pt x="40" y="485" on="0"/>
        <pt x="119" y="485" on="1"/>
        <pt x="159" y="485" on="1"/>
        <pt x="203" y="485" on="0"/>
        <pt x="214" y="452" on="1"/>
      </contour>
      <contour>
        <pt x="140" y="59" on="1"/>
        <pt x="180" y="59" on="1"/>
        <pt x="198" y="59" on="0"/>
        <pt x="214" y="75" on="0"/>
        <pt x="214" y="95" on="1"/>
        <pt x="214" y="390" on="1"/>
        <pt x="214" y="410" on="0"/>
        <pt x="198" y="426" on="0"/>
        <pt x="180" y="426" on="1"/>
        <pt x="140" y="426" on="1"/>
        <pt x="120" y="426" on="0"/>
        <pt x="109" y="414" on="0"/>
        <pt x="109" y="395" on="1"/>
        <pt x="109" y="90" on="1"/>
        <pt x="109" y="70" on="0"/>
        <pt x="120" y="59" on="0"/>
      </contour>
      <contour>
        <pt x="166" y="600" on="1"/>
        <pt x="114" y="516" on="1"/>
        <pt x="38" y="516" on="1"/>
        <pt x="123" y="643" on="1"/>
        <pt x="210" y="643" on="1"/>
        <pt x="295" y="516" on="1"/>
        <pt x="219" y="516" on="1"/>
      </contour>
    </TTGlyph>
    <TTGlyph name="acute" xMin="118" yMin="516" xMax="278" yMax="643">
      <contour>
        <pt x="118" y="516" on="1"/>
        <pt x="196" y="643" on="1"/>
        <pt x="278" y="643" on="1"/>
        <pt x="180" y="516" on="1"/>
      </contour>
    </TTGlyph>
    <TTGlyph name="adieresis" xMin="28" yMin="0" xMax="292" yMax="625">
      <contour>
        <pt x="204" y="625" on="1"/>
        <pt x="292" y="625" on="1"/>
        <pt x="292" y="541" on="1"/>
        <pt x="204" y="541" on="1"/>
      </contour>
      <contour>
        <pt x="214" y="485" on="1"/>
        <pt x="283" y="485" on="1"/>
        <pt x="283" y="0" on="1"/>
        <pt x="214" y="0" on="1"/>
        <pt x="214" y="33" on="1"/>
        <pt x="203" y="0" on="0"/>
        <pt x="159" y="0" on="1"/>
        <pt x="119" y="0" on="1"/>
        <pt x="40" y="0" on="0"/>
        <pt x="40" y="79" on="1"/>
        <pt x="40" y="406" on="1"/>
        <pt x="40" y="485" on="0"/>
        <pt x="119" y="485" on="1"/>
        <pt x="159" y="485" on="1"/>
        <pt x="203" y="485" on="0"/>
        <pt x="214" y="452" on="1"/>
      </contour>
      <contour>
        <pt x="140" y="59" on="1"/>
        <pt x="180" y="59" on="1"/>
        <pt x="198" y="59" on="0"/>
        <pt x="214" y="75" on="0"/>
        <pt x="214" y="95" on="1"/>
        <pt x="214" y="390" on="1"/>
        <pt x="214" y="410" on="0"/>
        <pt x="198" y="426" on="0"/>
        <pt x="180" y="426" on="1"/>
        <pt x="140" y="426" on="1"/>
        <pt x="120" y="426" on="0"/>
        <pt x="109" y="414" on="0"/>
        <pt x="109" y="395" on="1"/>
        <pt x="109" y="90" on="1"/>
        <pt x="109" y="70" on="0"/>
        <pt x="120" y="59" on="0"/>
      </contour>
      <contour>
        <pt x="116" y="625" on="1"/>
        <pt x="116" y="541" on="1"/>
        <pt x="28" y="541" on="1"/>
        <pt x="28" y="625" on="1"/>
      </contour>
    </TTGlyph>
    <TTGlyph name="ae" xMin="45" yMin="0" xMax="469" yMax="485">
      <contour>
        <pt x="288" y="219" on="1"/>
        <pt x="288" y="90" on="1"/>
        <pt x="288" y="70" on="0"/>
        <pt x="300" y="59" on="0"/>
        <pt x="319" y="59" on="1"/>
        <pt x="366" y="59" on="1"/>
        <pt x="386" y="59" on="0"/>
        <pt x="397" y="70" on="0"/>
        <pt x="397" y="90" on="1"/>
        <pt x="397" y="134" on="1"/>
        <pt x="466" y="134" on="1"/>
        <pt x="466" y="79" on="1"/>
        <pt x="466" y="0" on="0"/>
        <pt x="387" y="0" on="1"/>
        <pt x="307" y="0" on="1"/>
        <pt x="287" y="0" on="0"/>
        <pt x="256" y="23" on="0"/>
        <pt x="252" y="38" on="1"/>
        <pt x="248" y="23" on="0"/>
        <pt x="217" y="0" on="0"/>
        <pt x="195" y="0" on="1"/>
        <pt x="124" y="0" on="1"/>
        <pt x="45" y="0" on="0"/>
        <pt x="45" y="79" on="1"/>
        <pt x="45" y="200" on="1"/>
        <pt x="219" y="271" on="1"/>
        <pt x="219" y="396" on="1"/>
        <pt x="216" y="426" on="0"/>
        <pt x="185" y="426" on="1"/>
        <pt x="145" y="426" on="1"/>
        <pt x="126" y="426" on="0"/>
        <pt x="114" y="414" on="0"/>
        <pt x="114" y="395" on="1"/>
        <pt x="114" y="312" on="1"/>
        <pt x="45" y="312" on="1"/>
        <pt x="45" y="406" on="1"/>
        <pt x="45" y="485" on="0"/>
        <pt x="124" y="485" on="1"/>
        <pt x="195" y="485" on="1"/>
        <pt x="217" y="485" on="0"/>
        <pt x="248" y="462" on="0"/>
        <pt x="252" y="447" on="1"/>
        <pt x="256" y="462" on="0"/>
        <pt x="287" y="485" on="0"/>
        <pt x="307" y="485" on="1"/>
        <pt x="390" y="485" on="1"/>
        <pt x="469" y="485" on="0"/>
        <pt x="469" y="406" on="1"/>
        <pt x="469" y="219" on="1"/>
      </contour>
      <contour>
        <pt x="369" y="426" on="1"/>
        <pt x="319" y="426" on="1"/>
        <pt x="300" y="426" on="0"/>
        <pt x="288" y="414" on="0"/>
        <pt x="288" y="395" on="1"/>
        <pt x="288" y="278" on="1"/>
        <pt x="400" y="278" on="1"/>
        <pt x="400" y="395" on="1"/>
        <pt x="400" y="414" on="0"/>
        <pt x="388" y="426" on="0"/>
      </contour>
      <contour>
        <pt x="145" y="59" on="1"/>
        <pt x="185" y="59" on="1"/>
        <pt x="202" y="59" on="0"/>
        <pt x="218" y="72" on="0"/>
        <pt x="219" y="89" on="1"/>
        <pt x="219" y="208" on="1"/>
        <pt x="114" y="166" on="1"/>
        <pt x="114" y="90" on="1"/>
        <pt x="114" y="70" on="0"/>
        <pt x="126" y="59" on="0"/>
      </contour>
    </TTGlyph>
    <TTGlyph name="agrave" xMin="40" yMin="0" xMax="283" yMax="643">
      <contour>
        <pt x="214" y="485" on="1"/>
        <pt x="283" y="485" on="1"/>
        <pt x="283" y="0" on="1"/>
        <pt x="214" y="0" on="1"/>
        <pt x="214" y="33" on="1"/>
        <pt x="203" y="0" on="0"/>
        <pt x="159" y="0" on="1"/>
        <pt x="119" y="0" on="1"/>
        <pt x="40" y="0" on="0"/>
        <pt x="40" y="79" on="1"/>
        <pt x="40" y="406" on="1"/>
        <pt x="40" y="485" on="0"/>
        <pt x="119" y="485" on="1"/>
        <pt x="159" y="485" on="1"/>
        <pt x="203" y="485" on="0"/>
        <pt x="214" y="452" on="1"/>
      </contour>
      <contour>
        <pt x="140" y="59" on="1"/>
        <pt x="180" y="59" on="1"/>
        <pt x="198" y="59" on="0"/>
        <pt x="214" y="75" on="0"/>
        <pt x="214" y="95" on="1"/>
        <pt x="214" y="390" on="1"/>
        <pt x="214" y="410" on="0"/>
        <pt x="198" y="426" on="0"/>
        <pt x="180" y="426" on="1"/>
        <pt x="140" y="426" on="1"/>
        <pt x="120" y="426" on="0"/>
        <pt x="109" y="414" on="0"/>
        <pt x="109" y="395" on="1"/>
        <pt x="109" y="90" on="1"/>
        <pt x="109" y="70" on="0"/>
        <pt x="120" y="59" on="0"/>
      </contour>
      <contour>
        <pt x="221" y="516" on="1"/>
        <pt x="159" y="516" on="1"/>
        <pt x="61" y="643" on="1"/>
        <pt x="143" y="643" on="1"/>
      </contour>
    </TTGlyph>
    <TTGlyph name="amacron" xMin="40" yMin="0" xMax="283" yMax="608">
      <contour>
        <pt x="214" y="485" on="1"/>
        <pt x="283" y="485" on="1"/>
        <pt x="283" y="0" on="1"/>
        <pt x="214" y="0" on="1"/>
        <pt x="214" y="33" on="1"/>
        <pt x="203" y="0" on="0"/>
        <pt x="159" y="0" on="1"/>
        <pt x="119" y="0" on="1"/>
        <pt x="40" y="0" on="0"/>
        <pt x="40" y="79" on="1"/>
        <pt x="40" y="406" on="1"/>
        <pt x="40" y="485" on="0"/>
        <pt x="119" y="485" on="1"/>
        <pt x="159" y="485" on="1"/>
        <pt x="203" y="485" on="0"/>
        <pt x="214" y="452" on="1"/>
      </contour>
      <contour>
        <pt x="140" y="59" on="1"/>
        <pt x="180" y="59" on="1"/>
        <pt x="198" y="59" on="0"/>
        <pt x="214" y="75" on="0"/>
        <pt x="214" y="95" on="1"/>
        <pt x="214" y="390" on="1"/>
        <pt x="214" y="410" on="0"/>
        <pt x="198" y="426" on="0"/>
        <pt x="180" y="426" on="1"/>
        <pt x="140" y="426" on="1"/>
        <pt x="120" y="426" on="0"/>
        <pt x="109" y="414" on="0"/>
        <pt x="109" y="395" on="1"/>
        <pt x="109" y="90" on="1"/>
        <pt x="109" y="70" on="0"/>
        <pt x="120" y="59" on="0"/>
      </contour>
      <contour>
        <pt x="278" y="608" on="1"/>
        <pt x="278" y="550" on="1"/>
        <pt x="42" y="550" on="1"/>
        <pt x="42" y="608" on="1"/>
      </contour>
    </TTGlyph>
    <TTGlyph name="ampersand" xMin="40" yMin="-35" xMax="475" yMax="622">
      <contour>
        <pt x="311" y="0" on="1"/>
        <pt x="119" y="0" on="1"/>
        <pt x="40" y="0" on="0"/>
        <pt x="40" y="79" on="1"/>
        <pt x="40" y="195" on="1"/>
        <pt x="40" y="223" on="0"/>
        <pt x="63" y="261" on="0"/>
        <pt x="92" y="281" on="1"/>
        <pt x="126" y="307" on="1"/>
        <pt x="103" y="337" on="0"/>
        <pt x="82" y="367" on="0"/>
        <pt x="60" y="418" on="0"/>
        <pt x="60" y="440" on="1"/>
        <pt x="60" y="543" on="1"/>
        <pt x="60" y="622" on="0"/>
        <pt x="139" y="622" on="1"/>
        <pt x="231" y="622" on="1"/>
        <pt x="310" y="622" on="0"/>
        <pt x="310" y="543" on="1"/>
        <pt x="310" y="444" on="1"/>
        <pt x="310" y="394" on="0"/>
        <pt x="277" y="334" on="0"/>
        <pt x="241" y="311" on="1"/>
        <pt x="217" y="294" on="1"/>
        <pt x="334" y="145" on="1"/>
        <pt x="334" y="224" on="1"/>
        <pt x="390" y="224" on="1"/>
        <pt x="390" y="73" on="1"/>
        <pt x="475" y="-35" on="1"/>
        <pt x="400" y="-35" on="1"/>
        <pt x="362" y="13" on="1"/>
        <pt x="343" y="0" on="0"/>
      </contour>
      <contour>
        <pt x="128" y="532" on="1"/>
        <pt x="128" y="434" on="1"/>
        <pt x="128" y="402" on="0"/>
        <pt x="176" y="346" on="1"/>
        <pt x="185" y="353" on="1"/>
        <pt x="216" y="375" on="0"/>
        <pt x="242" y="413" on="0"/>
        <pt x="242" y="444" on="1"/>
        <pt x="242" y="532" on="1"/>
        <pt x="242" y="552" on="0"/>
        <pt x="230" y="563" on="0"/>
        <pt x="211" y="563" on="1"/>
        <pt x="159" y="563" on="1"/>
        <pt x="140" y="563" on="0"/>
        <pt x="128" y="552" on="0"/>
      </contour>
      <contour>
        <pt x="139" y="59" on="1"/>
        <pt x="303" y="59" on="1"/>
        <pt x="313" y="59" on="0"/>
        <pt x="323" y="61" on="1"/>
        <pt x="166" y="257" on="1"/>
        <pt x="139" y="238" on="1"/>
        <pt x="121" y="226" on="0"/>
        <pt x="108" y="202" on="0"/>
        <pt x="108" y="177" on="1"/>
        <pt x="108" y="90" on="1"/>
        <pt x="108" y="70" on="0"/>
        <pt x="120" y="59" on="0"/>
      </contour>
    </TTGlyph>
    <TTGlyph name="aogonek" xMin="40" yMin="-212" xMax="301" yMax="485">
      <contour>
        <pt x="223" y="-158" on="1"/>
        <pt x="301" y="-158" on="1"/>
        <pt x="301" y="-212" on="1"/>
        <pt x="209" y="-212" on="1"/>
        <pt x="130" y="-212" on="0"/>
        <pt x="130" y="-133" on="1"/>
        <pt x="130" y="-104" on="1"/>
        <pt x="130" y="-25" on="0"/>
        <pt x="209" y="-25" on="1"/>
        <pt x="217" y="-25" on="1"/>
        <pt x="217" y="0" on="1"/>
        <pt x="214" y="0" on="1"/>
        <pt x="214" y="33" on="1"/>
        <pt x="203" y="0" on="0"/>
        <pt x="159" y="0" on="1"/>
        <pt x="119" y="0" on="1"/>
        <pt x="40" y="0" on="0"/>
        <pt x="40" y="79" on="1"/>
        <pt x="40" y="406" on="1"/>
        <pt x="40" y="485" on="0"/>
        <pt x="119" y="485" on="1"/>
        <pt x="159" y="485" on="1"/>
        <pt x="203" y="485" on="0"/>
        <pt x="214" y="452" on="1"/>
        <pt x="214" y="485" on="1"/>
        <pt x="283" y="485" on="1"/>
        <pt x="283" y="-78" on="1"/>
        <pt x="223" y="-78" on="1"/>
        <pt x="203" y="-78" on="0"/>
        <pt x="191" y="-89" on="0"/>
        <pt x="191" y="-108" on="1"/>
        <pt x="191" y="-128" on="1"/>
        <pt x="191" y="-147" on="0"/>
        <pt x="203" y="-158" on="0"/>
      </contour>
      <contour>
        <pt x="140" y="59" on="1"/>
        <pt x="180" y="59" on="1"/>
        <pt x="198" y="59" on="0"/>
        <pt x="214" y="75" on="0"/>
        <pt x="214" y="95" on="1"/>
        <pt x="214" y="390" on="1"/>
        <pt x="214" y="410" on="0"/>
        <pt x="198" y="426" on="0"/>
        <pt x="180" y="426" on="1"/>
        <pt x="140" y="426" on="1"/>
        <pt x="120" y="426" on="0"/>
        <pt x="109" y="414" on="0"/>
        <pt x="109" y="395" on="1"/>
        <pt x="109" y="90" on="1"/>
        <pt x="109" y="70" on="0"/>
        <pt x="120" y="59" on="0"/>
      </contour>
    </TTGlyph>
    <TTGlyph name="approxequal" xMin="51" yMin="216" xMax="421" yMax="523">
      <contour>
        <pt x="317" y="216" on="1"/>
        <pt x="285" y="216" on="0"/>
        <pt x="235" y="242" on="0"/>
        <pt x="222" y="257" on="1"/>
        <pt x="185" y="298" on="0"/>
        <pt x="145" y="298" on="1"/>
        <pt x="127" y="298" on="0"/>
        <pt x="115" y="281" on="0"/>
        <pt x="115" y="264" on="1"/>
        <pt x="115" y="217" on="1"/>
        <pt x="51" y="217" on="1"/>
        <pt x="51" y="277" on="1"/>
        <pt x="51" y="353" on="0"/>
        <pt x="128" y="353" on="1"/>
        <pt x="157" y="353" on="1"/>
        <pt x="184" y="353" on="0"/>
        <pt x="230" y="327" on="0"/>
        <pt x="258" y="297" on="0"/>
        <pt x="304" y="271" on="0"/>
        <pt x="347" y="271" on="0"/>
        <pt x="357" y="287" on="0"/>
        <pt x="357" y="306" on="1"/>
        <pt x="357" y="352" on="1"/>
        <pt x="421" y="352" on="1"/>
        <pt x="421" y="292" on="1"/>
        <pt x="421" y="216" on="0"/>
        <pt x="343" y="216" on="1"/>
      </contour>
      <contour>
        <pt x="317" y="386" on="1"/>
        <pt x="285" y="386" on="0"/>
        <pt x="235" y="412" on="0"/>
        <pt x="222" y="427" on="1"/>
        <pt x="185" y="468" on="0"/>
        <pt x="145" y="468" on="1"/>
        <pt x="127" y="468" on="0"/>
        <pt x="115" y="451" on="0"/>
        <pt x="115" y="434" on="1"/>
        <pt x="115" y="387" on="1"/>
        <pt x="51" y="387" on="1"/>
        <pt x="51" y="447" on="1"/>
        <pt x="51" y="523" on="0"/>
        <pt x="128" y="523" on="1"/>
        <pt x="157" y="523" on="1"/>
        <pt x="184" y="523" on="0"/>
        <pt x="230" y="497" on="0"/>
        <pt x="258" y="467" on="0"/>
        <pt x="304" y="441" on="0"/>
        <pt x="347" y="441" on="0"/>
        <pt x="357" y="457" on="0"/>
        <pt x="357" y="476" on="1"/>
        <pt x="357" y="522" on="1"/>
        <pt x="421" y="522" on="1"/>
        <pt x="421" y="462" on="1"/>
        <pt x="421" y="386" on="0"/>
        <pt x="343" y="386" on="1"/>
      </contour>
    </TTGlyph>
    <TTGlyph name="aring" xMin="40" yMin="0" xMax="283" yMax="674">
      <contour>
        <pt x="214" y="485" on="1"/>
        <pt x="283" y="485" on="1"/>
        <pt x="283" y="0" on="1"/>
        <pt x="214" y="0" on="1"/>
        <pt x="214" y="33" on="1"/>
        <pt x="203" y="0" on="0"/>
        <pt x="159" y="0" on="1"/>
        <pt x="119" y="0" on="1"/>
        <pt x="40" y="0" on="0"/>
        <pt x="40" y="79" on="1"/>
        <pt x="40" y="406" on="1"/>
        <pt x="40" y="485" on="0"/>
        <pt x="119" y="485" on="1"/>
        <pt x="159" y="485" on="1"/>
        <pt x="203" y="485" on="0"/>
        <pt x="214" y="452" on="1"/>
      </contour>
      <contour>
        <pt x="140" y="59" on="1"/>
        <pt x="180" y="59" on="1"/>
        <pt x="198" y="59" on="0"/>
        <pt x="214" y="75" on="0"/>
        <pt x="214" y="95" on="1"/>
        <pt x="214" y="390" on="1"/>
        <pt x="214" y="410" on="0"/>
        <pt x="198" y="426" on="0"/>
        <pt x="180" y="426" on="1"/>
        <pt x="140" y="426" on="1"/>
        <pt x="120" y="426" on="0"/>
        <pt x="109" y="414" on="0"/>
        <pt x="109" y="395" on="1"/>
        <pt x="109" y="90" on="1"/>
        <pt x="109" y="70" on="0"/>
        <pt x="120" y="59" on="0"/>
      </contour>
      <contour>
        <pt x="198" y="527" on="1"/>
        <pt x="138" y="527" on="1"/>
        <pt x="73" y="527" on="0"/>
        <pt x="73" y="592" on="1"/>
        <pt x="73" y="609" on="1"/>
        <pt x="73" y="674" on="0"/>
        <pt x="138" y="674" on="1"/>
        <pt x="198" y="674" on="1"/>
        <pt x="263" y="674" on="0"/>
        <pt x="263" y="609" on="1"/>
        <pt x="263" y="592" on="1"/>
        <pt x="263" y="527" on="0"/>
      </contour>
      <contour>
        <pt x="124" y="603" on="1"/>
        <pt x="124" y="598" on="1"/>
        <pt x="124" y="581" on="0"/>
        <pt x="134" y="571" on="0"/>
        <pt x="152" y="571" on="1"/>
        <pt x="184" y="571" on="1"/>
        <pt x="202" y="571" on="0"/>
        <pt x="212" y="581" on="0"/>
        <pt x="212" y="598" on="1"/>
        <pt x="212" y="603" on="1"/>
        <pt x="212" y="620" on="0"/>
        <pt x="202" y="630" on="0"/>
        <pt x="184" y="630" on="1"/>
        <pt x="152" y="630" on="1"/>
        <pt x="134" y="630" on="0"/>
        <pt x="124" y="620" on="0"/>
      </contour>
    </TTGlyph>
    <TTGlyph name="asciicircum" xMin="45" yMin="327" xMax="398" yMax="671">
      <contour>
        <pt x="180" y="671" on="1"/>
        <pt x="263" y="671" on="1"/>
        <pt x="398" y="327" on="1"/>
        <pt x="326" y="327" on="1"/>
        <pt x="221" y="604" on="1"/>
        <pt x="117" y="327" on="1"/>
        <pt x="45" y="327" on="1"/>
      </contour>
    </TTGlyph>
    <TTGlyph name="asciitilde" xMin="52" yMin="216" xMax="422" yMax="353">
      <contour>
        <pt x="318" y="216" on="1"/>
        <pt x="286" y="216" on="0"/>
        <pt x="236" y="242" on="0"/>
        <pt x="222" y="257" on="1"/>
        <pt x="186" y="298" on="0"/>
        <pt x="146" y="298" on="1"/>
        <pt x="128" y="298" on="0"/>
        <pt x="116" y="281" on="0"/>
        <pt x="116" y="264" on="1"/>
        <pt x="116" y="217" on="1"/>
        <pt x="52" y="217" on="1"/>
        <pt x="52" y="277" on="1"/>
        <pt x="52" y="353" on="0"/>
        <pt x="129" y="353" on="1"/>
        <pt x="158" y="353" on="1"/>
        <pt x="185" y="353" on="0"/>
        <pt x="231" y="327" on="0"/>
        <pt x="259" y="297" on="0"/>
        <pt x="305" y="271" on="0"/>
        <pt x="348" y="271" on="0"/>
        <pt x="358" y="287" on="0"/>
        <pt x="358" y="306" on="1"/>
        <pt x="358" y="352" on="1"/>
        <pt x="422" y="352" on="1"/>
        <pt x="422" y="292" on="1"/>
        <pt x="422" y="216" on="0"/>
        <pt x="344" y="216" on="1"/>
      </contour>
    </TTGlyph>
    <TTGlyph name="asterisk" xMin="15" yMin="363" xMax="287" yMax="622">
      <contour>
        <pt x="120" y="581" on="1"/>
        <pt x="120" y="622" on="1"/>
        <pt x="182" y="622" on="1"/>
        <pt x="182" y="581" on="1"/>
        <pt x="182" y="548" on="0"/>
        <pt x="177" y="525" on="1"/>
        <pt x="204" y="539" on="0"/>
        <pt x="267" y="559" on="1"/>
        <pt x="287" y="500" on="1"/>
        <pt x="218" y="479" on="0"/>
        <pt x="193" y="476" on="1"/>
        <pt x="213" y="458" on="0"/>
        <pt x="230" y="433" on="1"/>
        <pt x="254" y="400" on="1"/>
        <pt x="204" y="363" on="1"/>
        <pt x="160" y="426" on="0"/>
        <pt x="151" y="445" on="1"/>
        <pt x="139" y="419" on="0"/>
        <pt x="122" y="396" on="1"/>
        <pt x="98" y="363" on="1"/>
        <pt x="47" y="400" on="1"/>
        <pt x="91" y="458" on="0"/>
        <pt x="109" y="475" on="1"/>
        <pt x="79" y="480" on="0"/>
        <pt x="15" y="501" on="1"/>
        <pt x="34" y="560" on="1"/>
        <pt x="73" y="547" on="1"/>
        <pt x="96" y="540" on="0"/>
        <pt x="125" y="524" on="1"/>
        <pt x="120" y="549" on="0"/>
      </contour>
    </TTGlyph>
    <TTGlyph name="at" xMin="85" yMin="-61" xMax="605" yMax="564">
      <contour>
        <pt x="298" y="337" on="1"/>
        <pt x="298" y="171" on="1"/>
        <pt x="298" y="152" on="0"/>
        <pt x="310" y="140" on="0"/>
        <pt x="329" y="140" on="1"/>
        <pt x="359" y="140" on="1"/>
        <pt x="377" y="140" on="0"/>
        <pt x="393" y="156" on="0"/>
        <pt x="393" y="176" on="1"/>
        <pt x="393" y="332" on="1"/>
        <pt x="393" y="352" on="0"/>
        <pt x="377" y="368" on="0"/>
        <pt x="359" y="368" on="1"/>
        <pt x="329" y="368" on="1"/>
        <pt x="310" y="368" on="0"/>
        <pt x="298" y="356" on="0"/>
      </contour>
      <contour>
        <pt x="229" y="348" on="1"/>
        <pt x="229" y="427" on="0"/>
        <pt x="308" y="427" on="1"/>
        <pt x="338" y="427" on="1"/>
        <pt x="382" y="427" on="0"/>
        <pt x="393" y="393" on="1"/>
        <pt x="393" y="427" on="1"/>
        <pt x="461" y="427" on="1"/>
        <pt x="461" y="140" on="1"/>
        <pt x="506" y="140" on="1"/>
        <pt x="526" y="140" on="0"/>
        <pt x="537" y="152" on="0"/>
        <pt x="537" y="171" on="1"/>
        <pt x="537" y="471" on="1"/>
        <pt x="537" y="491" on="0"/>
        <pt x="525" y="503" on="0"/>
        <pt x="506" y="503" on="1"/>
        <pt x="185" y="503" on="1"/>
        <pt x="166" y="503" on="0"/>
        <pt x="154" y="491" on="0"/>
        <pt x="154" y="471" on="1"/>
        <pt x="154" y="31" on="1"/>
        <pt x="154" y="12" on="0"/>
        <pt x="166" y="0" on="0"/>
        <pt x="185" y="0" on="1"/>
        <pt x="462" y="0" on="1"/>
        <pt x="462" y="-61" on="1"/>
        <pt x="164" y="-61" on="1"/>
        <pt x="85" y="-61" on="0"/>
        <pt x="85" y="18" on="1"/>
        <pt x="85" y="485" on="1"/>
        <pt x="85" y="564" on="0"/>
        <pt x="164" y="564" on="1"/>
        <pt x="526" y="564" on="1"/>
        <pt x="605" y="564" on="0"/>
        <pt x="605" y="485" on="1"/>
        <pt x="605" y="160" on="1"/>
        <pt x="605" y="81" on="0"/>
        <pt x="526" y="81" on="1"/>
        <pt x="400" y="81" on="1"/>
        <pt x="400" y="130" on="1"/>
        <pt x="395" y="81" on="0"/>
        <pt x="338" y="81" on="1"/>
        <pt x="308" y="81" on="1"/>
        <pt x="229" y="81" on="0"/>
        <pt x="229" y="160" on="1"/>
      </contour>
    </TTGlyph>
    <TTGlyph name="atilde" xMin="34" yMin="0" xMax="284" yMax="624">
      <contour>
        <pt x="222" y="624" on="1"/>
        <pt x="284" y="624" on="1"/>
        <pt x="284" y="610" on="1"/>
        <pt x="284" y="573" on="0"/>
        <pt x="253" y="534" on="0"/>
        <pt x="213" y="534" on="1"/>
        <pt x="208" y="534" on="1"/>
        <pt x="184" y="534" on="0"/>
        <pt x="123" y="569" on="0"/>
        <pt x="113" y="569" on="1"/>
        <pt x="96" y="569" on="0"/>
        <pt x="96" y="545" on="1"/>
        <pt x="96" y="534" on="1"/>
        <pt x="34" y="534" on="1"/>
        <pt x="34" y="548" on="1"/>
        <pt x="34" y="585" on="0"/>
        <pt x="67" y="624" on="0"/>
        <pt x="106" y="624" on="1"/>
        <pt x="112" y="624" on="1"/>
        <pt x="135" y="624" on="0"/>
        <pt x="193" y="589" on="0"/>
        <pt x="214" y="589" on="0"/>
        <pt x="222" y="599" on="0"/>
        <pt x="222" y="614" on="1"/>
      </contour>
      <contour>
        <pt x="214" y="485" on="1"/>
        <pt x="283" y="485" on="1"/>
        <pt x="283" y="0" on="1"/>
        <pt x="214" y="0" on="1"/>
        <pt x="214" y="33" on="1"/>
        <pt x="203" y="0" on="0"/>
        <pt x="159" y="0" on="1"/>
        <pt x="119" y="0" on="1"/>
        <pt x="40" y="0" on="0"/>
        <pt x="40" y="79" on="1"/>
        <pt x="40" y="406" on="1"/>
        <pt x="40" y="485" on="0"/>
        <pt x="119" y="485" on="1"/>
        <pt x="159" y="485" on="1"/>
        <pt x="203" y="485" on="0"/>
        <pt x="214" y="452" on="1"/>
      </contour>
      <contour>
        <pt x="140" y="59" on="1"/>
        <pt x="180" y="59" on="1"/>
        <pt x="198" y="59" on="0"/>
        <pt x="214" y="75" on="0"/>
        <pt x="214" y="95" on="1"/>
        <pt x="214" y="390" on="1"/>
        <pt x="214" y="410" on="0"/>
        <pt x="198" y="426" on="0"/>
        <pt x="180" y="426" on="1"/>
        <pt x="140" y="426" on="1"/>
        <pt x="120" y="426" on="0"/>
        <pt x="109" y="414" on="0"/>
        <pt x="109" y="395" on="1"/>
        <pt x="109" y="90" on="1"/>
        <pt x="109" y="70" on="0"/>
        <pt x="120" y="59" on="0"/>
      </contour>
    </TTGlyph>
    <TTGlyph name="b" xMin="45" yMin="0" xMax="288" yMax="669">
      <contour>
        <pt x="169" y="486" on="1"/>
        <pt x="209" y="486" on="1"/>
        <pt x="288" y="486" on="0"/>
        <pt x="288" y="407" on="1"/>
        <pt x="288" y="79" on="1"/>
        <pt x="288" y="0" on="0"/>
        <pt x="209" y="0" on="1"/>
        <pt x="169" y="0" on="1"/>
        <pt x="125" y="0" on="0"/>
        <pt x="114" y="33" on="1"/>
        <pt x="114" y="0" on="1"/>
        <pt x="45" y="0" on="1"/>
        <pt x="45" y="669" on="1"/>
        <pt x="114" y="669" on="1"/>
        <pt x="114" y="453" on="1"/>
        <pt x="125" y="486" on="0"/>
      </contour>
      <contour>
        <pt x="219" y="90" on="1"/>
        <pt x="219" y="396" on="1"/>
        <pt x="219" y="416" on="0"/>
        <pt x="208" y="427" on="0"/>
        <pt x="188" y="427" on="1"/>
        <pt x="148" y="427" on="1"/>
        <pt x="130" y="427" on="0"/>
        <pt x="114" y="411" on="0"/>
        <pt x="114" y="391" on="1"/>
        <pt x="114" y="95" on="1"/>
        <pt x="114" y="75" on="0"/>
        <pt x="130" y="59" on="0"/>
        <pt x="148" y="59" on="1"/>
        <pt x="188" y="59" on="1"/>
        <pt x="208" y="59" on="0"/>
        <pt x="219" y="70" on="0"/>
      </contour>
    </TTGlyph>
    <TTGlyph name="backslash" xMin="44" yMin="-136" xMax="377" yMax="699">
      <contour>
        <pt x="44" y="699" on="1"/>
        <pt x="113" y="699" on="1"/>
        <pt x="377" y="-136" on="1"/>
        <pt x="308" y="-136" on="1"/>
      </contour>
    </TTGlyph>
    <TTGlyph name="bar" xMin="55" yMin="-98" xMax="124" yMax="719">
      <contour>
        <pt x="55" y="719" on="1"/>
        <pt x="124" y="719" on="1"/>
        <pt x="124" y="-98" on="1"/>
        <pt x="55" y="-98" on="1"/>
      </contour>
    </TTGlyph>
    <TTGlyph name="braceleft" xMin="5" yMin="-166" xMax="264" yMax="781">
      <contour>
        <pt x="180" y="689" on="1"/>
        <pt x="180" y="428" on="1"/>
        <pt x="180" y="317" on="0"/>
        <pt x="105" y="308" on="1"/>
        <pt x="180" y="298" on="0"/>
        <pt x="180" y="189" on="1"/>
        <pt x="180" y="-74" on="1"/>
        <pt x="180" y="-92" on="0"/>
        <pt x="195" y="-107" on="0"/>
        <pt x="214" y="-107" on="1"/>
        <pt x="264" y="-107" on="1"/>
        <pt x="264" y="-166" on="1"/>
        <pt x="181" y="-166" on="1"/>
        <pt x="141" y="-166" on="0"/>
        <pt x="112" y="-127" on="0"/>
        <pt x="112" y="-88" on="1"/>
        <pt x="112" y="163" on="1"/>
        <pt x="112" y="223" on="0"/>
        <pt x="70" y="279" on="0"/>
        <pt x="24" y="279" on="1"/>
        <pt x="5" y="279" on="1"/>
        <pt x="5" y="337" on="1"/>
        <pt x="24" y="337" on="1"/>
        <pt x="70" y="337" on="0"/>
        <pt x="112" y="393" on="0"/>
        <pt x="112" y="454" on="1"/>
        <pt x="112" y="703" on="1"/>
        <pt x="112" y="742" on="0"/>
        <pt x="142" y="781" on="0"/>
        <pt x="181" y="781" on="1"/>
        <pt x="264" y="781" on="1"/>
        <pt x="264" y="722" on="1"/>
        <pt x="214" y="722" on="1"/>
        <pt x="195" y="722" on="0"/>
        <pt x="180" y="707" on="0"/>
      </contour>
    </TTGlyph>
    <TTGlyph name="braceright" xMin="6" yMin="-166" xMax="265" yMax="781">
      <contour>
        <pt x="90" y="428" on="1"/>
        <pt x="90" y="689" on="1"/>
        <pt x="90" y="707" on="0"/>
        <pt x="75" y="722" on="0"/>
        <pt x="56" y="722" on="1"/>
        <pt x="6" y="722" on="1"/>
        <pt x="6" y="781" on="1"/>
        <pt x="89" y="781" on="1"/>
        <pt x="128" y="781" on="0"/>
        <pt x="158" y="742" on="0"/>
        <pt x="158" y="703" on="1"/>
        <pt x="158" y="454" on="1"/>
        <pt x="158" y="393" on="0"/>
        <pt x="200" y="337" on="0"/>
        <pt x="246" y="337" on="1"/>
        <pt x="265" y="337" on="1"/>
        <pt x="265" y="279" on="1"/>
        <pt x="246" y="279" on="1"/>
        <pt x="200" y="279" on="0"/>
        <pt x="158" y="223" on="0"/>
        <pt x="158" y="163" on="1"/>
        <pt x="158" y="-88" on="1"/>
        <pt x="158" y="-127" on="0"/>
        <pt x="129" y="-166" on="0"/>
        <pt x="89" y="-166" on="1"/>
        <pt x="6" y="-166" on="1"/>
        <pt x="6" y="-107" on="1"/>
        <pt x="56" y="-107" on="1"/>
        <pt x="75" y="-107" on="0"/>
        <pt x="90" y="-92" on="0"/>
        <pt x="90" y="-74" on="1"/>
        <pt x="90" y="189" on="1"/>
        <pt x="90" y="298" on="0"/>
        <pt x="165" y="308" on="1"/>
        <pt x="90" y="317" on="0"/>
      </contour>
    </TTGlyph>
    <TTGlyph name="bracketleft" xMin="63" yMin="-167" xMax="233" yMax="781">
      <contour>
        <pt x="233" y="722" on="1"/>
        <pt x="132" y="722" on="1"/>
        <pt x="132" y="-108" on="1"/>
        <pt x="233" y="-108" on="1"/>
        <pt x="233" y="-167" on="1"/>
        <pt x="63" y="-167" on="1"/>
        <pt x="63" y="781" on="1"/>
        <pt x="233" y="781" on="1"/>
      </contour>
    </TTGlyph>
    <TTGlyph name="bracketright" xMin="53" yMin="-167" xMax="223" yMax="781">
      <contour>
        <pt x="223" y="781" on="1"/>
        <pt x="223" y="-167" on="1"/>
        <pt x="53" y="-167" on="1"/>
        <pt x="53" y="-108" on="1"/>
        <pt x="154" y="-108" on="1"/>
        <pt x="154" y="722" on="1"/>
        <pt x="53" y="722" on="1"/>
        <pt x="53" y="781" on="1"/>
      </contour>
    </TTGlyph>
    <TTGlyph name="breve" xMin="70" yMin="516" xMax="330" yMax="643">
      <contour>
        <pt x="264" y="643" on="1"/>
        <pt x="330" y="643" on="1"/>
        <pt x="330" y="595" on="1"/>
        <pt x="330" y="516" on="0"/>
        <pt x="251" y="516" on="1"/>
        <pt x="149" y="516" on="1"/>
        <pt x="70" y="516" on="0"/>
        <pt x="70" y="595" on="1"/>
        <pt x="70" y="643" on="1"/>
        <pt x="136" y="643" on="1"/>
        <pt x="136" y="603" on="1"/>
        <pt x="136" y="584" on="0"/>
        <pt x="148" y="572" on="0"/>
        <pt x="167" y="572" on="1"/>
        <pt x="233" y="572" on="1"/>
        <pt x="252" y="572" on="0"/>
        <pt x="264" y="584" on="0"/>
        <pt x="264" y="603" on="1"/>
      </contour>
    </TTGlyph>
    <TTGlyph name="brokenbar" xMin="55" yMin="-98" xMax="124" yMax="719">
      <contour>
        <pt x="124" y="374" on="1"/>
        <pt x="55" y="374" on="1"/>
        <pt x="55" y="719" on="1"/>
        <pt x="124" y="719" on="1"/>
      </contour>
      <contour>
        <pt x="55" y="247" on="1"/>
        <pt x="124" y="247" on="1"/>
        <pt x="124" y="-98" on="1"/>
        <pt x="55" y="-98" on="1"/>
      </contour>
    </TTGlyph>
    <TTGlyph name="bullet" xMin="71" yMin="194" xMax="325" yMax="448">
      <contour>
        <pt x="71" y="268" on="0"/>
        <pt x="71" y="374" on="0"/>
        <pt x="146" y="448" on="0"/>
        <pt x="250" y="448" on="0"/>
        <pt x="325" y="374" on="0"/>
        <pt x="325" y="268" on="0"/>
        <pt x="250" y="194" on="0"/>
        <pt x="146" y="194" on="0"/>
      </contour>
    </TTGlyph>
    <TTGlyph name="c" xMin="40" yMin="0" xMax="290" yMax="485">
      <contour>
        <pt x="290" y="341" on="1"/>
        <pt x="221" y="341" on="1"/>
        <pt x="221" y="395" on="1"/>
        <pt x="221" y="414" on="0"/>
        <pt x="210" y="426" on="0"/>
        <pt x="190" y="426" on="1"/>
        <pt x="140" y="426" on="1"/>
        <pt x="120" y="426" on="0"/>
        <pt x="109" y="414" on="0"/>
        <pt x="109" y="395" on="1"/>
        <pt x="109" y="90" on="1"/>
        <pt x="109" y="70" on="0"/>
        <pt x="120" y="59" on="0"/>
        <pt x="140" y="59" on="1"/>
        <pt x="190" y="59" on="1"/>
        <pt x="210" y="59" on="0"/>
        <pt x="221" y="70" on="0"/>
        <pt x="221" y="90" on="1"/>
        <pt x="221" y="144" on="1"/>
        <pt x="290" y="144" on="1"/>
        <pt x="290" y="79" on="1"/>
        <pt x="290" y="0" on="0"/>
        <pt x="211" y="0" on="1"/>
        <pt x="119" y="0" on="1"/>
        <pt x="40" y="0" on="0"/>
        <pt x="40" y="79" on="1"/>
        <pt x="40" y="406" on="1"/>
        <pt x="40" y="485" on="0"/>
        <pt x="119" y="485" on="1"/>
        <pt x="211" y="485" on="1"/>
        <pt x="290" y="485" on="0"/>
        <pt x="290" y="406" on="1"/>
      </contour>
    </TTGlyph>
    <TTGlyph name="cacute" xMin="40" yMin="0" xMax="291" yMax="643">
      <contour>
        <pt x="119" y="485" on="1"/>
        <pt x="211" y="485" on="1"/>
        <pt x="290" y="485" on="0"/>
        <pt x="290" y="406" on="1"/>
        <pt x="290" y="341" on="1"/>
        <pt x="221" y="341" on="1"/>
        <pt x="221" y="395" on="1"/>
        <pt x="221" y="414" on="0"/>
        <pt x="210" y="426" on="0"/>
        <pt x="190" y="426" on="1"/>
        <pt x="140" y="426" on="1"/>
        <pt x="120" y="426" on="0"/>
        <pt x="109" y="414" on="0"/>
        <pt x="109" y="395" on="1"/>
        <pt x="109" y="90" on="1"/>
        <pt x="109" y="70" on="0"/>
        <pt x="120" y="59" on="0"/>
        <pt x="140" y="59" on="1"/>
        <pt x="190" y="59" on="1"/>
        <pt x="210" y="59" on="0"/>
        <pt x="221" y="70" on="0"/>
        <pt x="221" y="90" on="1"/>
        <pt x="221" y="144" on="1"/>
        <pt x="290" y="144" on="1"/>
        <pt x="290" y="79" on="1"/>
        <pt x="290" y="0" on="0"/>
        <pt x="211" y="0" on="1"/>
        <pt x="119" y="0" on="1"/>
        <pt x="40" y="0" on="0"/>
        <pt x="40" y="79" on="1"/>
        <pt x="40" y="406" on="1"/>
        <pt x="40" y="485" on="0"/>
      </contour>
      <contour>
        <pt x="291" y="643" on="1"/>
        <pt x="193" y="516" on="1"/>
        <pt x="131" y="516" on="1"/>
        <pt x="209" y="643" on="1"/>
      </contour>
    </TTGlyph>
    <TTGlyph name="caron" xMin="71" yMin="516" xMax="328" yMax="643">
      <contour>
        <pt x="156" y="516" on="1"/>
        <pt x="71" y="643" on="1"/>
        <pt x="147" y="643" on="1"/>
        <pt x="199" y="559" on="1"/>
        <pt x="252" y="643" on="1"/>
        <pt x="328" y="643" on="1"/>
        <pt x="243" y="516" on="1"/>
      </contour>
    </TTGlyph>
    <TTGlyph name="ccaron" xMin="38" yMin="0" xMax="295" yMax="643">
      <contour>
        <pt x="119" y="485" on="1"/>
        <pt x="211" y="485" on="1"/>
        <pt x="290" y="485" on="0"/>
        <pt x="290" y="406" on="1"/>
        <pt x="290" y="341" on="1"/>
        <pt x="221" y="341" on="1"/>
        <pt x="221" y="395" on="1"/>
        <pt x="221" y="414" on="0"/>
        <pt x="210" y="426" on="0"/>
        <pt x="190" y="426" on="1"/>
        <pt x="140" y="426" on="1"/>
        <pt x="120" y="426" on="0"/>
        <pt x="109" y="414" on="0"/>
        <pt x="109" y="395" on="1"/>
        <pt x="109" y="90" on="1"/>
        <pt x="109" y="70" on="0"/>
        <pt x="120" y="59" on="0"/>
        <pt x="140" y="59" on="1"/>
        <pt x="190" y="59" on="1"/>
        <pt x="210" y="59" on="0"/>
        <pt x="221" y="70" on="0"/>
        <pt x="221" y="90" on="1"/>
        <pt x="221" y="144" on="1"/>
        <pt x="290" y="144" on="1"/>
        <pt x="290" y="79" on="1"/>
        <pt x="290" y="0" on="0"/>
        <pt x="211" y="0" on="1"/>
        <pt x="119" y="0" on="1"/>
        <pt x="40" y="0" on="0"/>
        <pt x="40" y="79" on="1"/>
        <pt x="40" y="406" on="1"/>
        <pt x="40" y="485" on="0"/>
      </contour>
      <contour>
        <pt x="210" y="516" on="1"/>
        <pt x="123" y="516" on="1"/>
        <pt x="38" y="643" on="1"/>
        <pt x="114" y="643" on="1"/>
        <pt x="166" y="559" on="1"/>
        <pt x="219" y="643" on="1"/>
        <pt x="295" y="643" on="1"/>
      </contour>
    </TTGlyph>
    <TTGlyph name="ccedilla" xMin="40" yMin="-168" xMax="290" yMax="485">
      <contour>
        <pt x="290" y="341" on="1"/>
        <pt x="221" y="341" on="1"/>
        <pt x="221" y="395" on="1"/>
        <pt x="221" y="414" on="0"/>
        <pt x="210" y="426" on="0"/>
        <pt x="190" y="426" on="1"/>
        <pt x="140" y="426" on="1"/>
        <pt x="120" y="426" on="0"/>
        <pt x="109" y="414" on="0"/>
        <pt x="109" y="395" on="1"/>
        <pt x="109" y="90" on="1"/>
        <pt x="109" y="70" on="0"/>
        <pt x="120" y="59" on="0"/>
        <pt x="140" y="59" on="1"/>
        <pt x="190" y="59" on="1"/>
        <pt x="210" y="59" on="0"/>
        <pt x="221" y="70" on="0"/>
        <pt x="221" y="90" on="1"/>
        <pt x="221" y="144" on="1"/>
        <pt x="290" y="144" on="1"/>
        <pt x="290" y="79" on="1"/>
        <pt x="290" y="0" on="0"/>
        <pt x="211" y="0" on="1"/>
        <pt x="119" y="0" on="1"/>
        <pt x="40" y="0" on="0"/>
        <pt x="40" y="79" on="1"/>
        <pt x="40" y="406" on="1"/>
        <pt x="40" y="485" on="0"/>
        <pt x="119" y="485" on="1"/>
        <pt x="211" y="485" on="1"/>
        <pt x="290" y="485" on="0"/>
        <pt x="290" y="406" on="1"/>
      </contour>
      <contour>
        <pt x="136" y="-73" on="1"/>
        <pt x="136" y="-51" on="1"/>
        <pt x="201" y="-51" on="1"/>
        <pt x="201" y="-79" on="1"/>
        <pt x="201" y="-123" on="0"/>
        <pt x="154" y="-168" on="0"/>
        <pt x="112" y="-168" on="1"/>
        <pt x="64" y="-168" on="1"/>
        <pt x="64" y="-110" on="1"/>
        <pt x="101" y="-110" on="1"/>
        <pt x="120" y="-110" on="0"/>
        <pt x="136" y="-93" on="0"/>
      </contour>
    </TTGlyph>
    <TTGlyph name="cedilla" xMin="136" yMin="-168" xMax="273" yMax="-51">
      <contour>
        <pt x="208" y="-73" on="1"/>
        <pt x="208" y="-51" on="1"/>
        <pt x="273" y="-51" on="1"/>
        <pt x="273" y="-79" on="1"/>
        <pt x="273" y="-123" on="0"/>
        <pt x="226" y="-168" on="0"/>
        <pt x="184" y="-168" on="1"/>
        <pt x="136" y="-168" on="1"/>
        <pt x="136" y="-110" on="1"/>
        <pt x="173" y="-110" on="1"/>
        <pt x="192" y="-110" on="0"/>
        <pt x="208" y="-93" on="0"/>
      </contour>
    </TTGlyph>
    <TTGlyph name="cent" xMin="40" yMin="-75" xMax="290" yMax="561">
      <contour>
        <pt x="290" y="341" on="1"/>
        <pt x="221" y="341" on="1"/>
        <pt x="221" y="395" on="1"/>
        <pt x="221" y="414" on="0"/>
        <pt x="210" y="426" on="0"/>
        <pt x="190" y="426" on="1"/>
        <pt x="140" y="426" on="1"/>
        <pt x="120" y="426" on="0"/>
        <pt x="109" y="414" on="0"/>
        <pt x="109" y="395" on="1"/>
        <pt x="109" y="90" on="1"/>
        <pt x="109" y="70" on="0"/>
        <pt x="120" y="59" on="0"/>
        <pt x="140" y="59" on="1"/>
        <pt x="190" y="59" on="1"/>
        <pt x="210" y="59" on="0"/>
        <pt x="221" y="70" on="0"/>
        <pt x="221" y="90" on="1"/>
        <pt x="221" y="144" on="1"/>
        <pt x="290" y="144" on="1"/>
        <pt x="290" y="79" on="1"/>
        <pt x="290" y="0" on="0"/>
        <pt x="211" y="0" on="1"/>
        <pt x="201" y="0" on="1"/>
        <pt x="201" y="-75" on="1"/>
        <pt x="136" y="-75" on="1"/>
        <pt x="136" y="0" on="1"/>
        <pt x="119" y="0" on="1"/>
        <pt x="40" y="0" on="0"/>
        <pt x="40" y="79" on="1"/>
        <pt x="40" y="406" on="1"/>
        <pt x="40" y="485" on="0"/>
        <pt x="119" y="485" on="1"/>
        <pt x="136" y="485" on="1"/>
        <pt x="136" y="561" on="1"/>
        <pt x="201" y="561" on="1"/>
        <pt x="201" y="485" on="1"/>
        <pt x="211" y="485" on="1"/>
        <pt x="290" y="485" on="0"/>
        <pt x="290" y="406" on="1"/>
      </contour>
    </TTGlyph>
    <TTGlyph name="circumflex" xMin="71" yMin="516" xMax="328" yMax="643">
      <contour>
        <pt x="71" y="516" on="1"/>
        <pt x="156" y="643" on="1"/>
        <pt x="243" y="643" on="1"/>
        <pt x="328" y="516" on="1"/>
        <pt x="252" y="516" on="1"/>
        <pt x="199" y="600" on="1"/>
        <pt x="147" y="516" on="1"/>
      </contour>
    </TTGlyph>
    <TTGlyph name="colon" xMin="30" yMin="0" xMax="112" yMax="485">
      <contour>
        <pt x="30" y="373" on="1"/>
        <pt x="30" y="485" on="1"/>
        <pt x="112" y="485" on="1"/>
        <pt x="112" y="373" on="1"/>
      </contour>
      <contour>
        <pt x="30" y="0" on="1"/>
        <pt x="30" y="112" on="1"/>
        <pt x="112" y="112" on="1"/>
        <pt x="112" y="0" on="1"/>
      </contour>
    </TTGlyph>
    <TTGlyph name="comma" xMin="30" yMin="-137" xMax="112" yMax="112">
      <contour>
        <pt x="30" y="112" on="1"/>
        <pt x="112" y="112" on="1"/>
        <pt x="112" y="54" on="1"/>
        <pt x="57" y="-137" on="1"/>
        <pt x="30" y="-137" on="1"/>
      </contour>
    </TTGlyph>
    <TTGlyph name="commaaccent" xMin="160" yMin="-211" xMax="240" yMax="-51">
      <contour>
        <pt x="160" y="-51" on="1"/>
        <pt x="240" y="-51" on="1"/>
        <pt x="240" y="-90" on="1"/>
        <pt x="187" y="-211" on="1"/>
        <pt x="160" y="-211" on="1"/>
      </contour>
    </TTGlyph>
    <TTGlyph name="copyright" xMin="49" yMin="0" xMax="651" yMax="622">
      <contour>
        <pt x="406" y="240" on="1"/>
        <pt x="406" y="264" on="1"/>
        <pt x="475" y="264" on="1"/>
        <pt x="475" y="229" on="1"/>
        <pt x="475" y="150" on="0"/>
        <pt x="396" y="150" on="1"/>
        <pt x="304" y="150" on="1"/>
        <pt x="225" y="150" on="0"/>
        <pt x="225" y="229" on="1"/>
        <pt x="225" y="406" on="1"/>
        <pt x="225" y="485" on="0"/>
        <pt x="304" y="485" on="1"/>
        <pt x="396" y="485" on="1"/>
        <pt x="475" y="485" on="0"/>
        <pt x="475" y="406" on="1"/>
        <pt x="475" y="371" on="1"/>
        <pt x="406" y="371" on="1"/>
        <pt x="406" y="395" on="1"/>
        <pt x="406" y="414" on="0"/>
        <pt x="394" y="426" on="0"/>
        <pt x="375" y="426" on="1"/>
        <pt x="325" y="426" on="1"/>
        <pt x="306" y="426" on="0"/>
        <pt x="294" y="414" on="0"/>
        <pt x="294" y="395" on="1"/>
        <pt x="294" y="240" on="1"/>
        <pt x="294" y="220" on="0"/>
        <pt x="306" y="209" on="0"/>
        <pt x="325" y="209" on="1"/>
        <pt x="375" y="209" on="1"/>
        <pt x="394" y="209" on="0"/>
        <pt x="406" y="220" on="0"/>
      </contour>
      <contour>
        <pt x="257" y="60" on="1"/>
        <pt x="443" y="60" on="1"/>
        <pt x="584" y="60" on="0"/>
        <pt x="584" y="270" on="1"/>
        <pt x="584" y="343" on="1"/>
        <pt x="584" y="564" on="0"/>
        <pt x="443" y="564" on="1"/>
        <pt x="257" y="564" on="1"/>
        <pt x="116" y="564" on="0"/>
        <pt x="116" y="343" on="1"/>
        <pt x="116" y="270" on="1"/>
        <pt x="116" y="60" on="0"/>
      </contour>
      <contour>
        <pt x="651" y="342" on="1"/>
        <pt x="651" y="271" on="1"/>
        <pt x="651" y="132" on="0"/>
        <pt x="552" y="0" on="0"/>
        <pt x="445" y="0" on="1"/>
        <pt x="255" y="0" on="1"/>
        <pt x="148" y="0" on="0"/>
        <pt x="49" y="132" on="0"/>
        <pt x="49" y="271" on="1"/>
        <pt x="49" y="342" on="1"/>
        <pt x="49" y="483" on="0"/>
        <pt x="149" y="622" on="0"/>
        <pt x="255" y="622" on="1"/>
        <pt x="445" y="622" on="1"/>
        <pt x="551" y="622" on="0"/>
        <pt x="651" y="483" on="0"/>
      </contour>
    </TTGlyph>
    <TTGlyph name="currency" xMin="65" yMin="67" xMax="403" yMax="532">
      <contour>
        <pt x="368" y="407" on="1"/>
        <pt x="368" y="190" on="1"/>
        <pt x="368" y="168" on="0"/>
        <pt x="362" y="153" on="1"/>
        <pt x="403" y="113" on="1"/>
        <pt x="357" y="67" on="1"/>
        <pt x="311" y="113" on="1"/>
        <pt x="297" y="111" on="0"/>
        <pt x="289" y="111" on="1"/>
        <pt x="187" y="111" on="1"/>
        <pt x="171" y="111" on="0"/>
        <pt x="159" y="114" on="1"/>
        <pt x="111" y="67" on="1"/>
        <pt x="65" y="113" on="1"/>
        <pt x="112" y="159" on="1"/>
        <pt x="108" y="171" on="0"/>
        <pt x="108" y="190" on="1"/>
        <pt x="108" y="407" on="1"/>
        <pt x="108" y="427" on="0"/>
        <pt x="112" y="439" on="1"/>
        <pt x="65" y="486" on="1"/>
        <pt x="111" y="532" on="1"/>
        <pt x="160" y="483" on="1"/>
        <pt x="172" y="486" on="0"/>
        <pt x="187" y="486" on="1"/>
        <pt x="289" y="486" on="1"/>
        <pt x="303" y="486" on="0"/>
        <pt x="309" y="485" on="1"/>
        <pt x="357" y="532" on="1"/>
        <pt x="403" y="486" on="1"/>
        <pt x="362" y="445" on="1"/>
        <pt x="368" y="430" on="0"/>
      </contour>
      <contour>
        <pt x="207" y="170" on="1"/>
        <pt x="269" y="170" on="1"/>
        <pt x="288" y="170" on="0"/>
        <pt x="300" y="182" on="0"/>
        <pt x="300" y="201" on="1"/>
        <pt x="300" y="396" on="1"/>
        <pt x="300" y="416" on="0"/>
        <pt x="288" y="427" on="0"/>
        <pt x="269" y="427" on="1"/>
        <pt x="207" y="427" on="1"/>
        <pt x="188" y="427" on="0"/>
        <pt x="176" y="416" on="0"/>
        <pt x="176" y="396" on="1"/>
        <pt x="176" y="201" on="1"/>
        <pt x="176" y="182" on="0"/>
        <pt x="188" y="170" on="0"/>
      </contour>
    </TTGlyph>
    <TTGlyph name="d" xMin="40" yMin="0" xMax="283" yMax="669">
      <contour>
        <pt x="214" y="669" on="1"/>
        <pt x="283" y="669" on="1"/>
        <pt x="283" y="0" on="1"/>
        <pt x="214" y="0" on="1"/>
        <pt x="214" y="33" on="1"/>
        <pt x="203" y="0" on="0"/>
        <pt x="159" y="0" on="1"/>
        <pt x="119" y="0" on="1"/>
        <pt x="40" y="0" on="0"/>
        <pt x="40" y="79" on="1"/>
        <pt x="40" y="407" on="1"/>
        <pt x="40" y="486" on="0"/>
        <pt x="119" y="486" on="1"/>
        <pt x="159" y="486" on="1"/>
        <pt x="203" y="486" on="0"/>
        <pt x="214" y="453" on="1"/>
      </contour>
      <contour>
        <pt x="140" y="59" on="1"/>
        <pt x="180" y="59" on="1"/>
        <pt x="198" y="59" on="0"/>
        <pt x="214" y="75" on="0"/>
        <pt x="214" y="95" on="1"/>
        <pt x="214" y="391" on="1"/>
        <pt x="214" y="411" on="0"/>
        <pt x="198" y="427" on="0"/>
        <pt x="180" y="427" on="1"/>
        <pt x="140" y="427" on="1"/>
        <pt x="120" y="427" on="0"/>
        <pt x="109" y="416" on="0"/>
        <pt x="109" y="396" on="1"/>
        <pt x="109" y="90" on="1"/>
        <pt x="109" y="70" on="0"/>
        <pt x="120" y="59" on="0"/>
      </contour>
    </TTGlyph>
    <TTGlyph name="dagger" xMin="5" yMin="-110" xMax="333" yMax="622">
      <contour>
        <pt x="333" y="458" on="1"/>
        <pt x="333" y="399" on="1"/>
        <pt x="203" y="399" on="1"/>
        <pt x="203" y="-110" on="1"/>
        <pt x="135" y="-110" on="1"/>
        <pt x="135" y="399" on="1"/>
        <pt x="5" y="399" on="1"/>
        <pt x="5" y="458" on="1"/>
        <pt x="135" y="458" on="1"/>
        <pt x="135" y="622" on="1"/>
        <pt x="203" y="622" on="1"/>
        <pt x="203" y="458" on="1"/>
      </contour>
    </TTGlyph>
    <TTGlyph name="daggerdbl" xMin="15" yMin="-157" xMax="343" yMax="622">
      <contour>
        <pt x="343" y="399" on="1"/>
        <pt x="213" y="399" on="1"/>
        <pt x="213" y="66" on="1"/>
        <pt x="343" y="66" on="1"/>
        <pt x="343" y="7" on="1"/>
        <pt x="213" y="7" on="1"/>
        <pt x="213" y="-157" on="1"/>
        <pt x="145" y="-157" on="1"/>
        <pt x="145" y="7" on="1"/>
        <pt x="15" y="7" on="1"/>
        <pt x="15" y="66" on="1"/>
        <pt x="145" y="66" on="1"/>
        <pt x="145" y="399" on="1"/>
        <pt x="15" y="399" on="1"/>
        <pt x="15" y="458" on="1"/>
        <pt x="145" y="458" on="1"/>
        <pt x="145" y="622" on="1"/>
        <pt x="213" y="622" on="1"/>
        <pt x="213" y="458" on="1"/>
        <pt x="343" y="458" on="1"/>
      </contour>
    </TTGlyph>
    <TTGlyph name="dcaron" xMin="40" yMin="0" xMax="390" yMax="669">
      <contour>
        <pt x="328" y="669" on="1"/>
        <pt x="390" y="669" on="1"/>
        <pt x="390" y="630" on="1"/>
        <pt x="355" y="509" on="1"/>
        <pt x="328" y="509" on="1"/>
      </contour>
      <contour>
        <pt x="214" y="669" on="1"/>
        <pt x="283" y="669" on="1"/>
        <pt x="283" y="0" on="1"/>
        <pt x="214" y="0" on="1"/>
        <pt x="214" y="33" on="1"/>
        <pt x="203" y="0" on="0"/>
        <pt x="159" y="0" on="1"/>
        <pt x="119" y="0" on="1"/>
        <pt x="40" y="0" on="0"/>
        <pt x="40" y="79" on="1"/>
        <pt x="40" y="407" on="1"/>
        <pt x="40" y="486" on="0"/>
        <pt x="119" y="486" on="1"/>
        <pt x="159" y="486" on="1"/>
        <pt x="203" y="486" on="0"/>
        <pt x="214" y="453" on="1"/>
      </contour>
      <contour>
        <pt x="140" y="59" on="1"/>
        <pt x="180" y="59" on="1"/>
        <pt x="198" y="59" on="0"/>
        <pt x="214" y="75" on="0"/>
        <pt x="214" y="95" on="1"/>
        <pt x="214" y="391" on="1"/>
        <pt x="214" y="411" on="0"/>
        <pt x="198" y="427" on="0"/>
        <pt x="180" y="427" on="1"/>
        <pt x="140" y="427" on="1"/>
        <pt x="120" y="427" on="0"/>
        <pt x="109" y="416" on="0"/>
        <pt x="109" y="396" on="1"/>
        <pt x="109" y="90" on="1"/>
        <pt x="109" y="70" on="0"/>
        <pt x="120" y="59" on="0"/>
      </contour>
    </TTGlyph>
    <TTGlyph name="dcroat" xMin="45" yMin="0" xMax="333" yMax="669">
      <contour>
        <pt x="333" y="603" on="1"/>
        <pt x="333" y="544" on="1"/>
        <pt x="288" y="544" on="1"/>
        <pt x="288" y="0" on="1"/>
        <pt x="219" y="0" on="1"/>
        <pt x="219" y="33" on="1"/>
        <pt x="208" y="0" on="0"/>
        <pt x="164" y="0" on="1"/>
        <pt x="124" y="0" on="1"/>
        <pt x="45" y="0" on="0"/>
        <pt x="45" y="79" on="1"/>
        <pt x="45" y="406" on="1"/>
        <pt x="45" y="485" on="0"/>
        <pt x="124" y="485" on="1"/>
        <pt x="164" y="485" on="1"/>
        <pt x="208" y="485" on="0"/>
        <pt x="219" y="452" on="1"/>
        <pt x="219" y="544" on="1"/>
        <pt x="134" y="544" on="1"/>
        <pt x="134" y="603" on="1"/>
        <pt x="219" y="603" on="1"/>
        <pt x="219" y="669" on="1"/>
        <pt x="288" y="669" on="1"/>
        <pt x="288" y="603" on="1"/>
      </contour>
      <contour>
        <pt x="145" y="59" on="1"/>
        <pt x="185" y="59" on="1"/>
        <pt x="203" y="59" on="0"/>
        <pt x="219" y="75" on="0"/>
        <pt x="219" y="95" on="1"/>
        <pt x="219" y="390" on="1"/>
        <pt x="219" y="410" on="0"/>
        <pt x="203" y="426" on="0"/>
        <pt x="185" y="426" on="1"/>
        <pt x="145" y="426" on="1"/>
        <pt x="126" y="426" on="0"/>
        <pt x="114" y="414" on="0"/>
        <pt x="114" y="395" on="1"/>
        <pt x="114" y="90" on="1"/>
        <pt x="114" y="70" on="0"/>
        <pt x="126" y="59" on="0"/>
      </contour>
    </TTGlyph>
    <TTGlyph name="degree" xMin="58" yMin="353" xMax="292" yMax="622">
      <contour>
        <pt x="228" y="439" on="1"/>
        <pt x="228" y="536" on="1"/>
        <pt x="228" y="555" on="0"/>
        <pt x="216" y="566" on="0"/>
        <pt x="197" y="566" on="1"/>
        <pt x="153" y="566" on="1"/>
        <pt x="134" y="566" on="0"/>
        <pt x="122" y="555" on="0"/>
        <pt x="122" y="536" on="1"/>
        <pt x="122" y="439" on="1"/>
        <pt x="122" y="420" on="0"/>
        <pt x="134" y="409" on="0"/>
        <pt x="153" y="409" on="1"/>
        <pt x="197" y="409" on="1"/>
        <pt x="216" y="409" on="0"/>
        <pt x="228" y="420" on="0"/>
      </contour>
      <contour>
        <pt x="292" y="545" on="1"/>
        <pt x="292" y="430" on="1"/>
        <pt x="292" y="353" on="0"/>
        <pt x="215" y="353" on="1"/>
        <pt x="135" y="353" on="1"/>
        <pt x="58" y="353" on="0"/>
        <pt x="58" y="430" on="1"/>
        <pt x="58" y="545" on="1"/>
        <pt x="58" y="622" on="0"/>
        <pt x="135" y="622" on="1"/>
        <pt x="215" y="622" on="1"/>
        <pt x="292" y="622" on="0"/>
      </contour>
    </TTGlyph>
    <TTGlyph name="dieresis" xMin="68" yMin="541" xMax="332" yMax="625">
      <contour>
        <pt x="244" y="541" on="1"/>
        <pt x="244" y="625" on="1"/>
        <pt x="332" y="625" on="1"/>
        <pt x="332" y="541" on="1"/>
      </contour>
      <contour>
        <pt x="68" y="541" on="1"/>
        <pt x="68" y="625" on="1"/>
        <pt x="156" y="625" on="1"/>
        <pt x="156" y="541" on="1"/>
      </contour>
    </TTGlyph>
    <TTGlyph name="divide" xMin="25" yMin="131" xMax="355" yMax="491">
      <contour>
        <pt x="155" y="211" on="1"/>
        <pt x="225" y="211" on="1"/>
        <pt x="225" y="131" on="1"/>
        <pt x="155" y="131" on="1"/>
      </contour>
      <contour>
        <pt x="155" y="491" on="1"/>
        <pt x="225" y="491" on="1"/>
        <pt x="225" y="411" on="1"/>
        <pt x="155" y="411" on="1"/>
      </contour>
      <contour>
        <pt x="25" y="281" on="1"/>
        <pt x="25" y="341" on="1"/>
        <pt x="355" y="341" on="1"/>
        <pt x="355" y="281" on="1"/>
      </contour>
    </TTGlyph>
    <TTGlyph name="dollar" xMin="40" yMin="-75" xMax="287" yMax="697">
      <contour>
        <pt x="140" y="350" on="1"/>
        <pt x="208" y="350" on="1"/>
        <pt x="287" y="350" on="0"/>
        <pt x="287" y="271" on="1"/>
        <pt x="287" y="79" on="1"/>
        <pt x="287" y="0" on="0"/>
        <pt x="208" y="0" on="1"/>
        <pt x="196" y="0" on="1"/>
        <pt x="196" y="-75" on="1"/>
        <pt x="131" y="-75" on="1"/>
        <pt x="131" y="0" on="1"/>
        <pt x="121" y="0" on="1"/>
        <pt x="42" y="0" on="0"/>
        <pt x="42" y="79" on="1"/>
        <pt x="42" y="175" on="1"/>
        <pt x="111" y="175" on="1"/>
        <pt x="111" y="90" on="1"/>
        <pt x="111" y="70" on="0"/>
        <pt x="122" y="59" on="0"/>
        <pt x="142" y="59" on="1"/>
        <pt x="187" y="59" on="1"/>
        <pt x="206" y="59" on="0"/>
        <pt x="218" y="70" on="0"/>
        <pt x="218" y="90" on="1"/>
        <pt x="218" y="260" on="1"/>
        <pt x="218" y="280" on="0"/>
        <pt x="206" y="291" on="0"/>
        <pt x="187" y="291" on="1"/>
        <pt x="119" y="291" on="1"/>
        <pt x="40" y="291" on="0"/>
        <pt x="40" y="370" on="1"/>
        <pt x="40" y="543" on="1"/>
        <pt x="40" y="622" on="0"/>
        <pt x="119" y="622" on="1"/>
        <pt x="131" y="622" on="1"/>
        <pt x="131" y="697" on="1"/>
        <pt x="196" y="697" on="1"/>
        <pt x="196" y="622" on="1"/>
        <pt x="207" y="622" on="1"/>
        <pt x="286" y="622" on="0"/>
        <pt x="286" y="543" on="1"/>
        <pt x="286" y="447" on="1"/>
        <pt x="217" y="447" on="1"/>
        <pt x="217" y="532" on="1"/>
        <pt x="217" y="552" on="0"/>
        <pt x="206" y="563" on="0"/>
        <pt x="186" y="563" on="1"/>
        <pt x="140" y="563" on="1"/>
        <pt x="120" y="563" on="0"/>
        <pt x="109" y="552" on="0"/>
        <pt x="109" y="532" on="1"/>
        <pt x="109" y="381" on="1"/>
        <pt x="109" y="362" on="0"/>
        <pt x="120" y="350" on="0"/>
      </contour>
    </TTGlyph>
    <TTGlyph name="dotaccent" xMin="154" yMin="536" xMax="246" yMax="622">
      <contour>
        <pt x="154" y="536" on="1"/>
        <pt x="154" y="622" on="1"/>
        <pt x="246" y="622" on="1"/>
        <pt x="246" y="536" on="1"/>
      </contour>
    </TTGlyph>
    <TTGlyph name="dotlessi" xMin="45" yMin="0" xMax="114" yMax="485">
      <contour>
        <pt x="114" y="0" on="1"/>
        <pt x="45" y="0" on="1"/>
        <pt x="45" y="485" on="1"/>
        <pt x="114" y="485" on="1"/>
      </contour>
    </TTGlyph>
    <TTGlyph name="dvBH_N" xMin="45" yMin="78" xMax="717" yMax="622">
      <contour>
        <pt x="380" y="622" on="1"/>
        <pt x="717" y="622" on="1"/>
        <pt x="717" y="563" on="1"/>
        <pt x="380" y="563" on="1"/>
      </contour>
      <contour>
        <pt x="380" y="401" on="1"/>
        <pt x="380" y="406" on="1"/>
        <pt x="380" y="485" on="0"/>
        <pt x="459" y="485" on="1"/>
        <pt x="717" y="485" on="1"/>
        <pt x="717" y="426" on="1"/>
        <pt x="609" y="426" on="1"/>
        <pt x="609" y="157" on="1"/>
        <pt x="609" y="78" on="0"/>
        <pt x="530" y="78" on="1"/>
        <pt x="459" y="78" on="1"/>
        <pt x="380" y="78" on="0"/>
        <pt x="380" y="157" on="1"/>
        <pt x="380" y="342" on="1"/>
        <pt x="292" y="342" on="1"/>
        <pt x="292" y="157" on="1"/>
        <pt x="292" y="78" on="0"/>
        <pt x="213" y="78" on="1"/>
        <pt x="124" y="78" on="1"/>
        <pt x="45" y="78" on="0"/>
        <pt x="45" y="157" on="1"/>
        <pt x="45" y="322" on="1"/>
        <pt x="45" y="401" on="0"/>
        <pt x="124" y="401" on="1"/>
        <pt x="223" y="401" on="1"/>
        <pt x="223" y="532" on="1"/>
        <pt x="223" y="552" on="0"/>
        <pt x="212" y="563" on="0"/>
        <pt x="192" y="563" on="1"/>
        <pt x="153" y="563" on="1"/>
        <pt x="134" y="563" on="0"/>
        <pt x="122" y="552" on="0"/>
        <pt x="122" y="532" on="1"/>
        <pt x="122" y="476" on="1"/>
        <pt x="53" y="476" on="1"/>
        <pt x="53" y="543" on="1"/>
        <pt x="53" y="622" on="0"/>
        <pt x="132" y="622" on="1"/>
        <pt x="213" y="622" on="1"/>
        <pt x="292" y="622" on="0"/>
        <pt x="292" y="543" on="1"/>
        <pt x="292" y="401" on="1"/>
      </contour>
      <contour>
        <pt x="223" y="168" on="1"/>
        <pt x="223" y="342" on="1"/>
        <pt x="145" y="342" on="1"/>
        <pt x="126" y="342" on="0"/>
        <pt x="114" y="330" on="0"/>
        <pt x="114" y="311" on="1"/>
        <pt x="114" y="168" on="1"/>
        <pt x="114" y="148" on="0"/>
        <pt x="126" y="137" on="0"/>
        <pt x="145" y="137" on="1"/>
        <pt x="192" y="137" on="1"/>
        <pt x="212" y="137" on="0"/>
        <pt x="223" y="148" on="0"/>
      </contour>
      <contour>
        <pt x="540" y="426" on="1"/>
        <pt x="480" y="426" on="1"/>
        <pt x="460" y="426" on="0"/>
        <pt x="449" y="414" on="0"/>
        <pt x="449" y="395" on="1"/>
        <pt x="449" y="168" on="1"/>
        <pt x="449" y="148" on="0"/>
        <pt x="460" y="137" on="0"/>
        <pt x="480" y="137" on="1"/>
        <pt x="509" y="137" on="1"/>
        <pt x="528" y="137" on="0"/>
        <pt x="540" y="148" on="0"/>
        <pt x="540" y="168" on="1"/>
      </contour>
    </TTGlyph>
    <TTGlyph name="dvB_N" xMin="-20" yMin="78" xMax="602" yMax="622">
      <contour>
        <pt x="-20" y="622" on="1"/>
        <pt x="602" y="622" on="1"/>
        <pt x="602" y="563" on="1"/>
        <pt x="-20" y="563" on="1"/>
      </contour>
      <contour>
        <pt x="265" y="271" on="1"/>
        <pt x="265" y="406" on="1"/>
        <pt x="265" y="485" on="0"/>
        <pt x="344" y="485" on="1"/>
        <pt x="602" y="485" on="1"/>
        <pt x="602" y="426" on="1"/>
        <pt x="494" y="426" on="1"/>
        <pt x="494" y="157" on="1"/>
        <pt x="494" y="78" on="0"/>
        <pt x="415" y="78" on="1"/>
        <pt x="344" y="78" on="1"/>
        <pt x="305" y="78" on="0"/>
        <pt x="285" y="97" on="1"/>
        <pt x="274" y="78" on="0"/>
        <pt x="236" y="78" on="1"/>
        <pt x="134" y="78" on="1"/>
        <pt x="55" y="78" on="0"/>
        <pt x="55" y="157" on="1"/>
        <pt x="55" y="406" on="1"/>
        <pt x="55" y="485" on="0"/>
        <pt x="134" y="485" on="1"/>
        <pt x="225" y="485" on="1"/>
        <pt x="225" y="426" on="1"/>
        <pt x="149" y="426" on="1"/>
        <pt x="253" y="235" on="0"/>
        <pt x="271" y="190" on="1"/>
        <pt x="265" y="213" on="0"/>
      </contour>
      <contour>
        <pt x="155" y="137" on="1"/>
        <pt x="231" y="137" on="1"/>
        <pt x="246" y="137" on="0"/>
        <pt x="253" y="141" on="1"/>
        <pt x="150" y="335" on="0"/>
        <pt x="124" y="395" on="1"/>
        <pt x="124" y="168" on="1"/>
        <pt x="124" y="148" on="0"/>
        <pt x="136" y="137" on="0"/>
      </contour>
      <contour>
        <pt x="425" y="426" on="1"/>
        <pt x="365" y="426" on="1"/>
        <pt x="346" y="426" on="0"/>
        <pt x="334" y="414" on="0"/>
        <pt x="334" y="395" on="1"/>
        <pt x="334" y="168" on="1"/>
        <pt x="334" y="148" on="0"/>
        <pt x="346" y="137" on="0"/>
        <pt x="365" y="137" on="1"/>
        <pt x="394" y="137" on="1"/>
        <pt x="414" y="137" on="0"/>
        <pt x="425" y="148" on="0"/>
        <pt x="425" y="168" on="1"/>
      </contour>
    </TTGlyph>
    <TTGlyph name="dvCH_N" xMin="-20" yMin="-372" xMax="521" yMax="622">
      <contour>
        <pt x="-20" y="622" on="1"/>
        <pt x="521" y="622" on="1"/>
        <pt x="521" y="563" on="1"/>
        <pt x="382" y="563" on="1"/>
        <pt x="382" y="485" on="1"/>
        <pt x="453" y="481" on="0"/>
        <pt x="453" y="406" on="1"/>
        <pt x="453" y="79" on="1"/>
        <pt x="453" y="0" on="0"/>
        <pt x="374" y="0" on="1"/>
        <pt x="359" y="0" on="1"/>
        <pt x="359" y="-215" on="1"/>
        <pt x="290" y="-215" on="1"/>
        <pt x="290" y="-116" on="1"/>
        <pt x="231" y="-116" on="1"/>
        <pt x="212" y="-116" on="0"/>
        <pt x="200" y="-128" on="0"/>
        <pt x="200" y="-147" on="1"/>
        <pt x="200" y="-173" on="1"/>
        <pt x="131" y="-173" on="1"/>
        <pt x="131" y="-136" on="1"/>
        <pt x="131" y="-57" on="0"/>
        <pt x="210" y="-57" on="1"/>
        <pt x="290" y="-57" on="1"/>
        <pt x="290" y="0" on="1"/>
        <pt x="134" y="0" on="1"/>
        <pt x="55" y="0" on="0"/>
        <pt x="55" y="79" on="1"/>
        <pt x="55" y="260" on="1"/>
        <pt x="55" y="303" on="0"/>
        <pt x="92" y="306" on="1"/>
        <pt x="92" y="308" on="1"/>
        <pt x="55" y="311" on="0"/>
        <pt x="55" y="355" on="1"/>
        <pt x="55" y="537" on="1"/>
        <pt x="55" y="555" on="0"/>
        <pt x="63" y="563" on="1"/>
        <pt x="-20" y="563" on="1"/>
      </contour>
      <contour>
        <pt x="318" y="563" on="1"/>
        <pt x="174" y="563" on="1"/>
        <pt x="185" y="562" on="1"/>
        <pt x="142" y="564" on="0"/>
        <pt x="124" y="556" on="0"/>
        <pt x="124" y="532" on="1"/>
        <pt x="124" y="369" on="1"/>
        <pt x="124" y="350" on="0"/>
        <pt x="136" y="338" on="0"/>
        <pt x="155" y="338" on="1"/>
        <pt x="192" y="338" on="1"/>
        <pt x="192" y="279" on="1"/>
        <pt x="155" y="279" on="1"/>
        <pt x="136" y="279" on="0"/>
        <pt x="124" y="268" on="0"/>
        <pt x="124" y="248" on="1"/>
        <pt x="124" y="90" on="1"/>
        <pt x="124" y="70" on="0"/>
        <pt x="136" y="59" on="0"/>
        <pt x="155" y="59" on="1"/>
        <pt x="358" y="59" on="1"/>
        <pt x="378" y="59" on="0"/>
        <pt x="389" y="70" on="0"/>
        <pt x="389" y="90" on="1"/>
        <pt x="389" y="395" on="1"/>
        <pt x="389" y="414" on="0"/>
        <pt x="378" y="426" on="0"/>
        <pt x="358" y="426" on="1"/>
        <pt x="338" y="426" on="1"/>
        <pt x="318" y="426" on="0"/>
        <pt x="307" y="414" on="0"/>
        <pt x="307" y="395" on="1"/>
        <pt x="307" y="263" on="1"/>
        <pt x="307" y="244" on="0"/>
        <pt x="318" y="232" on="0"/>
        <pt x="338" y="232" on="1"/>
        <pt x="358" y="232" on="1"/>
        <pt x="358" y="173" on="1"/>
        <pt x="322" y="173" on="1"/>
        <pt x="243" y="173" on="0"/>
        <pt x="243" y="252" on="1"/>
        <pt x="243" y="406" on="1"/>
        <pt x="243" y="484" on="0"/>
        <pt x="318" y="485" on="1"/>
      </contour>
      <contour>
        <pt x="287" y="-242" on="1"/>
        <pt x="363" y="-242" on="1"/>
        <pt x="463" y="-372" on="1"/>
        <pt x="387" y="-372" on="1"/>
      </contour>
    </TTGlyph>
    <TTGlyph name="dvC_N" xMin="-20" yMin="78" xMax="596" yMax="622">
      <contour>
        <pt x="-20" y="622" on="1"/>
        <pt x="596" y="622" on="1"/>
        <pt x="596" y="563" on="1"/>
        <pt x="-20" y="563" on="1"/>
      </contour>
      <contour>
        <pt x="259" y="171" on="1"/>
        <pt x="259" y="406" on="1"/>
        <pt x="259" y="485" on="0"/>
        <pt x="338" y="485" on="1"/>
        <pt x="596" y="485" on="1"/>
        <pt x="596" y="426" on="1"/>
        <pt x="488" y="426" on="1"/>
        <pt x="488" y="157" on="1"/>
        <pt x="488" y="78" on="0"/>
        <pt x="409" y="78" on="1"/>
        <pt x="338" y="78" on="1"/>
        <pt x="299" y="78" on="0"/>
        <pt x="279" y="97" on="1"/>
        <pt x="271" y="78" on="0"/>
        <pt x="241" y="78" on="1"/>
        <pt x="147" y="78" on="1"/>
        <pt x="68" y="78" on="0"/>
        <pt x="68" y="157" on="1"/>
        <pt x="68" y="400" on="1"/>
        <pt x="68" y="418" on="0"/>
        <pt x="76" y="426" on="1"/>
        <pt x="5" y="426" on="1"/>
        <pt x="5" y="485" on="1"/>
        <pt x="209" y="485" on="1"/>
        <pt x="209" y="426" on="1"/>
        <pt x="169" y="426" on="1"/>
        <pt x="149" y="425" on="0"/>
        <pt x="137" y="414" on="0"/>
        <pt x="137" y="395" on="1"/>
        <pt x="137" y="168" on="1"/>
        <pt x="137" y="148" on="0"/>
        <pt x="148" y="137" on="0"/>
        <pt x="168" y="137" on="1"/>
        <pt x="225" y="137" on="1"/>
        <pt x="244" y="137" on="0"/>
        <pt x="259" y="152" on="0"/>
      </contour>
      <contour>
        <pt x="419" y="426" on="1"/>
        <pt x="359" y="426" on="1"/>
        <pt x="340" y="426" on="0"/>
        <pt x="328" y="414" on="0"/>
        <pt x="328" y="395" on="1"/>
        <pt x="328" y="168" on="1"/>
        <pt x="328" y="148" on="0"/>
        <pt x="340" y="137" on="0"/>
        <pt x="359" y="137" on="1"/>
        <pt x="388" y="137" on="1"/>
        <pt x="408" y="137" on="0"/>
        <pt x="419" y="148" on="0"/>
        <pt x="419" y="168" on="1"/>
      </contour>
    </TTGlyph>
    <TTGlyph name="dvDDH_DDHA" xMin="-20" yMin="-143" xMax="397" yMax="622">
      <contour>
        <pt x="282" y="426" on="1"/>
        <pt x="155" y="426" on="1"/>
        <pt x="136" y="426" on="0"/>
        <pt x="124" y="414" on="0"/>
        <pt x="124" y="395" on="1"/>
        <pt x="124" y="232" on="1"/>
        <pt x="124" y="212" on="0"/>
        <pt x="136" y="201" on="0"/>
        <pt x="155" y="201" on="1"/>
        <pt x="248" y="201" on="1"/>
        <pt x="268" y="201" on="0"/>
        <pt x="279" y="212" on="0"/>
        <pt x="279" y="232" on="1"/>
        <pt x="279" y="256" on="1"/>
        <pt x="279" y="276" on="0"/>
        <pt x="268" y="287" on="0"/>
        <pt x="248" y="287" on="1"/>
        <pt x="178" y="287" on="1"/>
        <pt x="178" y="346" on="1"/>
        <pt x="269" y="346" on="1"/>
        <pt x="348" y="346" on="0"/>
        <pt x="348" y="267" on="1"/>
        <pt x="348" y="221" on="1"/>
        <pt x="348" y="142" on="0"/>
        <pt x="269" y="142" on="1"/>
        <pt x="155" y="142" on="1"/>
        <pt x="136" y="142" on="0"/>
        <pt x="124" y="130" on="0"/>
        <pt x="124" y="111" on="1"/>
        <pt x="124" y="-53" on="1"/>
        <pt x="124" y="-72" on="0"/>
        <pt x="136" y="-84" on="0"/>
        <pt x="155" y="-84" on="1"/>
        <pt x="248" y="-84" on="1"/>
        <pt x="268" y="-84" on="0"/>
        <pt x="279" y="-72" on="0"/>
        <pt x="279" y="-53" on="1"/>
        <pt x="279" y="-34" on="1"/>
        <pt x="279" y="-14" on="0"/>
        <pt x="268" y="-3" on="0"/>
        <pt x="248" y="-3" on="1"/>
        <pt x="178" y="-3" on="1"/>
        <pt x="178" y="56" on="1"/>
        <pt x="269" y="56" on="1"/>
        <pt x="348" y="56" on="0"/>
        <pt x="348" y="-23" on="1"/>
        <pt x="348" y="-64" on="1"/>
        <pt x="348" y="-143" on="0"/>
        <pt x="269" y="-143" on="1"/>
        <pt x="134" y="-143" on="1"/>
        <pt x="55" y="-143" on="0"/>
        <pt x="55" y="-64" on="1"/>
        <pt x="55" y="122" on="1"/>
        <pt x="55" y="165" on="0"/>
        <pt x="92" y="168" on="1"/>
        <pt x="92" y="170" on="1"/>
        <pt x="55" y="173" on="0"/>
        <pt x="55" y="217" on="1"/>
        <pt x="55" y="406" on="1"/>
        <pt x="55" y="485" on="0"/>
        <pt x="134" y="485" on="1"/>
        <pt x="213" y="485" on="1"/>
        <pt x="213" y="563" on="1"/>
        <pt x="-20" y="563" on="1"/>
        <pt x="-20" y="622" on="1"/>
        <pt x="397" y="622" on="1"/>
        <pt x="397" y="563" on="1"/>
        <pt x="282" y="563" on="1"/>
      </contour>
    </TTGlyph>
    <TTGlyph name="dvDD_GA" xMin="-20" yMin="-170" xMax="371" yMax="622">
      <contour>
        <pt x="281" y="426" on="1"/>
        <pt x="160" y="426" on="1"/>
        <pt x="140" y="426" on="0"/>
        <pt x="129" y="414" on="0"/>
        <pt x="129" y="395" on="1"/>
        <pt x="129" y="325" on="1"/>
        <pt x="129" y="306" on="0"/>
        <pt x="140" y="294" on="0"/>
        <pt x="160" y="294" on="1"/>
        <pt x="212" y="294" on="1"/>
        <pt x="291" y="294" on="0"/>
        <pt x="291" y="215" on="1"/>
        <pt x="291" y="79" on="1"/>
        <pt x="291" y="32" on="0"/>
        <pt x="264" y="13" on="1"/>
        <pt x="264" y="-170" on="1"/>
        <pt x="195" y="-170" on="1"/>
        <pt x="195" y="0" on="1"/>
        <pt x="142" y="0" on="1"/>
        <pt x="142" y="-60" on="1"/>
        <pt x="142" y="-127" on="0"/>
        <pt x="77" y="-127" on="1"/>
        <pt x="29" y="-127" on="1"/>
        <pt x="29" y="-77" on="1"/>
        <pt x="47" y="-77" on="1"/>
        <pt x="63" y="-77" on="0"/>
        <pt x="73" y="-67" on="0"/>
        <pt x="73" y="-51" on="1"/>
        <pt x="73" y="15" on="1"/>
        <pt x="48" y="34" on="0"/>
        <pt x="48" y="79" on="1"/>
        <pt x="48" y="165" on="1"/>
        <pt x="117" y="165" on="1"/>
        <pt x="117" y="90" on="1"/>
        <pt x="117" y="70" on="0"/>
        <pt x="128" y="59" on="0"/>
        <pt x="148" y="59" on="1"/>
        <pt x="191" y="59" on="1"/>
        <pt x="210" y="59" on="0"/>
        <pt x="222" y="70" on="0"/>
        <pt x="222" y="90" on="1"/>
        <pt x="222" y="204" on="1"/>
        <pt x="222" y="224" on="0"/>
        <pt x="210" y="235" on="0"/>
        <pt x="191" y="235" on="1"/>
        <pt x="139" y="235" on="1"/>
        <pt x="60" y="235" on="0"/>
        <pt x="60" y="314" on="1"/>
        <pt x="60" y="406" on="1"/>
        <pt x="60" y="485" on="0"/>
        <pt x="139" y="485" on="1"/>
        <pt x="212" y="485" on="1"/>
        <pt x="212" y="563" on="1"/>
        <pt x="-20" y="563" on="1"/>
        <pt x="-20" y="622" on="1"/>
        <pt x="371" y="622" on="1"/>
        <pt x="371" y="563" on="1"/>
        <pt x="281" y="563" on="1"/>
      </contour>
    </TTGlyph>
    <TTGlyph name="dvDD_N" xMin="-20" yMin="-372" xMax="371" yMax="622">
      <contour>
        <pt x="-20" y="622" on="1"/>
        <pt x="371" y="622" on="1"/>
        <pt x="371" y="563" on="1"/>
        <pt x="281" y="563" on="1"/>
        <pt x="281" y="426" on="1"/>
        <pt x="160" y="426" on="1"/>
        <pt x="140" y="426" on="0"/>
        <pt x="129" y="414" on="0"/>
        <pt x="129" y="395" on="1"/>
        <pt x="129" y="325" on="1"/>
        <pt x="129" y="306" on="0"/>
        <pt x="140" y="294" on="0"/>
        <pt x="160" y="294" on="1"/>
        <pt x="212" y="294" on="1"/>
        <pt x="291" y="294" on="0"/>
        <pt x="291" y="215" on="1"/>
        <pt x="291" y="79" on="1"/>
        <pt x="291" y="32" on="0"/>
        <pt x="262" y="12" on="1"/>
        <pt x="262" y="-215" on="1"/>
        <pt x="193" y="-215" on="1"/>
        <pt x="193" y="-116" on="1"/>
        <pt x="167" y="-116" on="1"/>
        <pt x="148" y="-116" on="0"/>
        <pt x="136" y="-128" on="0"/>
        <pt x="136" y="-147" on="1"/>
        <pt x="136" y="-173" on="1"/>
        <pt x="67" y="-173" on="1"/>
        <pt x="67" y="-136" on="1"/>
        <pt x="67" y="-57" on="0"/>
        <pt x="146" y="-57" on="1"/>
        <pt x="193" y="-57" on="1"/>
        <pt x="193" y="0" on="1"/>
        <pt x="127" y="0" on="1"/>
        <pt x="48" y="0" on="0"/>
        <pt x="48" y="79" on="1"/>
        <pt x="48" y="165" on="1"/>
        <pt x="117" y="165" on="1"/>
        <pt x="117" y="90" on="1"/>
        <pt x="117" y="70" on="0"/>
        <pt x="128" y="59" on="0"/>
        <pt x="148" y="59" on="1"/>
        <pt x="191" y="59" on="1"/>
        <pt x="210" y="59" on="0"/>
        <pt x="222" y="70" on="0"/>
        <pt x="222" y="90" on="1"/>
        <pt x="222" y="204" on="1"/>
        <pt x="222" y="224" on="0"/>
        <pt x="210" y="235" on="0"/>
        <pt x="191" y="235" on="1"/>
        <pt x="139" y="235" on="1"/>
        <pt x="60" y="235" on="0"/>
        <pt x="60" y="314" on="1"/>
        <pt x="60" y="406" on="1"/>
        <pt x="60" y="485" on="0"/>
        <pt x="139" y="485" on="1"/>
        <pt x="212" y="485" on="1"/>
        <pt x="212" y="563" on="1"/>
        <pt x="-20" y="563" on="1"/>
      </contour>
      <contour>
        <pt x="190" y="-242" on="1"/>
        <pt x="266" y="-242" on="1"/>
        <pt x="366" y="-372" on="1"/>
        <pt x="290" y="-372" on="1"/>
      </contour>
    </TTGlyph>
    <TTGlyph name="dvDH_N" xMin="72" yMin="78" xMax="670" yMax="627">
      <contour>
        <pt x="320" y="622" on="1"/>
        <pt x="670" y="622" on="1"/>
        <pt x="670" y="563" on="1"/>
        <pt x="320" y="563" on="1"/>
      </contour>
      <contour>
        <pt x="320" y="171" on="1"/>
        <pt x="320" y="406" on="1"/>
        <pt x="320" y="485" on="0"/>
        <pt x="399" y="485" on="1"/>
        <pt x="670" y="485" on="1"/>
        <pt x="670" y="426" on="1"/>
        <pt x="549" y="426" on="1"/>
        <pt x="549" y="157" on="1"/>
        <pt x="549" y="78" on="0"/>
        <pt x="470" y="78" on="1"/>
        <pt x="399" y="78" on="1"/>
        <pt x="360" y="78" on="0"/>
        <pt x="340" y="97" on="1"/>
        <pt x="332" y="78" on="0"/>
        <pt x="302" y="78" on="1"/>
        <pt x="151" y="78" on="1"/>
        <pt x="72" y="78" on="0"/>
        <pt x="72" y="157" on="1"/>
        <pt x="72" y="295" on="1"/>
        <pt x="72" y="338" on="0"/>
        <pt x="109" y="341" on="1"/>
        <pt x="109" y="343" on="1"/>
        <pt x="72" y="346" on="0"/>
        <pt x="72" y="390" on="1"/>
        <pt x="72" y="548" on="1"/>
        <pt x="72" y="627" on="0"/>
        <pt x="151" y="627" on="1"/>
        <pt x="186" y="627" on="1"/>
        <pt x="265" y="627" on="0"/>
        <pt x="265" y="548" on="1"/>
        <pt x="265" y="492" on="1"/>
        <pt x="213" y="492" on="1"/>
        <pt x="213" y="537" on="1"/>
        <pt x="213" y="556" on="0"/>
        <pt x="202" y="568" on="0"/>
        <pt x="182" y="568" on="1"/>
        <pt x="172" y="568" on="1"/>
        <pt x="152" y="568" on="0"/>
        <pt x="141" y="556" on="0"/>
        <pt x="141" y="537" on="1"/>
        <pt x="141" y="404" on="1"/>
        <pt x="141" y="384" on="0"/>
        <pt x="152" y="373" on="0"/>
        <pt x="172" y="373" on="1"/>
        <pt x="240" y="373" on="1"/>
        <pt x="240" y="314" on="1"/>
        <pt x="172" y="314" on="1"/>
        <pt x="152" y="314" on="0"/>
        <pt x="141" y="302" on="0"/>
        <pt x="141" y="283" on="1"/>
        <pt x="141" y="168" on="1"/>
        <pt x="141" y="148" on="0"/>
        <pt x="152" y="137" on="0"/>
        <pt x="172" y="137" on="1"/>
        <pt x="286" y="137" on="1"/>
        <pt x="306" y="137" on="0"/>
        <pt x="320" y="152" on="0"/>
      </contour>
      <contour>
        <pt x="480" y="426" on="1"/>
        <pt x="420" y="426" on="1"/>
        <pt x="400" y="426" on="0"/>
        <pt x="389" y="414" on="0"/>
        <pt x="389" y="395" on="1"/>
        <pt x="389" y="168" on="1"/>
        <pt x="389" y="148" on="0"/>
        <pt x="400" y="137" on="0"/>
        <pt x="420" y="137" on="1"/>
        <pt x="449" y="137" on="1"/>
        <pt x="468" y="137" on="0"/>
        <pt x="480" y="148" on="0"/>
        <pt x="480" y="168" on="1"/>
      </contour>
    </TTGlyph>
    <TTGlyph name="dvD_N" xMin="-20" yMin="-295" xMax="403" yMax="622">
      <contour>
        <pt x="303" y="-165" on="1"/>
        <pt x="403" y="-295" on="1"/>
        <pt x="327" y="-295" on="1"/>
        <pt x="227" y="-165" on="1"/>
      </contour>
      <contour>
        <pt x="230" y="-138" on="1"/>
        <pt x="230" y="-39" on="1"/>
        <pt x="187" y="-39" on="1"/>
        <pt x="168" y="-39" on="0"/>
        <pt x="156" y="-50" on="0"/>
        <pt x="156" y="-70" on="1"/>
        <pt x="156" y="-96" on="1"/>
        <pt x="87" y="-96" on="1"/>
        <pt x="87" y="-59" on="1"/>
        <pt x="87" y="20" on="0"/>
        <pt x="166" y="20" on="1"/>
        <pt x="230" y="20" on="1"/>
        <pt x="230" y="87" on="1"/>
        <pt x="220" y="78" on="0"/>
        <pt x="198" y="78" on="1"/>
        <pt x="134" y="78" on="1"/>
        <pt x="55" y="78" on="0"/>
        <pt x="55" y="157" on="1"/>
        <pt x="55" y="406" on="1"/>
        <pt x="55" y="485" on="0"/>
        <pt x="134" y="485" on="1"/>
        <pt x="223" y="485" on="1"/>
        <pt x="223" y="563" on="1"/>
        <pt x="-20" y="563" on="1"/>
        <pt x="-20" y="622" on="1"/>
        <pt x="367" y="622" on="1"/>
        <pt x="367" y="563" on="1"/>
        <pt x="292" y="563" on="1"/>
        <pt x="292" y="426" on="1"/>
        <pt x="155" y="426" on="1"/>
        <pt x="136" y="426" on="0"/>
        <pt x="124" y="414" on="0"/>
        <pt x="124" y="395" on="1"/>
        <pt x="124" y="168" on="1"/>
        <pt x="124" y="148" on="0"/>
        <pt x="136" y="137" on="0"/>
        <pt x="155" y="137" on="1"/>
        <pt x="196" y="137" on="1"/>
        <pt x="216" y="137" on="0"/>
        <pt x="230" y="152" on="0"/>
        <pt x="230" y="171" on="1"/>
        <pt x="230" y="266" on="1"/>
        <pt x="299" y="266" on="1"/>
        <pt x="299" y="-138" on="1"/>
      </contour>
    </TTGlyph>
    <TTGlyph name="dvGH_N" xMin="-20" yMin="78" xMax="629" yMax="622">
      <contour>
        <pt x="629" y="563" on="1"/>
        <pt x="149" y="563" on="1"/>
        <pt x="129" y="562" on="0"/>
        <pt x="117" y="551" on="0"/>
        <pt x="117" y="532" on="1"/>
        <pt x="117" y="410" on="1"/>
        <pt x="117" y="390" on="0"/>
        <pt x="128" y="379" on="0"/>
        <pt x="148" y="379" on="1"/>
        <pt x="216" y="379" on="1"/>
        <pt x="216" y="320" on="1"/>
        <pt x="148" y="320" on="1"/>
        <pt x="128" y="320" on="0"/>
        <pt x="117" y="308" on="0"/>
        <pt x="117" y="289" on="1"/>
        <pt x="117" y="168" on="1"/>
        <pt x="117" y="148" on="0"/>
        <pt x="128" y="137" on="0"/>
        <pt x="148" y="137" on="1"/>
        <pt x="258" y="137" on="1"/>
        <pt x="278" y="137" on="0"/>
        <pt x="292" y="152" on="0"/>
        <pt x="292" y="171" on="1"/>
        <pt x="292" y="406" on="1"/>
        <pt x="292" y="485" on="0"/>
        <pt x="371" y="485" on="1"/>
        <pt x="629" y="485" on="1"/>
        <pt x="629" y="426" on="1"/>
        <pt x="521" y="426" on="1"/>
        <pt x="521" y="157" on="1"/>
        <pt x="521" y="78" on="0"/>
        <pt x="442" y="78" on="1"/>
        <pt x="371" y="78" on="1"/>
        <pt x="332" y="78" on="0"/>
        <pt x="312" y="97" on="1"/>
        <pt x="304" y="78" on="0"/>
        <pt x="274" y="78" on="1"/>
        <pt x="127" y="78" on="1"/>
        <pt x="48" y="78" on="0"/>
        <pt x="48" y="157" on="1"/>
        <pt x="48" y="301" on="1"/>
        <pt x="48" y="344" on="0"/>
        <pt x="85" y="347" on="1"/>
        <pt x="85" y="349" on="1"/>
        <pt x="48" y="352" on="0"/>
        <pt x="48" y="396" on="1"/>
        <pt x="48" y="532" on="1"/>
        <pt x="48" y="555" on="0"/>
        <pt x="62" y="563" on="1"/>
        <pt x="-20" y="563" on="1"/>
        <pt x="-20" y="622" on="1"/>
        <pt x="629" y="622" on="1"/>
      </contour>
      <contour>
        <pt x="361" y="395" on="1"/>
        <pt x="361" y="168" on="1"/>
        <pt x="361" y="148" on="0"/>
        <pt x="372" y="137" on="0"/>
        <pt x="392" y="137" on="1"/>
        <pt x="421" y="137" on="1"/>
        <pt x="440" y="137" on="0"/>
        <pt x="452" y="148" on="0"/>
        <pt x="452" y="168" on="1"/>
        <pt x="452" y="426" on="1"/>
        <pt x="392" y="426" on="1"/>
        <pt x="372" y="426" on="0"/>
        <pt x="361" y="414" on="0"/>
      </contour>
    </TTGlyph>
    <TTGlyph name="dvG_N" xMin="-20" yMin="78" xMax="731" yMax="622">
      <contour>
        <pt x="731" y="622" on="1"/>
        <pt x="731" y="563" on="1"/>
        <pt x="284" y="563" on="1"/>
        <pt x="284" y="157" on="1"/>
        <pt x="284" y="78" on="0"/>
        <pt x="205" y="78" on="1"/>
        <pt x="114" y="78" on="1"/>
        <pt x="35" y="78" on="0"/>
        <pt x="35" y="157" on="1"/>
        <pt x="35" y="347" on="1"/>
        <pt x="35" y="426" on="0"/>
        <pt x="114" y="426" on="1"/>
        <pt x="215" y="426" on="1"/>
        <pt x="215" y="563" on="1"/>
        <pt x="-20" y="563" on="1"/>
        <pt x="-20" y="622" on="1"/>
      </contour>
      <contour>
        <pt x="135" y="137" on="1"/>
        <pt x="184" y="137" on="1"/>
        <pt x="204" y="137" on="0"/>
        <pt x="215" y="148" on="0"/>
        <pt x="215" y="168" on="1"/>
        <pt x="215" y="367" on="1"/>
        <pt x="135" y="367" on="1"/>
        <pt x="116" y="367" on="0"/>
        <pt x="104" y="356" on="0"/>
        <pt x="104" y="336" on="1"/>
        <pt x="104" y="168" on="1"/>
        <pt x="104" y="148" on="0"/>
        <pt x="116" y="137" on="0"/>
      </contour>
      <contour>
        <pt x="383" y="157" on="1"/>
        <pt x="383" y="406" on="1"/>
        <pt x="383" y="485" on="0"/>
        <pt x="462" y="485" on="1"/>
        <pt x="731" y="485" on="1"/>
        <pt x="731" y="426" on="1"/>
        <pt x="612" y="426" on="1"/>
        <pt x="612" y="157" on="1"/>
        <pt x="612" y="78" on="0"/>
        <pt x="533" y="78" on="1"/>
        <pt x="462" y="78" on="1"/>
        <pt x="383" y="78" on="0"/>
      </contour>
      <contour>
        <pt x="543" y="426" on="1"/>
        <pt x="483" y="426" on="1"/>
        <pt x="464" y="426" on="0"/>
        <pt x="452" y="414" on="0"/>
        <pt x="452" y="395" on="1"/>
        <pt x="452" y="168" on="1"/>
        <pt x="452" y="148" on="0"/>
        <pt x="464" y="137" on="0"/>
        <pt x="483" y="137" on="1"/>
        <pt x="512" y="137" on="1"/>
        <pt x="532" y="137" on="0"/>
        <pt x="543" y="148" on="0"/>
        <pt x="543" y="168" on="1"/>
      </contour>
    </TTGlyph>
    <TTGlyph name="dvJH_N" xMin="-20" yMin="0" xMax="738" yMax="622">
      <contour>
        <pt x="292" y="426" on="1"/>
        <pt x="146" y="426" on="1"/>
        <pt x="126" y="426" on="0"/>
        <pt x="115" y="414" on="0"/>
        <pt x="115" y="395" on="1"/>
        <pt x="115" y="355" on="1"/>
        <pt x="115" y="336" on="0"/>
        <pt x="126" y="324" on="0"/>
        <pt x="146" y="324" on="1"/>
        <pt x="390" y="324" on="1"/>
        <pt x="390" y="406" on="1"/>
        <pt x="390" y="485" on="0"/>
        <pt x="469" y="485" on="1"/>
        <pt x="738" y="485" on="1"/>
        <pt x="738" y="426" on="1"/>
        <pt x="619" y="426" on="1"/>
        <pt x="619" y="157" on="1"/>
        <pt x="619" y="78" on="0"/>
        <pt x="540" y="78" on="1"/>
        <pt x="469" y="78" on="1"/>
        <pt x="390" y="78" on="0"/>
        <pt x="390" y="157" on="1"/>
        <pt x="390" y="265" on="1"/>
        <pt x="299" y="265" on="1"/>
        <pt x="300" y="259" on="0"/>
        <pt x="300" y="245" on="1"/>
        <pt x="300" y="157" on="1"/>
        <pt x="300" y="78" on="0"/>
        <pt x="221" y="78" on="1"/>
        <pt x="117" y="78" on="1"/>
        <pt x="117" y="0" on="1"/>
        <pt x="48" y="0" on="1"/>
        <pt x="48" y="190" on="1"/>
        <pt x="117" y="190" on="1"/>
        <pt x="117" y="137" on="1"/>
        <pt x="200" y="137" on="1"/>
        <pt x="220" y="137" on="0"/>
        <pt x="231" y="148" on="0"/>
        <pt x="231" y="168" on="1"/>
        <pt x="231" y="234" on="1"/>
        <pt x="231" y="254" on="0"/>
        <pt x="220" y="265" on="0"/>
        <pt x="200" y="265" on="1"/>
        <pt x="125" y="265" on="1"/>
        <pt x="46" y="265" on="0"/>
        <pt x="46" y="344" on="1"/>
        <pt x="46" y="406" on="1"/>
        <pt x="46" y="485" on="0"/>
        <pt x="125" y="485" on="1"/>
        <pt x="223" y="485" on="1"/>
        <pt x="223" y="563" on="1"/>
        <pt x="-20" y="563" on="1"/>
        <pt x="-20" y="622" on="1"/>
        <pt x="738" y="622" on="1"/>
        <pt x="738" y="563" on="1"/>
        <pt x="292" y="563" on="1"/>
      </contour>
      <contour>
        <pt x="459" y="395" on="1"/>
        <pt x="459" y="168" on="1"/>
        <pt x="459" y="148" on="0"/>
        <pt x="470" y="137" on="0"/>
        <pt x="490" y="137" on="1"/>
        <pt x="519" y="137" on="1"/>
        <pt x="538" y="137" on="0"/>
        <pt x="550" y="148" on="0"/>
        <pt x="550" y="168" on="1"/>
        <pt x="550" y="426" on="1"/>
        <pt x="490" y="426" on="1"/>
        <pt x="470" y="426" on="0"/>
        <pt x="459" y="414" on="0"/>
      </contour>
    </TTGlyph>
    <TTGlyph name="dvJ_N" xMin="-20" yMin="78" xMax="725" yMax="622">
      <contour>
        <pt x="-20" y="622" on="1"/>
        <pt x="725" y="622" on="1"/>
        <pt x="725" y="563" on="1"/>
        <pt x="-20" y="563" on="1"/>
      </contour>
      <contour>
        <pt x="725" y="485" on="1"/>
        <pt x="725" y="426" on="1"/>
        <pt x="604" y="426" on="1"/>
        <pt x="604" y="157" on="1"/>
        <pt x="604" y="78" on="0"/>
        <pt x="525" y="78" on="1"/>
        <pt x="454" y="78" on="1"/>
        <pt x="375" y="78" on="0"/>
        <pt x="375" y="157" on="1"/>
        <pt x="375" y="406" on="1"/>
        <pt x="375" y="420" on="0"/>
        <pt x="376" y="426" on="1"/>
        <pt x="279" y="426" on="1"/>
        <pt x="279" y="157" on="1"/>
        <pt x="279" y="78" on="0"/>
        <pt x="200" y="78" on="1"/>
        <pt x="124" y="78" on="1"/>
        <pt x="45" y="78" on="0"/>
        <pt x="45" y="157" on="1"/>
        <pt x="45" y="485" on="1"/>
        <pt x="114" y="485" on="1"/>
        <pt x="114" y="168" on="1"/>
        <pt x="114" y="148" on="0"/>
        <pt x="126" y="137" on="0"/>
        <pt x="145" y="137" on="1"/>
        <pt x="179" y="137" on="1"/>
        <pt x="198" y="137" on="0"/>
        <pt x="210" y="148" on="0"/>
        <pt x="210" y="168" on="1"/>
        <pt x="210" y="485" on="1"/>
      </contour>
      <contour>
        <pt x="535" y="426" on="1"/>
        <pt x="475" y="426" on="1"/>
        <pt x="456" y="426" on="0"/>
        <pt x="444" y="414" on="0"/>
        <pt x="444" y="395" on="1"/>
        <pt x="444" y="168" on="1"/>
        <pt x="444" y="148" on="0"/>
        <pt x="456" y="137" on="0"/>
        <pt x="475" y="137" on="1"/>
        <pt x="504" y="137" on="1"/>
        <pt x="524" y="137" on="0"/>
        <pt x="535" y="148" on="0"/>
        <pt x="535" y="168" on="1"/>
      </contour>
    </TTGlyph>
    <TTGlyph name="dvKH_N" xMin="-20" yMin="0" xMax="832" yMax="622">
      <contour>
        <pt x="-20" y="622" on="1"/>
        <pt x="832" y="622" on="1"/>
        <pt x="832" y="563" on="1"/>
        <pt x="244" y="563" on="1"/>
        <pt x="252" y="555" on="0"/>
        <pt x="252" y="537" on="1"/>
        <pt x="252" y="325" on="1"/>
        <pt x="252" y="246" on="0"/>
        <pt x="173" y="246" on="1"/>
        <pt x="117" y="246" on="1"/>
        <pt x="117" y="93" on="1"/>
        <pt x="117" y="74" on="0"/>
        <pt x="128" y="62" on="0"/>
        <pt x="148" y="62" on="1"/>
        <pt x="361" y="62" on="1"/>
        <pt x="361" y="0" on="1"/>
        <pt x="127" y="0" on="1"/>
        <pt x="48" y="0" on="0"/>
        <pt x="48" y="79" on="1"/>
        <pt x="48" y="471" on="1"/>
        <pt x="117" y="471" on="1"/>
        <pt x="117" y="305" on="1"/>
        <pt x="152" y="305" on="1"/>
        <pt x="172" y="305" on="0"/>
        <pt x="183" y="316" on="0"/>
        <pt x="183" y="336" on="1"/>
        <pt x="183" y="532" on="1"/>
        <pt x="183" y="552" on="0"/>
        <pt x="172" y="563" on="0"/>
        <pt x="152" y="563" on="1"/>
        <pt x="-20" y="563" on="1"/>
      </contour>
      <contour>
        <pt x="464" y="217" on="1"/>
        <pt x="464" y="406" on="1"/>
        <pt x="464" y="485" on="0"/>
        <pt x="543" y="485" on="1"/>
        <pt x="832" y="485" on="1"/>
        <pt x="832" y="426" on="1"/>
        <pt x="693" y="426" on="1"/>
        <pt x="693" y="157" on="1"/>
        <pt x="693" y="78" on="0"/>
        <pt x="614" y="78" on="1"/>
        <pt x="543" y="78" on="1"/>
        <pt x="475" y="78" on="0"/>
        <pt x="466" y="136" on="1"/>
        <pt x="456" y="119" on="0"/>
        <pt x="427" y="119" on="1"/>
        <pt x="375" y="119" on="1"/>
        <pt x="296" y="119" on="0"/>
        <pt x="296" y="198" on="1"/>
        <pt x="296" y="406" on="1"/>
        <pt x="296" y="485" on="0"/>
        <pt x="375" y="485" on="1"/>
        <pt x="434" y="485" on="1"/>
        <pt x="434" y="426" on="1"/>
        <pt x="392" y="426" on="1"/>
        <pt x="372" y="426" on="0"/>
        <pt x="361" y="414" on="0"/>
        <pt x="361" y="395" on="1"/>
        <pt x="361" y="209" on="1"/>
        <pt x="361" y="190" on="0"/>
        <pt x="372" y="178" on="0"/>
        <pt x="392" y="178" on="1"/>
        <pt x="423" y="178" on="1"/>
        <pt x="446" y="178" on="0"/>
        <pt x="464" y="195" on="0"/>
      </contour>
      <contour>
        <pt x="624" y="426" on="1"/>
        <pt x="564" y="426" on="1"/>
        <pt x="544" y="426" on="0"/>
        <pt x="533" y="414" on="0"/>
        <pt x="533" y="395" on="1"/>
        <pt x="533" y="168" on="1"/>
        <pt x="533" y="148" on="0"/>
        <pt x="544" y="137" on="0"/>
        <pt x="564" y="137" on="1"/>
        <pt x="593" y="137" on="1"/>
        <pt x="612" y="137" on="0"/>
        <pt x="624" y="148" on="0"/>
        <pt x="624" y="168" on="1"/>
      </contour>
    </TTGlyph>
    <TTGlyph name="dvK_N" xMin="-20" yMin="0" xMax="731" yMax="622">
      <contour>
        <pt x="731" y="563" on="1"/>
        <pt x="288" y="563" on="1"/>
        <pt x="288" y="446" on="1"/>
        <pt x="298" y="455" on="0"/>
        <pt x="320" y="455" on="1"/>
        <pt x="731" y="455" on="1"/>
        <pt x="731" y="396" on="1"/>
        <pt x="622" y="396" on="1"/>
        <pt x="622" y="157" on="1"/>
        <pt x="622" y="78" on="0"/>
        <pt x="543" y="78" on="1"/>
        <pt x="472" y="78" on="1"/>
        <pt x="393" y="78" on="0"/>
        <pt x="393" y="157" on="1"/>
        <pt x="393" y="376" on="1"/>
        <pt x="393" y="390" on="0"/>
        <pt x="394" y="396" on="1"/>
        <pt x="322" y="396" on="1"/>
        <pt x="302" y="396" on="0"/>
        <pt x="288" y="382" on="0"/>
        <pt x="288" y="362" on="1"/>
        <pt x="288" y="0" on="1"/>
        <pt x="219" y="0" on="1"/>
        <pt x="219" y="87" on="1"/>
        <pt x="208" y="78" on="0"/>
        <pt x="187" y="78" on="1"/>
        <pt x="124" y="78" on="1"/>
        <pt x="45" y="78" on="0"/>
        <pt x="45" y="157" on="1"/>
        <pt x="45" y="406" on="1"/>
        <pt x="45" y="485" on="0"/>
        <pt x="124" y="485" on="1"/>
        <pt x="179" y="485" on="1"/>
        <pt x="179" y="426" on="1"/>
        <pt x="145" y="426" on="1"/>
        <pt x="126" y="426" on="0"/>
        <pt x="114" y="414" on="0"/>
        <pt x="114" y="395" on="1"/>
        <pt x="114" y="168" on="1"/>
        <pt x="114" y="148" on="0"/>
        <pt x="126" y="137" on="0"/>
        <pt x="145" y="137" on="1"/>
        <pt x="185" y="137" on="1"/>
        <pt x="204" y="137" on="0"/>
        <pt x="219" y="152" on="0"/>
        <pt x="219" y="171" on="1"/>
        <pt x="219" y="563" on="1"/>
        <pt x="-20" y="563" on="1"/>
        <pt x="-20" y="622" on="1"/>
        <pt x="731" y="622" on="1"/>
      </contour>
      <contour>
        <pt x="553" y="396" on="1"/>
        <pt x="493" y="396" on="1"/>
        <pt x="474" y="396" on="0"/>
        <pt x="462" y="384" on="0"/>
        <pt x="462" y="365" on="1"/>
        <pt x="462" y="168" on="1"/>
        <pt x="462" y="148" on="0"/>
        <pt x="474" y="137" on="0"/>
        <pt x="493" y="137" on="1"/>
        <pt x="522" y="137" on="1"/>
        <pt x="542" y="137" on="0"/>
        <pt x="553" y="148" on="0"/>
        <pt x="553" y="168" on="1"/>
      </contour>
    </TTGlyph>
    <TTGlyph name="dvM_N" xMin="-20" yMin="78" xMax="724" yMax="622">
      <contour>
        <pt x="724" y="563" on="1"/>
        <pt x="602" y="563" on="1"/>
        <pt x="602" y="432" on="1"/>
        <pt x="724" y="432" on="1"/>
        <pt x="724" y="373" on="1"/>
        <pt x="602" y="373" on="1"/>
        <pt x="602" y="157" on="1"/>
        <pt x="602" y="78" on="0"/>
        <pt x="523" y="78" on="1"/>
        <pt x="434" y="78" on="1"/>
        <pt x="355" y="78" on="0"/>
        <pt x="355" y="157" on="1"/>
        <pt x="355" y="353" on="1"/>
        <pt x="355" y="367" on="0"/>
        <pt x="356" y="373" on="1"/>
        <pt x="264" y="373" on="1"/>
        <pt x="264" y="157" on="1"/>
        <pt x="264" y="78" on="0"/>
        <pt x="185" y="78" on="1"/>
        <pt x="114" y="78" on="1"/>
        <pt x="35" y="78" on="0"/>
        <pt x="35" y="157" on="1"/>
        <pt x="35" y="353" on="1"/>
        <pt x="35" y="432" on="0"/>
        <pt x="114" y="432" on="1"/>
        <pt x="533" y="432" on="1"/>
        <pt x="533" y="563" on="1"/>
        <pt x="-20" y="563" on="1"/>
        <pt x="-20" y="622" on="1"/>
        <pt x="724" y="622" on="1"/>
      </contour>
      <contour>
        <pt x="195" y="168" on="1"/>
        <pt x="195" y="373" on="1"/>
        <pt x="135" y="373" on="1"/>
        <pt x="116" y="373" on="0"/>
        <pt x="104" y="362" on="0"/>
        <pt x="104" y="342" on="1"/>
        <pt x="104" y="168" on="1"/>
        <pt x="104" y="148" on="0"/>
        <pt x="116" y="137" on="0"/>
        <pt x="135" y="137" on="1"/>
        <pt x="164" y="137" on="1"/>
        <pt x="184" y="137" on="0"/>
        <pt x="195" y="148" on="0"/>
      </contour>
      <contour>
        <pt x="533" y="168" on="1"/>
        <pt x="533" y="373" on="1"/>
        <pt x="455" y="373" on="1"/>
        <pt x="436" y="373" on="0"/>
        <pt x="424" y="362" on="0"/>
        <pt x="424" y="342" on="1"/>
        <pt x="424" y="168" on="1"/>
        <pt x="424" y="148" on="0"/>
        <pt x="436" y="137" on="0"/>
        <pt x="455" y="137" on="1"/>
        <pt x="502" y="137" on="1"/>
        <pt x="522" y="137" on="0"/>
        <pt x="533" y="148" on="0"/>
      </contour>
    </TTGlyph>
    <TTGlyph name="dvMatraI.a33" xMin="-20" yMin="0" xMax="1151" yMax="813">
      <contour>
        <pt x="1072" y="813" on="1"/>
        <pt x="1151" y="813" on="0"/>
        <pt x="1151" y="734" on="1"/>
        <pt x="1151" y="667" on="1"/>
        <pt x="1082" y="667" on="1"/>
        <pt x="1082" y="723" on="1"/>
        <pt x="1082" y="742" on="0"/>
        <pt x="1070" y="754" on="0"/>
        <pt x="1051" y="754" on="1"/>
        <pt x="155" y="754" on="1"/>
        <pt x="136" y="754" on="0"/>
        <pt x="124" y="742" on="0"/>
        <pt x="124" y="723" on="1"/>
        <pt x="124" y="622" on="1"/>
        <pt x="199" y="622" on="1"/>
        <pt x="199" y="563" on="1"/>
        <pt x="124" y="563" on="1"/>
        <pt x="124" y="0" on="1"/>
        <pt x="55" y="0" on="1"/>
        <pt x="55" y="563" on="1"/>
        <pt x="-20" y="563" on="1"/>
        <pt x="-20" y="622" on="1"/>
        <pt x="55" y="622" on="1"/>
        <pt x="55" y="734" on="1"/>
        <pt x="55" y="813" on="0"/>
        <pt x="134" y="813" on="1"/>
      </contour>
    </TTGlyph>
    <TTGlyph name="dvMatraI.a34" xMin="-20" yMin="0" xMax="1173" yMax="813">
      <contour>
        <pt x="1094" y="813" on="1"/>
        <pt x="1173" y="813" on="0"/>
        <pt x="1173" y="734" on="1"/>
        <pt x="1173" y="667" on="1"/>
        <pt x="1104" y="667" on="1"/>
        <pt x="1104" y="723" on="1"/>
        <pt x="1104" y="742" on="0"/>
        <pt x="1092" y="754" on="0"/>
        <pt x="1073" y="754" on="1"/>
        <pt x="155" y="754" on="1"/>
        <pt x="136" y="754" on="0"/>
        <pt x="124" y="742" on="0"/>
        <pt x="124" y="723" on="1"/>
        <pt x="124" y="622" on="1"/>
        <pt x="199" y="622" on="1"/>
        <pt x="199" y="563" on="1"/>
        <pt x="124" y="563" on="1"/>
        <pt x="124" y="0" on="1"/>
        <pt x="55" y="0" on="1"/>
        <pt x="55" y="563" on="1"/>
        <pt x="-20" y="563" on="1"/>
        <pt x="-20" y="622" on="1"/>
        <pt x="55" y="622" on="1"/>
        <pt x="55" y="734" on="1"/>
        <pt x="55" y="813" on="0"/>
        <pt x="134" y="813" on="1"/>
      </contour>
    </TTGlyph>
    <TTGlyph name="dvMatraI.a35" xMin="-20" yMin="0" xMax="1194" yMax="813">
      <contour>
        <pt x="1115" y="813" on="1"/>
        <pt x="1194" y="813" on="0"/>
        <pt x="1194" y="734" on="1"/>
        <pt x="1194" y="667" on="1"/>
        <pt x="1125" y="667" on="1"/>
        <pt x="1125" y="723" on="1"/>
        <pt x="1125" y="742" on="0"/>
        <pt x="1114" y="754" on="0"/>
        <pt x="1094" y="754" on="1"/>
        <pt x="155" y="754" on="1"/>
        <pt x="136" y="754" on="0"/>
        <pt x="124" y="742" on="0"/>
        <pt x="124" y="723" on="1"/>
        <pt x="124" y="622" on="1"/>
        <pt x="199" y="622" on="1"/>
        <pt x="199" y="563" on="1"/>
        <pt x="124" y="563" on="1"/>
        <pt x="124" y="0" on="1"/>
        <pt x="55" y="0" on="1"/>
        <pt x="55" y="563" on="1"/>
        <pt x="-20" y="563" on="1"/>
        <pt x="-20" y="622" on="1"/>
        <pt x="55" y="622" on="1"/>
        <pt x="55" y="734" on="1"/>
        <pt x="55" y="813" on="0"/>
        <pt x="134" y="813" on="1"/>
      </contour>
    </TTGlyph>
    <TTGlyph name="dvMatraI.a36" xMin="-20" yMin="0" xMax="1216" yMax="813">
      <contour>
        <pt x="1137" y="813" on="1"/>
        <pt x="1216" y="813" on="0"/>
        <pt x="1216" y="734" on="1"/>
        <pt x="1216" y="667" on="1"/>
        <pt x="1147" y="667" on="1"/>
        <pt x="1147" y="723" on="1"/>
        <pt x="1147" y="742" on="0"/>
        <pt x="1136" y="754" on="0"/>
        <pt x="1116" y="754" on="1"/>
        <pt x="155" y="754" on="1"/>
        <pt x="136" y="754" on="0"/>
        <pt x="124" y="742" on="0"/>
        <pt x="124" y="723" on="1"/>
        <pt x="124" y="622" on="1"/>
        <pt x="199" y="622" on="1"/>
        <pt x="199" y="563" on="1"/>
        <pt x="124" y="563" on="1"/>
        <pt x="124" y="0" on="1"/>
        <pt x="55" y="0" on="1"/>
        <pt x="55" y="563" on="1"/>
        <pt x="-20" y="563" on="1"/>
        <pt x="-20" y="622" on="1"/>
        <pt x="55" y="622" on="1"/>
        <pt x="55" y="734" on="1"/>
        <pt x="55" y="813" on="0"/>
        <pt x="134" y="813" on="1"/>
      </contour>
    </TTGlyph>
</ttFont>
